<svg xmlns="http://www.w3.org/2000/svg" xmlns:xlink="http://www.w3.org/1999/xlink" viewBox="0 0 276.12 411.54"><defs><style>.cls-1{fill:url(#linear-gradient);}.cls-2{fill:url(#linear-gradient-2);}.cls-3{fill:url(#radial-gradient);}</style><linearGradient id="linear-gradient" y1="205.77" x2="276.12" y2="205.77" gradientUnits="userSpaceOnUse"><stop offset="0" stop-color="#410059"/><stop offset="1" stop-color="#64008a"/></linearGradient><linearGradient id="linear-gradient-2" x1="10.38" y1="389.91" x2="265.57" y2="21.87" xlink:href="#linear-gradient"/><radialGradient id="radial-gradient" cx="138.06" cy="205.77" r="138.36" gradientUnits="userSpaceOnUse"><stop offset="0.17" stop-color="#8a4699"/><stop offset="1" stop-color="#410059"/></radialGradient></defs><g id="Layer_2" data-name="Layer 2"><g id="Layer_3" data-name="Layer 3"><path class="cls-1" d="M276.12,391.25c0,11.16-8.58,20.29-19.06,20.29h-238C8.58,411.54,0,402.41,0,391.25v-371C0,9.13,8.58,0,19.06,0h238c10.48,0,19.06,9.13,19.06,20.29Z"/><rect x="20.17" y="21.47" width="235.78" height="368.6"/><rect class="cls-2" x="22.19" y="23.62" width="231.75" height="364.31"/><path d="M25.31,386.53h-.1a1.77,1.77,0,0,1-1.71-1.83v-.1a1.77,1.77,0,0,1,1.71-1.83,1.66,1.66,0,0,1,1.26.59A1.87,1.87,0,0,1,27,384.7,1.78,1.78,0,0,1,25.31,386.53Z"/><path d="M25.21,380a1.77,1.77,0,0,1-1.71-1.83V378a1.71,1.71,0,1,1,3.42,0v.21A1.77,1.77,0,0,1,25.21,380Zm0-6.63a1.77,1.77,0,0,1-1.71-1.82v-.22a1.71,1.71,0,1,1,3.42,0v.22A1.77,1.77,0,0,1,25.21,373.38Zm0-6.63a1.76,1.76,0,0,1-1.71-1.82v-.22a1.71,1.71,0,1,1,3.42,0v.22A1.76,1.76,0,0,1,25.21,366.75Zm0-6.62a1.77,1.77,0,0,1-1.71-1.83v-.21a1.71,1.71,0,1,1,3.42,0v.21A1.77,1.77,0,0,1,25.21,360.13Zm0-6.63a1.77,1.77,0,0,1-1.71-1.83v-.21a1.71,1.71,0,1,1,3.42,0v.21A1.77,1.77,0,0,1,25.21,353.5Zm0-6.63a1.76,1.76,0,0,1-1.71-1.82v-.22a1.71,1.71,0,1,1,3.42,0v.22A1.76,1.76,0,0,1,25.21,346.87Zm0-6.62a1.77,1.77,0,0,1-1.71-1.83v-.21a1.71,1.71,0,1,1,3.42,0v.21A1.77,1.77,0,0,1,25.21,340.25Zm0-6.63a1.77,1.77,0,0,1-1.71-1.83v-.21a1.71,1.71,0,1,1,3.42,0v.21A1.77,1.77,0,0,1,25.21,333.62Zm0-6.63a1.77,1.77,0,0,1-1.71-1.82V325a1.71,1.71,0,1,1,3.42,0v.22A1.77,1.77,0,0,1,25.21,327Zm0-6.63a1.76,1.76,0,0,1-1.71-1.82v-.21a1.71,1.71,0,1,1,3.42,0v.21A1.76,1.76,0,0,1,25.21,320.36Zm0-6.62a1.77,1.77,0,0,1-1.71-1.83v-.21a1.71,1.71,0,1,1,3.42,0v.21A1.77,1.77,0,0,1,25.21,313.74Zm0-6.63a1.77,1.77,0,0,1-1.71-1.83v-.21a1.71,1.71,0,1,1,3.42,0v.21A1.77,1.77,0,0,1,25.21,307.11Zm0-6.63a1.76,1.76,0,0,1-1.71-1.82v-.22a1.71,1.71,0,1,1,3.42,0v.22A1.76,1.76,0,0,1,25.21,300.48Zm0-6.62A1.77,1.77,0,0,1,23.5,292v-.21a1.71,1.71,0,1,1,3.42,0V292A1.77,1.77,0,0,1,25.21,293.86Zm0-6.63a1.77,1.77,0,0,1-1.71-1.83v-.21a1.71,1.71,0,1,1,3.42,0v.21A1.77,1.77,0,0,1,25.21,287.23Zm0-6.63a1.77,1.77,0,0,1-1.71-1.82v-.22a1.71,1.71,0,1,1,3.42,0v.22A1.77,1.77,0,0,1,25.21,280.6Zm0-6.62a1.77,1.77,0,0,1-1.71-1.83v-.21a1.71,1.71,0,1,1,3.42,0v.21A1.77,1.77,0,0,1,25.21,274Zm0-6.63a1.77,1.77,0,0,1-1.71-1.83v-.21a1.71,1.71,0,1,1,3.42,0v.21A1.77,1.77,0,0,1,25.21,267.35Zm0-6.63a1.77,1.77,0,0,1-1.71-1.82v-.22a1.71,1.71,0,1,1,3.42,0v.22A1.77,1.77,0,0,1,25.21,260.72Zm0-6.63a1.76,1.76,0,0,1-1.71-1.82v-.22a1.71,1.71,0,1,1,3.42,0v.22A1.76,1.76,0,0,1,25.21,254.09Zm0-6.62a1.77,1.77,0,0,1-1.71-1.83v-.21a1.71,1.71,0,1,1,3.42,0v.21A1.77,1.77,0,0,1,25.21,247.47Zm0-6.63A1.77,1.77,0,0,1,23.5,239v-.21a1.71,1.71,0,1,1,3.42,0V239A1.77,1.77,0,0,1,25.21,240.84Zm0-6.63a1.77,1.77,0,0,1-1.71-1.82v-.22a1.71,1.71,0,1,1,3.42,0v.22A1.77,1.77,0,0,1,25.21,234.21Zm0-6.62a1.77,1.77,0,0,1-1.71-1.83v-.21a1.71,1.71,0,1,1,3.42,0v.21A1.77,1.77,0,0,1,25.21,227.59Zm0-6.63a1.77,1.77,0,0,1-1.71-1.83v-.21a1.71,1.71,0,1,1,3.42,0v.21A1.77,1.77,0,0,1,25.21,221Zm0-6.63a1.77,1.77,0,0,1-1.71-1.82v-.22a1.71,1.71,0,1,1,3.42,0v.22A1.77,1.77,0,0,1,25.21,214.33Zm0-6.63a1.76,1.76,0,0,1-1.71-1.82v-.22a1.71,1.71,0,1,1,3.42,0v.22A1.76,1.76,0,0,1,25.21,207.7Zm0-6.62a1.77,1.77,0,0,1-1.71-1.83V199a1.71,1.71,0,1,1,3.42,0v.21A1.77,1.77,0,0,1,25.21,201.08Zm0-6.63a1.77,1.77,0,0,1-1.71-1.83v-.21a1.71,1.71,0,1,1,3.42,0v.21A1.77,1.77,0,0,1,25.21,194.45Zm0-6.63A1.76,1.76,0,0,1,23.5,186v-.22a1.71,1.71,0,1,1,3.42,0V186A1.76,1.76,0,0,1,25.21,187.82Zm0-6.62a1.77,1.77,0,0,1-1.71-1.83v-.21a1.71,1.71,0,1,1,3.42,0v.21A1.77,1.77,0,0,1,25.21,181.2Zm0-6.63a1.77,1.77,0,0,1-1.71-1.83v-.21a1.71,1.71,0,1,1,3.42,0v.21A1.77,1.77,0,0,1,25.21,174.57Zm0-6.63a1.77,1.77,0,0,1-1.71-1.82v-.22a1.71,1.71,0,1,1,3.42,0v.22A1.77,1.77,0,0,1,25.21,167.94Zm0-6.63a1.76,1.76,0,0,1-1.71-1.82v-.22a1.71,1.71,0,1,1,3.42,0v.22A1.76,1.76,0,0,1,25.21,161.31Zm0-6.62a1.77,1.77,0,0,1-1.71-1.83v-.21a1.71,1.71,0,1,1,3.42,0v.21A1.77,1.77,0,0,1,25.21,154.69Zm0-6.63a1.77,1.77,0,0,1-1.71-1.83V146a1.71,1.71,0,1,1,3.42,0v.21A1.77,1.77,0,0,1,25.21,148.06Zm0-6.63a1.76,1.76,0,0,1-1.71-1.82v-.22a1.71,1.71,0,1,1,3.42,0v.22A1.76,1.76,0,0,1,25.21,141.43Zm0-6.62A1.77,1.77,0,0,1,23.5,133v-.21a1.71,1.71,0,1,1,3.42,0V133A1.77,1.77,0,0,1,25.21,134.81Zm0-6.63a1.77,1.77,0,0,1-1.71-1.83v-.21a1.71,1.71,0,1,1,3.42,0v.21A1.77,1.77,0,0,1,25.21,128.18Zm0-6.63a1.77,1.77,0,0,1-1.71-1.82v-.22a1.71,1.71,0,1,1,3.42,0v.22A1.77,1.77,0,0,1,25.21,121.55Zm0-6.63a1.76,1.76,0,0,1-1.71-1.82v-.21a1.71,1.71,0,1,1,3.42,0v.21A1.76,1.76,0,0,1,25.21,114.92Zm0-6.62a1.77,1.77,0,0,1-1.71-1.83v-.21a1.71,1.71,0,1,1,3.42,0v.21A1.77,1.77,0,0,1,25.21,108.3Zm0-6.63a1.77,1.77,0,0,1-1.71-1.82v-.22a1.71,1.71,0,1,1,3.42,0v.22A1.77,1.77,0,0,1,25.21,101.67Zm0-6.63a1.76,1.76,0,0,1-1.71-1.82V93a1.71,1.71,0,1,1,3.42,0v.22A1.76,1.76,0,0,1,25.21,95Zm0-6.62a1.77,1.77,0,0,1-1.71-1.83v-.21a1.71,1.71,0,1,1,3.42,0v.21A1.77,1.77,0,0,1,25.21,88.42Zm0-6.63A1.77,1.77,0,0,1,23.5,80v-.21a1.71,1.71,0,1,1,3.42,0V80A1.77,1.77,0,0,1,25.21,81.79Zm0-6.63a1.77,1.77,0,0,1-1.71-1.82v-.22a1.71,1.71,0,1,1,3.42,0v.22A1.77,1.77,0,0,1,25.21,75.16Zm0-6.63a1.76,1.76,0,0,1-1.71-1.82V66.5a1.71,1.71,0,1,1,3.42,0v.21A1.76,1.76,0,0,1,25.21,68.53Zm0-6.62a1.77,1.77,0,0,1-1.71-1.83v-.21a1.71,1.71,0,1,1,3.42,0v.21A1.77,1.77,0,0,1,25.21,61.91Zm0-6.63a1.77,1.77,0,0,1-1.71-1.82v-.22a1.71,1.71,0,1,1,3.42,0v.22A1.77,1.77,0,0,1,25.21,55.28Zm0-6.63a1.76,1.76,0,0,1-1.71-1.82v-.22a1.71,1.71,0,1,1,3.42,0v.22A1.76,1.76,0,0,1,25.21,48.65Zm0-6.62A1.77,1.77,0,0,1,23.5,40.2V40a1.71,1.71,0,1,1,3.42,0v.21A1.77,1.77,0,0,1,25.21,42Zm0-6.63a1.77,1.77,0,0,1-1.71-1.83v-.21a1.71,1.71,0,1,1,3.42,0v.21A1.77,1.77,0,0,1,25.21,35.4Z"/><path d="M25.21,28.77A1.77,1.77,0,0,1,23.5,27v-.11A1.77,1.77,0,0,1,25.21,25h.1A1.78,1.78,0,0,1,27,26.84a1.87,1.87,0,0,1-.56,1.34A1.66,1.66,0,0,1,25.21,28.77Z"/><path d="M244.74,28.66h-.2a1.83,1.83,0,0,1,0-3.65h.2a1.83,1.83,0,0,1,0,3.65Zm-6.27,0h-.2a1.83,1.83,0,0,1,0-3.65h.2a1.83,1.83,0,0,1,0,3.65Zm-6.27,0H232A1.83,1.83,0,0,1,232,25h.2a1.83,1.83,0,0,1,0,3.65Zm-6.27,0h-.2a1.83,1.83,0,0,1,0-3.65h.2a1.83,1.83,0,0,1,0,3.65Zm-6.27,0h-.2a1.83,1.83,0,0,1,0-3.65h.2a1.83,1.83,0,0,1,0,3.65Zm-6.27,0h-.2a1.83,1.83,0,0,1,0-3.65h.2a1.83,1.83,0,0,1,0,3.65Zm-6.27,0h-.2a1.83,1.83,0,0,1,0-3.65h.2a1.83,1.83,0,0,1,0,3.65Zm-6.27,0h-.2a1.83,1.83,0,0,1,0-3.65h.2a1.83,1.83,0,0,1,0,3.65Zm-6.26,0h-.21a1.83,1.83,0,0,1,0-3.65h.21a1.83,1.83,0,0,1,0,3.65Zm-6.27,0h-.21a1.83,1.83,0,0,1,0-3.65h.21a1.83,1.83,0,0,1,0,3.65Zm-6.27,0h-.21a1.83,1.83,0,0,1,0-3.65h.21a1.83,1.83,0,0,1,0,3.65Zm-6.27,0h-.21a1.83,1.83,0,0,1,0-3.65h.21a1.83,1.83,0,0,1,0,3.65Zm-6.27,0h-.21a1.83,1.83,0,0,1,0-3.65h.21a1.83,1.83,0,0,1,0,3.65Zm-6.27,0H163A1.83,1.83,0,0,1,163,25h.2a1.83,1.83,0,0,1,0,3.65Zm-6.27,0h-.2a1.83,1.83,0,0,1,0-3.65h.2a1.83,1.83,0,0,1,0,3.65Zm-6.27,0h-.2a1.83,1.83,0,0,1,0-3.65h.2a1.83,1.83,0,0,1,0,3.65Zm-6.27,0h-.2a1.83,1.83,0,0,1,0-3.65h.2a1.83,1.83,0,0,1,0,3.65Zm-6.27,0H138A1.83,1.83,0,0,1,138,25h.2a1.83,1.83,0,0,1,0,3.65Zm-6.27,0h-.2a1.83,1.83,0,0,1,0-3.65h.2a1.83,1.83,0,0,1,0,3.65Zm-6.27,0h-.2a1.83,1.83,0,0,1,0-3.65h.2a1.83,1.83,0,0,1,0,3.65Zm-6.27,0h-.2a1.83,1.83,0,0,1,0-3.65h.2a1.83,1.83,0,0,1,0,3.65Zm-6.27,0h-.2a1.83,1.83,0,0,1,0-3.65h.2a1.83,1.83,0,0,1,0,3.65Zm-6.27,0h-.2a1.83,1.83,0,0,1,0-3.65h.2a1.83,1.83,0,0,1,0,3.65Zm-6.27,0h-.2a1.83,1.83,0,0,1,0-3.65h.2a1.83,1.83,0,0,1,0,3.65Zm-6.27,0h-.2a1.83,1.83,0,0,1,0-3.65h.2a1.83,1.83,0,0,1,0,3.65Zm-6.26,0H87.8a1.83,1.83,0,0,1,0-3.65H88a1.83,1.83,0,0,1,0,3.65Zm-6.27,0h-.21a1.83,1.83,0,0,1,0-3.65h.21a1.83,1.83,0,0,1,0,3.65Zm-6.27,0h-.21a1.83,1.83,0,0,1,0-3.65h.21a1.83,1.83,0,0,1,0,3.65Zm-6.27,0H69A1.83,1.83,0,0,1,69,25h.21a1.83,1.83,0,0,1,0,3.65Zm-6.27,0h-.2a1.83,1.83,0,0,1,0-3.65h.2a1.83,1.83,0,0,1,0,3.65Zm-6.27,0h-.2a1.83,1.83,0,0,1,0-3.65h.2a1.83,1.83,0,0,1,0,3.65Zm-6.27,0h-.2a1.83,1.83,0,0,1,0-3.65h.2a1.83,1.83,0,0,1,0,3.65Zm-6.27,0h-.2a1.83,1.83,0,0,1,0-3.65h.2a1.83,1.83,0,0,1,0,3.65Zm-6.27,0h-.2a1.83,1.83,0,0,1,0-3.65h.2a1.83,1.83,0,0,1,0,3.65Zm-6.27,0h-.2a1.83,1.83,0,0,1,0-3.65h.2a1.83,1.83,0,0,1,0,3.65Z"/><path d="M250.91,28.77a1.66,1.66,0,0,1-1.26-.59,1.87,1.87,0,0,1-.56-1.34A1.78,1.78,0,0,1,250.81,25h.1a1.77,1.77,0,0,1,1.71,1.83V27A1.77,1.77,0,0,1,250.91,28.77Z"/><path d="M250.91,380a1.78,1.78,0,0,1-1.72-1.83V378a1.72,1.72,0,1,1,3.43,0v.21A1.77,1.77,0,0,1,250.91,380Zm0-6.63a1.78,1.78,0,0,1-1.72-1.83v-.21a1.72,1.72,0,1,1,3.43,0v.21A1.77,1.77,0,0,1,250.91,373.38Zm0-6.63a1.77,1.77,0,0,1-1.72-1.82v-.22a1.72,1.72,0,1,1,3.43,0v.22A1.76,1.76,0,0,1,250.91,366.75Zm0-6.62a1.78,1.78,0,0,1-1.72-1.83v-.21a1.72,1.72,0,1,1,3.43,0v.21A1.77,1.77,0,0,1,250.91,360.13Zm0-6.63a1.78,1.78,0,0,1-1.72-1.83v-.21a1.72,1.72,0,1,1,3.43,0v.21A1.77,1.77,0,0,1,250.91,353.5Zm0-6.63a1.77,1.77,0,0,1-1.72-1.82v-.22a1.72,1.72,0,1,1,3.43,0v.22A1.76,1.76,0,0,1,250.91,346.87Zm0-6.62a1.78,1.78,0,0,1-1.72-1.83v-.21a1.72,1.72,0,1,1,3.43,0v.21A1.77,1.77,0,0,1,250.91,340.25Zm0-6.63a1.78,1.78,0,0,1-1.72-1.83v-.21a1.72,1.72,0,1,1,3.43,0v.21A1.77,1.77,0,0,1,250.91,333.62Zm0-6.63a1.78,1.78,0,0,1-1.72-1.82V325a1.72,1.72,0,1,1,3.43,0v.22A1.77,1.77,0,0,1,250.91,327Zm0-6.63a1.77,1.77,0,0,1-1.72-1.82v-.22a1.72,1.72,0,1,1,3.43,0v.22A1.76,1.76,0,0,1,250.91,320.36Zm0-6.62a1.78,1.78,0,0,1-1.72-1.83v-.21a1.72,1.72,0,1,1,3.43,0v.21A1.77,1.77,0,0,1,250.91,313.74Zm0-6.63a1.78,1.78,0,0,1-1.72-1.83v-.21a1.72,1.72,0,1,1,3.43,0v.21A1.77,1.77,0,0,1,250.91,307.11Zm0-6.63a1.77,1.77,0,0,1-1.72-1.82v-.22a1.72,1.72,0,1,1,3.43,0v.22A1.76,1.76,0,0,1,250.91,300.48Zm0-6.62a1.78,1.78,0,0,1-1.72-1.83v-.21a1.72,1.72,0,1,1,3.43,0V292A1.77,1.77,0,0,1,250.91,293.86Zm0-6.63a1.78,1.78,0,0,1-1.72-1.83v-.21a1.72,1.72,0,1,1,3.43,0v.21A1.77,1.77,0,0,1,250.91,287.23Zm0-6.63a1.78,1.78,0,0,1-1.72-1.82v-.22a1.72,1.72,0,1,1,3.43,0v.22A1.77,1.77,0,0,1,250.91,280.6Zm0-6.62a1.78,1.78,0,0,1-1.72-1.83v-.21a1.72,1.72,0,1,1,3.43,0v.21A1.77,1.77,0,0,1,250.91,274Zm0-6.63a1.78,1.78,0,0,1-1.72-1.83v-.21a1.72,1.72,0,1,1,3.43,0v.21A1.77,1.77,0,0,1,250.91,267.35Zm0-6.63a1.78,1.78,0,0,1-1.72-1.82v-.22a1.72,1.72,0,1,1,3.43,0v.22A1.77,1.77,0,0,1,250.91,260.72Zm0-6.63a1.77,1.77,0,0,1-1.72-1.82v-.22a1.72,1.72,0,1,1,3.43,0v.22A1.76,1.76,0,0,1,250.91,254.09Zm0-6.62a1.78,1.78,0,0,1-1.72-1.83v-.21a1.72,1.72,0,1,1,3.43,0v.21A1.77,1.77,0,0,1,250.91,247.47Zm0-6.63a1.78,1.78,0,0,1-1.72-1.83v-.21a1.72,1.72,0,1,1,3.43,0V239A1.77,1.77,0,0,1,250.91,240.84Zm0-6.63a1.78,1.78,0,0,1-1.72-1.82v-.22a1.72,1.72,0,1,1,3.43,0v.22A1.77,1.77,0,0,1,250.91,234.21Zm0-6.62a1.78,1.78,0,0,1-1.72-1.83v-.21a1.72,1.72,0,1,1,3.43,0v.21A1.77,1.77,0,0,1,250.91,227.59Zm0-6.63a1.78,1.78,0,0,1-1.72-1.83v-.21a1.72,1.72,0,1,1,3.43,0v.21A1.77,1.77,0,0,1,250.91,221Zm0-6.63a1.78,1.78,0,0,1-1.72-1.82v-.22a1.72,1.72,0,1,1,3.43,0v.22A1.77,1.77,0,0,1,250.91,214.33Zm0-6.63a1.77,1.77,0,0,1-1.72-1.82v-.22a1.72,1.72,0,1,1,3.43,0v.22A1.76,1.76,0,0,1,250.91,207.7Zm0-6.62a1.78,1.78,0,0,1-1.72-1.83V199a1.72,1.72,0,1,1,3.43,0v.21A1.77,1.77,0,0,1,250.91,201.08Zm0-6.63a1.78,1.78,0,0,1-1.72-1.83v-.21a1.72,1.72,0,1,1,3.43,0v.21A1.77,1.77,0,0,1,250.91,194.45Zm0-6.63a1.77,1.77,0,0,1-1.72-1.82v-.22a1.72,1.72,0,1,1,3.43,0V186A1.76,1.76,0,0,1,250.91,187.82Zm0-6.62a1.78,1.78,0,0,1-1.72-1.83v-.21a1.72,1.72,0,1,1,3.43,0v.21A1.77,1.77,0,0,1,250.91,181.2Zm0-6.63a1.78,1.78,0,0,1-1.72-1.83v-.21a1.72,1.72,0,1,1,3.43,0v.21A1.77,1.77,0,0,1,250.91,174.57Zm0-6.63a1.78,1.78,0,0,1-1.72-1.82v-.22a1.72,1.72,0,1,1,3.43,0v.22A1.77,1.77,0,0,1,250.91,167.94Zm0-6.63a1.77,1.77,0,0,1-1.72-1.82v-.22a1.72,1.72,0,1,1,3.43,0v.22A1.76,1.76,0,0,1,250.91,161.31Zm0-6.62a1.78,1.78,0,0,1-1.72-1.83v-.21a1.72,1.72,0,1,1,3.43,0v.21A1.77,1.77,0,0,1,250.91,154.69Zm0-6.63a1.78,1.78,0,0,1-1.72-1.83V146a1.72,1.72,0,1,1,3.43,0v.21A1.77,1.77,0,0,1,250.91,148.06Zm0-6.63a1.77,1.77,0,0,1-1.72-1.82v-.22a1.72,1.72,0,1,1,3.43,0v.22A1.76,1.76,0,0,1,250.91,141.43Zm0-6.62a1.78,1.78,0,0,1-1.72-1.83v-.21a1.72,1.72,0,1,1,3.43,0V133A1.77,1.77,0,0,1,250.91,134.81Zm0-6.63a1.78,1.78,0,0,1-1.72-1.83v-.21a1.72,1.72,0,1,1,3.43,0v.21A1.77,1.77,0,0,1,250.91,128.18Zm0-6.63a1.78,1.78,0,0,1-1.72-1.82v-.22a1.72,1.72,0,1,1,3.43,0v.22A1.77,1.77,0,0,1,250.91,121.55Zm0-6.63a1.77,1.77,0,0,1-1.72-1.82v-.21a1.72,1.72,0,1,1,3.43,0v.21A1.76,1.76,0,0,1,250.91,114.92Zm0-6.62a1.78,1.78,0,0,1-1.72-1.83v-.21a1.72,1.72,0,1,1,3.43,0v.21A1.77,1.77,0,0,1,250.91,108.3Zm0-6.63a1.78,1.78,0,0,1-1.72-1.82v-.22a1.72,1.72,0,1,1,3.43,0v.22A1.77,1.77,0,0,1,250.91,101.67Zm0-6.63a1.77,1.77,0,0,1-1.72-1.82V93a1.72,1.72,0,1,1,3.43,0v.22A1.76,1.76,0,0,1,250.91,95Zm0-6.62a1.78,1.78,0,0,1-1.72-1.83v-.21a1.72,1.72,0,1,1,3.43,0v.21A1.77,1.77,0,0,1,250.91,88.42Zm0-6.63A1.78,1.78,0,0,1,249.19,80v-.21a1.72,1.72,0,1,1,3.43,0V80A1.77,1.77,0,0,1,250.91,81.79Zm0-6.63a1.78,1.78,0,0,1-1.72-1.82v-.22a1.72,1.72,0,1,1,3.43,0v.22A1.77,1.77,0,0,1,250.91,75.16Zm0-6.63a1.77,1.77,0,0,1-1.72-1.82V66.5a1.72,1.72,0,1,1,3.43,0v.21A1.76,1.76,0,0,1,250.91,68.53Zm0-6.62a1.78,1.78,0,0,1-1.72-1.83v-.21a1.72,1.72,0,1,1,3.43,0v.21A1.77,1.77,0,0,1,250.91,61.91Zm0-6.63a1.78,1.78,0,0,1-1.72-1.83v-.21a1.72,1.72,0,1,1,3.43,0v.21A1.77,1.77,0,0,1,250.91,55.28Zm0-6.63a1.77,1.77,0,0,1-1.72-1.82v-.22a1.72,1.72,0,1,1,3.43,0v.22A1.76,1.76,0,0,1,250.91,48.65Zm0-6.62a1.78,1.78,0,0,1-1.72-1.83V40a1.72,1.72,0,1,1,3.43,0v.21A1.77,1.77,0,0,1,250.91,42Zm0-6.63a1.78,1.78,0,0,1-1.72-1.83v-.21a1.72,1.72,0,1,1,3.43,0v.21A1.77,1.77,0,0,1,250.91,35.4Z"/><path d="M250.91,386.53h-.1a1.78,1.78,0,0,1-1.72-1.83,1.87,1.87,0,0,1,.56-1.34,1.66,1.66,0,0,1,1.26-.59,1.77,1.77,0,0,1,1.71,1.83v.1A1.77,1.77,0,0,1,250.91,386.53Z"/><path d="M244.74,386.53h-.2a1.83,1.83,0,0,1,0-3.65h.2a1.83,1.83,0,0,1,0,3.65Zm-6.27,0h-.2a1.83,1.83,0,0,1,0-3.65h.2a1.83,1.83,0,0,1,0,3.65Zm-6.27,0H232a1.83,1.83,0,0,1,0-3.65h.2a1.83,1.83,0,0,1,0,3.65Zm-6.27,0h-.2a1.83,1.83,0,0,1,0-3.65h.2a1.83,1.83,0,0,1,0,3.65Zm-6.27,0h-.2a1.83,1.83,0,0,1,0-3.65h.2a1.83,1.83,0,0,1,0,3.65Zm-6.27,0h-.2a1.83,1.83,0,0,1,0-3.65h.2a1.83,1.83,0,0,1,0,3.65Zm-6.27,0h-.2a1.83,1.83,0,0,1,0-3.65h.2a1.83,1.83,0,0,1,0,3.65Zm-6.27,0h-.2a1.83,1.83,0,0,1,0-3.65h.2a1.83,1.83,0,0,1,0,3.65Zm-6.26,0h-.21a1.83,1.83,0,0,1,0-3.65h.21a1.83,1.83,0,0,1,0,3.65Zm-6.27,0h-.21a1.83,1.83,0,0,1,0-3.65h.21a1.83,1.83,0,0,1,0,3.65Zm-6.27,0h-.21a1.83,1.83,0,0,1,0-3.65h.21a1.83,1.83,0,0,1,0,3.65Zm-6.27,0h-.21a1.83,1.83,0,0,1,0-3.65h.21a1.83,1.83,0,0,1,0,3.65Zm-6.27,0h-.21a1.83,1.83,0,0,1,0-3.65h.21a1.83,1.83,0,0,1,0,3.65Zm-6.27,0H163a1.83,1.83,0,0,1,0-3.65h.2a1.83,1.83,0,0,1,0,3.65Zm-6.27,0h-.2a1.83,1.83,0,0,1,0-3.65h.2a1.83,1.83,0,0,1,0,3.65Zm-6.27,0h-.2a1.83,1.83,0,0,1,0-3.65h.2a1.83,1.83,0,0,1,0,3.65Zm-6.27,0h-.2a1.83,1.83,0,0,1,0-3.65h.2a1.83,1.83,0,0,1,0,3.65Zm-6.27,0H138a1.83,1.83,0,0,1,0-3.65h.2a1.83,1.83,0,0,1,0,3.65Zm-6.27,0h-.2a1.83,1.83,0,0,1,0-3.65h.2a1.83,1.83,0,0,1,0,3.65Zm-6.27,0h-.2a1.83,1.83,0,0,1,0-3.65h.2a1.83,1.83,0,0,1,0,3.65Zm-6.27,0h-.2a1.83,1.83,0,0,1,0-3.65h.2a1.83,1.83,0,0,1,0,3.65Zm-6.27,0h-.2a1.83,1.83,0,0,1,0-3.65h.2a1.83,1.83,0,0,1,0,3.65Zm-6.27,0h-.2a1.83,1.83,0,0,1,0-3.65h.2a1.83,1.83,0,0,1,0,3.65Zm-6.27,0h-.2a1.83,1.83,0,0,1,0-3.65h.2a1.83,1.83,0,0,1,0,3.65Zm-6.27,0h-.2a1.83,1.83,0,0,1,0-3.65h.2a1.83,1.83,0,0,1,0,3.65Zm-6.26,0H87.8a1.83,1.83,0,0,1,0-3.65H88a1.83,1.83,0,0,1,0,3.65Zm-6.27,0h-.21a1.83,1.83,0,0,1,0-3.65h.21a1.83,1.83,0,0,1,0,3.65Zm-6.27,0h-.21a1.83,1.83,0,0,1,0-3.65h.21a1.83,1.83,0,0,1,0,3.65Zm-6.27,0H69a1.83,1.83,0,0,1,0-3.65h.21a1.83,1.83,0,0,1,0,3.65Zm-6.27,0h-.2a1.83,1.83,0,0,1,0-3.65h.2a1.83,1.83,0,0,1,0,3.65Zm-6.27,0h-.2a1.83,1.83,0,0,1,0-3.65h.2a1.83,1.83,0,0,1,0,3.65Zm-6.27,0h-.2a1.83,1.83,0,0,1,0-3.65h.2a1.83,1.83,0,0,1,0,3.65Zm-6.27,0h-.2a1.83,1.83,0,0,1,0-3.65h.2a1.83,1.83,0,0,1,0,3.65Zm-6.27,0h-.2a1.83,1.83,0,0,1,0-3.65h.2a1.83,1.83,0,0,1,0,3.65Zm-6.27,0h-.2a1.83,1.83,0,0,1,0-3.65h.2a1.83,1.83,0,0,1,0,3.65Z"/><rect x="28.24" y="30.06" width="219.65" height="351.42"/><rect x="34.29" y="36.5" width="207.55" height="338.54"/><rect class="cls-3" x="36.3" y="38.65" width="203.51" height="334.24"/><path d="M169.48,172.47a42.37,42.37,0,0,0-62.56,0,49.26,49.26,0,0,0,0,66.6,42.35,42.35,0,0,0,62.56,0,49.26,49.26,0,0,0,0-66.6Zm-1.43,65.09a40.44,40.44,0,0,1-59.71,0,47,47,0,0,1,0-63.57,40.42,40.42,0,0,1,59.71,0,47,47,0,0,1,0,63.57Z"/><path d="M156,51.17a24.35,24.35,0,0,0-35.94,0,28.3,28.3,0,0,0,0,38.27,24.33,24.33,0,0,0,35.94,0,28.3,28.3,0,0,0,0-38.27Zm-.82,37.4a23.22,23.22,0,0,1-34.31,0,27,27,0,0,1,0-36.53,23.24,23.24,0,0,1,34.31,0,27,27,0,0,1,0,36.53Z"/><path d="M161.33,74.68,150,71.84c0-.28.05-.56.07-.85l11.67-.68L150,69.62c0-.28,0-.57-.07-.85l11.39-2.83-11.61,1.48c-.06-.28-.13-.55-.21-.82l10.75-4.9-11.19,3.61c-.1-.26-.22-.52-.34-.78l9.79-6.8L148.1,63.35c-.15-.24-.3-.47-.47-.7l8.53-8.52L146.8,61.6l-.27-.31-.29-.29,7-10-8,9.08c-.21-.17-.43-.33-.65-.49l5.28-11.1-6.4,10.42q-.36-.19-.72-.36l3.38-11.92-4.6,11.45a6.77,6.77,0,0,0-.77-.22l1.39-12.36L139.5,57.65c-.26,0-.53-.06-.8-.07l-.64-12.43-.65,12.43c-.26,0-.53,0-.79.07L134,45.53l1.4,12.36a7.59,7.59,0,0,0-.78.22L130,46.66l3.38,11.92c-.24.11-.49.23-.72.36l-6.4-10.42,5.28,11.1c-.22.16-.44.32-.65.49l-8-9.08,7,10-.29.29-.27.31L120,54.13l8.53,8.52c-.16.23-.31.46-.46.7l-10.43-5.62,9.79,6.8c-.12.26-.24.52-.34.78L115.85,61.7l10.75,4.9c-.08.27-.15.54-.21.82l-11.61-1.48,11.39,2.83c0,.28,0,.57-.07.85l-11.68.69L126.1,71c0,.29,0,.57.07.85l-11.39,2.84,11.61-1.48c.06.27.13.55.21.82l-10.75,4.89L127,75.31c.1.26.22.52.34.77l-9.79,6.81L128,77.27c.15.24.3.47.46.7L120,86.48,129.32,79l.27.3.29.3-7,10,8-9.08c.21.17.43.34.65.49L126.24,92.1l6.4-10.42c.23.13.48.25.72.36L130,94l4.59-11.44c.26.08.52.16.78.22L134,95.09,136.62,83c.26,0,.53.06.79.08l.65,12.43L138.7,83c.27,0,.54,0,.8-.08l2.66,12.13-1.39-12.36c.26-.06.52-.14.77-.22L146.14,94,142.76,82q.36-.17.72-.36l6.4,10.42L144.6,81c.22-.15.44-.32.65-.49l8,9.08-7-10,.29-.3.27-.3,9.36,7.46L147.63,78c.17-.23.32-.46.47-.7l10.43,5.62-9.79-6.81c.12-.25.24-.51.34-.77l11.19,3.6L149.52,74c.08-.27.15-.55.21-.82Zm-15.62,3.77a10.37,10.37,0,0,1-15.3,0,12,12,0,0,1,0-16.28,10.35,10.35,0,0,1,15.3,0,12,12,0,0,1,0,16.28Z"/><path d="M156,322.1a24.33,24.33,0,0,0-35.94,0,28.3,28.3,0,0,0,0,38.27,24.33,24.33,0,0,0,35.94,0,28.3,28.3,0,0,0,0-38.27Zm-.82,37.4a23.24,23.24,0,0,1-34.31,0,27,27,0,0,1,0-36.53,23.24,23.24,0,0,1,34.31,0,27,27,0,0,1,0,36.53Z"/><path d="M161.33,345.6,150,342.77c0-.28.05-.56.07-.85l11.67-.68L150,340.55c0-.29,0-.57-.07-.85l11.39-2.83-11.61,1.48c-.06-.28-.13-.55-.21-.83l10.75-4.89-11.19,3.6c-.1-.26-.22-.52-.34-.77l9.79-6.81-10.43,5.62c-.15-.23-.3-.47-.47-.69l8.53-8.52-9.36,7.47-.27-.31-.29-.3,7-10-8,9.08c-.21-.17-.43-.33-.65-.49l5.28-11.11-6.4,10.42-.72-.36,3.38-11.91L141.54,329l-.77-.22,1.39-12.35-2.66,12.12c-.26,0-.53-.06-.8-.08l-.64-12.43-.65,12.43c-.26,0-.53,0-.79.08L134,316.46l1.4,12.35-.78.22L130,317.59l3.38,11.91c-.24.11-.49.23-.72.36l-6.4-10.42,5.28,11.11c-.22.16-.44.32-.65.49l-8-9.08,7,10-.29.3-.27.31L120,325.06l8.53,8.52c-.16.22-.31.46-.46.69l-10.43-5.62,9.79,6.81c-.12.25-.24.51-.34.77l-11.19-3.6,10.75,4.89c-.08.28-.15.55-.21.83l-11.61-1.48,11.39,2.83c0,.28,0,.56-.07.85l-11.68.69,11.68.68c0,.29,0,.57.07.85l-11.39,2.83,11.61-1.48c.06.28.13.55.21.83l-10.75,4.89,11.19-3.6c.1.26.22.51.34.77l-9.79,6.81L128,348.2c.15.23.3.46.46.69L120,357.41l9.37-7.47.27.31.29.29-7,10,8-9.08c.21.17.43.33.65.49L126.24,363l6.4-10.42c.23.13.48.25.72.36L130,364.88l4.59-11.44.78.22L134,366l2.67-12.12c.26,0,.53.06.79.07l.65,12.44L138.7,354c.27,0,.54,0,.8-.07L142.16,366l-1.39-12.35.77-.22,4.6,11.44L142.76,353l.72-.36,6.4,10.42-5.28-11.11c.22-.16.44-.32.65-.49l8,9.08-7-10,.29-.29.27-.31,9.36,7.47-8.53-8.52c.17-.23.32-.46.47-.69l10.43,5.62L148.74,347c.12-.26.24-.51.34-.77l11.19,3.6L149.52,345c.08-.28.15-.55.21-.83Zm-15.62,3.78a10.37,10.37,0,0,1-15.3,0,12,12,0,0,1,0-16.29,10.37,10.37,0,0,1,15.3,0,12,12,0,0,1,0,16.29Z"/><path d="M59.79,139.91l-.34.35.87.09Z"/><path d="M60.82,138.41a9.49,9.49,0,0,1-.63,1l1.19,1c.62.05,1.25.08,1.92.11Z"/><path d="M61.49,136.58c-.06.24-.13.48-.2.71s-.13.35-.19.51l3.09,2.77H66Z"/><path d="M61.67,134.28a9,9,0,0,1-.05,1.55l5.12,4.74c.53,0,1.07-.09,1.6-.12Z"/><path d="M52.26,127.16l.2,0a8.32,8.32,0,0,1,1.32-.14L39.26,113.54l-.44.77-1.34-.82Z"/><path d="M68.59,130.05,79,141.52l1.5.43c-4.11-4-7.86-7.69-11.43-11.4Z"/><path d="M45.24,109.51a6.18,6.18,0,0,0-1.3-.15h-.45L73.85,140.6c.63.06,1.25.14,1.87.24Z"/><path d="M42.17,109.75a2.39,2.39,0,0,0-.34.21,4,4,0,0,0-.6.5l30.08,29.87,1.86.17Z"/><path d="M55.11,127.07a7.74,7.74,0,0,1,2.25.7l.4.22L40.48,111.43l-.12.21-.48.83Z"/><path d="M60.54,130.66a6.75,6.75,0,0,1,.52,1,7.68,7.68,0,0,1,.47,1.57L69,140.42h1.31l.34,0Z"/><path d="M50.92,112.15c-.72-.48-1.42-.91-2.13-1.29-.43-.23-.85-.43-1.25-.61L76.37,141c.67.12,1.34.26,2,.42Z"/><path d="M216.44,139.91l.34.35-.88.09Z"/><path d="M215.41,138.41a7.08,7.08,0,0,0,.63,1l-1.2,1c-.61.05-1.25.08-1.91.11Z"/><path d="M214.74,136.58c.06.24.12.48.2.71s.12.35.19.51L212,140.57h-1.78Z"/><path d="M214.56,134.28a8.07,8.07,0,0,0,.05,1.55l-5.13,4.74-1.59-.12Z"/><path d="M224,127.16l-.2,0a8.33,8.33,0,0,0-1.33-.14L237,113.54l.44.77,1.34-.82Z"/><path d="M207.64,130.05l-10.41,11.47-1.51.43c4.12-4,7.87-7.69,11.44-11.4Z"/><path d="M231,109.51a6.18,6.18,0,0,1,1.3-.15h.45L202.38,140.6c-.63.06-1.25.14-1.87.24Z"/><path d="M234.06,109.75a3.13,3.13,0,0,1,.34.21,5.3,5.3,0,0,1,.6.5l-30.09,29.87-1.85.17Z"/><path d="M221.11,127.07a7.59,7.59,0,0,0-2.24.7l-.41.22,17.28-16.56.13.21.48.83Z"/><path d="M215.68,130.66a7.82,7.82,0,0,0-.51,1,7.71,7.71,0,0,0-.48,1.57l-7.51,7.19h-1.31l-.33,0Z"/><path d="M225.31,112.15c.71-.48,1.42-.91,2.12-1.29.43-.23.85-.43,1.26-.61L199.85,141c-.67.12-1.33.26-2,.42Z"/><path d="M59.79,271.64c-.11-.12-.22-.24-.34-.35l.87-.1Z"/><path d="M60.82,273.14a7.83,7.83,0,0,0-.63-1l1.19-1c.62,0,1.25-.08,1.92-.1Z"/><path d="M61.49,275c-.06-.24-.13-.48-.2-.71s-.13-.34-.19-.51L64.19,271H66Z"/><path d="M61.67,277.26a8.81,8.81,0,0,0-.05-1.54L66.74,271c.53.06,1.07.09,1.6.12Z"/><path d="M52.26,284.38l.2,0a7.3,7.3,0,0,0,1.32.14L39.26,298l-.44-.76-1.34.82Z"/><path d="M68.59,281.49,79,270c.5-.13,1-.27,1.5-.43-4.11,4-7.86,7.7-11.43,11.4Z"/><path d="M45.24,302a6.87,6.87,0,0,1-1.3.14h-.45L73.85,271c.63-.07,1.25-.15,1.87-.25Z"/><path d="M42.17,301.79a3.79,3.79,0,0,1-.34-.2,3.53,3.53,0,0,1-.6-.51l30.08-29.87,1.86-.17Z"/><path d="M55.11,284.47a7.74,7.74,0,0,0,2.25-.7l.4-.22L40.48,300.12l-.12-.22-.48-.82Z"/><path d="M60.54,280.89a6.87,6.87,0,0,0,.52-1,7.78,7.78,0,0,0,.47-1.56l7.51-7.2,1.12,0h.19l.34,0Z"/><path d="M50.92,299.4a23.1,23.1,0,0,1-2.13,1.28c-.43.23-.85.43-1.25.61l28.83-30.7c.67-.12,1.34-.26,2-.41Z"/><path d="M229.12,305.82a10.52,10.52,0,0,0,3.71.25,6.94,6.94,0,0,0,3.45-1.41,8.66,8.66,0,0,0,2.34-3l-.17-.11a8.16,8.16,0,0,1-2.41,2.7,6.39,6.39,0,0,1-3.27,1.1,9.83,9.83,0,0,1-3.44-.46,18.17,18.17,0,0,1-3.26-1.37,34,34,0,0,1-5.89-4.13,48.33,48.33,0,0,1-4-3.93c-3.57-4.2-7.29-8.25-11.09-12.2q-6-6.26-12.29-12.21c-5.09-4.87-10.25-9.65-15.44-14.39,4,2.43,8.1,4.73,12.29,6.83,1.09.53,2.16,1.06,3.27,1.56a28.74,28.74,0,0,0,3.44,1.33,31.49,31.49,0,0,0,7.17,1.4c.73.06,1.45.09,2.18.1h.12a34.61,34.61,0,0,0,3.53-.16c.74,0,1.49,0,2.23,0a52.09,52.09,0,0,1,5.86.38c1,.13,1.93.3,2.87.52a14.78,14.78,0,0,1,2.73.89,8.09,8.09,0,0,1,1.23.68,5.31,5.31,0,0,1,1,.91,6.17,6.17,0,0,1,1.33,2.5,6.45,6.45,0,0,1,.07,2.9,6.05,6.05,0,0,1-.46,1.38,5.07,5.07,0,0,1-.35.65,4.39,4.39,0,0,1-.42.57,4.44,4.44,0,0,1-2.35,1.45,4.34,4.34,0,0,1-2.75-.24,4.13,4.13,0,0,1-1.2-.78,3.87,3.87,0,0,1-.85-1.18,4.16,4.16,0,0,1-.23-2.95,3.93,3.93,0,0,1,.67-1.34,3,3,0,0,1,1.16-.89,2.92,2.92,0,0,1,2.81.27l0,0a3,3,0,0,0-2.9-.39,3.32,3.32,0,0,0-1.27.9,4.15,4.15,0,0,0-.78,1.41,4.61,4.61,0,0,0,.14,3.23,4.19,4.19,0,0,0,.9,1.36,5,5,0,0,0,1.31.93,4.85,4.85,0,0,0,3.09.4,5.15,5.15,0,0,0,2.78-1.56,7.33,7.33,0,0,0,.11-9.38,6.33,6.33,0,0,0-1.21-1.16,10,10,0,0,0-1.38-.84,17.26,17.26,0,0,0-2.92-1.1c-1-.28-2-.49-3-.67-.47-.08-.93-.15-1.4-.21.55-.18,1.09-.37,1.63-.57a32.53,32.53,0,0,0,12.27-8.21,33.17,33.17,0,0,0,4.49-6.11l.46-.84.22-.43.22-.42c.28-.58.55-1.17.79-1.76a29,29,0,0,0,1.25-3.68,29.79,29.79,0,0,0-.06-15.4,29.18,29.18,0,0,0-3-7.09,27.43,27.43,0,0,0-4.69-5.94,26,26,0,0,0-6.06-4.32,20.14,20.14,0,0,0-7-2.05,19.82,19.82,0,0,0-7.27.64,20.4,20.4,0,0,0-6.63,3.22,21.81,21.81,0,0,0-5.18,5.44c-.35.53-.68,1.07-1,1.63l-.23.42-.22.43c-.14.29-.28.58-.41.88a19,19,0,0,0-1.13,11.45,18.4,18.4,0,0,0,3.09,7,17.15,17.15,0,0,0,5.56,4.94,12.8,12.8,0,0,0,7.1,1.54,13.08,13.08,0,0,0,6.79-2.58,13.86,13.86,0,0,0,4.54-6,12.06,12.06,0,0,0,.36-7.6,11.38,11.38,0,0,0-4.2-6.13,9.59,9.59,0,0,0-1.57-.94,8.42,8.42,0,0,0-1.73-.59,7.91,7.91,0,0,0-3.59.05,8.32,8.32,0,0,0-3.25,1.6,8.77,8.77,0,0,0-1.19,1.17c0-.29-.12-1.6-1.21-1.83s-3.57.89-3.57.89,1.76,2,3,2.26a1.25,1.25,0,0,0,1-.2l-.21.36a2.86,2.86,0,0,0-2.5,2.26c-.4,2.13,1.83,4.61,1.85,4.53s1.41-2.83,1.92-4.33a2.12,2.12,0,0,0-1.06-2.41,9.09,9.09,0,0,1,.71-1,1.73,1.73,0,0,0,.38,1.88c1,.83,3.51,1,3.51,1s-.67-2.62-1.63-3.45a1.42,1.42,0,0,0-1.68-.09,10.49,10.49,0,0,1,.86-.77,8,8,0,0,1,3.16-1.5,7.68,7.68,0,0,1,3.44,0,7.3,7.3,0,0,1,1.64.59,9.29,9.29,0,0,1,1.5.92,10.85,10.85,0,0,1,3.92,5.92,11.39,11.39,0,0,1-.44,7.18,13.19,13.19,0,0,1-4.36,5.57,12.23,12.23,0,0,1-6.43,2.34,11.92,11.92,0,0,1-6.62-1.52,16.27,16.27,0,0,1-5.19-4.73,17.42,17.42,0,0,1-2.82-6.6,17.66,17.66,0,0,1,0-7.24,17.2,17.2,0,0,1,1.12-3.43c.12-.27.25-.55.38-.81l.21-.4.22-.4c.3-.52.61-1,1-1.52a20.07,20.07,0,0,1,4.92-5.06,19.32,19.32,0,0,1,6.23-3A18.64,18.64,0,0,1,223.12,213a24.37,24.37,0,0,1,5.66,4.11,26.61,26.61,0,0,1,7.13,12.29,27.83,27.83,0,0,1,0,14.41,27.07,27.07,0,0,1-1.18,3.42c-.24.56-.49,1.1-.75,1.64l-.21.4-.21.4-.44.78a30.61,30.61,0,0,1-15.87,13.4,31.58,31.58,0,0,1-9.39,2c-.75,0-1.51,0-2.27,0h0c-.63,0-1.27,0-1.91-.1a29.94,29.94,0,0,1-6.74-1.34,30.69,30.69,0,0,1-3.22-1.26c-1.07-.5-2.14-1-3.2-1.55-4.25-2.13-8.41-4.48-12.49-7q-3.06-1.87-6.06-3.85c-1.77-1.17-3.53-2.37-5.25-3.59a53.41,53.41,0,0,0,0-82.77c1.72-1.23,3.48-2.43,5.25-3.59q3-2,6.06-3.86c4.08-2.49,8.24-4.84,12.49-7,1.06-.53,2.13-1.05,3.2-1.54a26.85,26.85,0,0,1,3.22-1.26,30,30,0,0,1,6.74-1.35c.64,0,1.28-.09,1.91-.1h0l2.27,0a31.56,31.56,0,0,1,9.39,1.94,30.73,30.73,0,0,1,15.87,13.4l.44.79.21.39.21.41c.26.53.51,1.08.75,1.63a27.07,27.07,0,0,1,1.18,3.42,27.83,27.83,0,0,1,0,14.41,26.56,26.56,0,0,1-7.13,12.29,24.37,24.37,0,0,1-5.66,4.11A18.5,18.5,0,0,1,209.77,200a19.29,19.29,0,0,1-6.23-3,20.41,20.41,0,0,1-4.92-5.06c-.34-.5-.65-1-1-1.53l-.22-.4-.21-.4c-.13-.26-.26-.53-.38-.81a17,17,0,0,1-1.12-3.43,17.66,17.66,0,0,1,0-7.24,17.42,17.42,0,0,1,2.82-6.6,16.24,16.24,0,0,1,5.19-4.72,11.93,11.93,0,0,1,6.62-1.53,12.23,12.23,0,0,1,6.43,2.34,13.19,13.19,0,0,1,4.36,5.57,11.42,11.42,0,0,1,.44,7.19,10.87,10.87,0,0,1-3.92,5.91,10.12,10.12,0,0,1-1.5.93,8.43,8.43,0,0,1-1.64.59,7.68,7.68,0,0,1-3.44,0,8,8,0,0,1-3.16-1.5,7.77,7.77,0,0,1-.86-.77,1.42,1.42,0,0,0,1.68-.09c1-.83,1.63-3.45,1.63-3.45s-2.55.16-3.51,1a1.73,1.73,0,0,0-.38,1.88,8.29,8.29,0,0,1-.71-1,2.12,2.12,0,0,0,1.06-2.41c-.51-1.49-2-4.23-1.92-4.32s-2.25,2.4-1.85,4.52a2.85,2.85,0,0,0,2.5,2.26l.21.36a1.29,1.29,0,0,0-1-.2c-1.23.26-3,2.26-3,2.26s2.34,1.15,3.57.89,1.2-1.54,1.21-1.83a8.77,8.77,0,0,0,1.19,1.17,8.48,8.48,0,0,0,3.25,1.61,8.06,8.06,0,0,0,3.59,0,8.42,8.42,0,0,0,1.73-.59,9.59,9.59,0,0,0,1.57-.94,11.35,11.35,0,0,0,4.2-6.12,12.09,12.09,0,0,0-.36-7.61,13.92,13.92,0,0,0-4.54-5.95,13.08,13.08,0,0,0-6.79-2.58,12.72,12.72,0,0,0-7.1,1.55,17,17,0,0,0-5.56,4.94,18.34,18.34,0,0,0-3.09,7,19,19,0,0,0,1.13,11.45c.13.29.27.58.41.87l.22.43.23.42c.31.56.64,1.1,1,1.63a21.47,21.47,0,0,0,5.18,5.44,20.63,20.63,0,0,0,6.63,3.23A19.79,19.79,0,0,0,223.76,200a25.67,25.67,0,0,0,6.06-4.32,27.43,27.43,0,0,0,4.69-5.94,29.18,29.18,0,0,0,3-7.09,29.79,29.79,0,0,0,.06-15.4,29.37,29.37,0,0,0-1.25-3.67c-.24-.6-.51-1.18-.79-1.77l-.22-.42-.22-.43-.46-.84a33.51,33.51,0,0,0-4.49-6.11,32.64,32.64,0,0,0-12.27-8.21c-.54-.2-1.08-.39-1.63-.56l1.4-.22c1-.18,2-.39,3-.67a16.45,16.45,0,0,0,2.92-1.1,10,10,0,0,0,1.38-.84,6.33,6.33,0,0,0,1.21-1.16,7.13,7.13,0,0,0,1.47-3,7.23,7.23,0,0,0-1.58-6.33,5.11,5.11,0,0,0-2.78-1.57,4.92,4.92,0,0,0-3.09.41,4.71,4.71,0,0,0-1.31.92,4.3,4.3,0,0,0-.9,1.36,4.64,4.64,0,0,0-.14,3.24,4.1,4.1,0,0,0,.78,1.4,3.12,3.12,0,0,0,1.27.9,3,3,0,0,0,2.9-.39l0,0a2.91,2.91,0,0,1-2.81.26,3,3,0,0,1-1.16-.89,3.84,3.84,0,0,1-.67-1.34,4.17,4.17,0,0,1,.23-3,3.87,3.87,0,0,1,.85-1.18,4.34,4.34,0,0,1,3.95-1,4.51,4.51,0,0,1,2.35,1.45,3.88,3.88,0,0,1,.42.58,5.71,5.71,0,0,1,.35.64,6.13,6.13,0,0,1,.46,1.39,6.46,6.46,0,0,1-.07,2.9,6.13,6.13,0,0,1-1.33,2.49,5.36,5.36,0,0,1-1,.92A8,8,0,0,1,223,142a15.59,15.59,0,0,1-2.73.9c-.94.22-1.9.38-2.87.51a52.09,52.09,0,0,1-5.86.38c-.74,0-1.49,0-2.23,0a32,32,0,0,0-3.53-.16h-.12c-.73,0-1.45,0-2.18.09a32,32,0,0,0-7.17,1.4,30.54,30.54,0,0,0-3.44,1.33c-1.11.51-2.18,1-3.27,1.57-4.19,2.09-8.28,4.39-12.29,6.82q7.78-7.09,15.44-14.38,6.26-6,12.29-12.22c3.8-4,7.52-8,11.09-12.2a46.68,46.68,0,0,1,4-3.92,33.47,33.47,0,0,1,5.89-4.14,18.93,18.93,0,0,1,3.26-1.37,10.07,10.07,0,0,1,3.44-.46,6.49,6.49,0,0,1,3.27,1.1,8.2,8.2,0,0,1,2.41,2.71l.17-.11a8.61,8.61,0,0,0-2.34-3,7,7,0,0,0-3.45-1.4,10.51,10.51,0,0,0-3.71.24,19.11,19.11,0,0,0-3.5,1.22,29.61,29.61,0,0,0-3.82,2.11c1.91-2.5,3.76-5.07,5.5-7.73,1.62-2.46,3.14-5,4.52-7.63a67.63,67.63,0,0,0,3.66-8.19,50.89,50.89,0,0,0,2.37-8.75,40.4,40.4,0,0,0,.53-9.13q-.07-1.14-.21-2.28c0-.38-.1-.75-.16-1.14s-.13-.76-.2-1.14A27.12,27.12,0,0,0,232,50.81a26.14,26.14,0,0,0-14.84-8.87,25,25,0,0,0-8.62-.21,21.56,21.56,0,0,0-4.22,1.06,20.34,20.34,0,0,0-3.94,2A21.66,21.66,0,0,0,194,51a23.35,23.35,0,0,0-3.48,8.39,23.73,23.73,0,0,0,0,9.16,18.51,18.51,0,0,0,3.82,8.23,16.93,16.93,0,0,0,7.12,5.13,15.8,15.8,0,0,0,8.55.73,13.17,13.17,0,0,0,4.09-1.5,13.59,13.59,0,0,0,3.43-2.81,14.81,14.81,0,0,0,3.59-8.22,15.22,15.22,0,0,0-.2-4.57,12,12,0,0,0-1.73-4.2A10.72,10.72,0,0,0,212,56.59a9.88,9.88,0,0,0-4.26.23A8.34,8.34,0,0,0,204.05,59a9.23,9.23,0,0,0-2.23,3.83,10.54,10.54,0,0,0-.27,1.24c-.18-.29-1.25-1.87-2.76-1.27-1.67.67-3.7,3.92-3.7,3.92s3.54,1,5.2.34a2,2,0,0,0,1.16-1.27,6.11,6.11,0,0,0,.06.86,3.8,3.8,0,0,0-1.1,4.08c.94,2.44,4.76,3.36,4.73,3.26s-.35-3.88-.78-5.76a2.4,2.4,0,0,0-2.64-1.68,9.26,9.26,0,0,1,.05-2.17c.08.67.4,2.18,1.82,2.46,1.84.37,5.32-1.38,5.32-1.38s-2.66-3-4.5-3.31a2.44,2.44,0,0,0-2.52,1.59c.06-.27.13-.55.21-.81a8.94,8.94,0,0,1,2.21-3.64,8,8,0,0,1,3.56-2,9.59,9.59,0,0,1,4.06-.14,10.19,10.19,0,0,1,6.67,4.57,11.1,11.1,0,0,1,1.55,3.95,14.49,14.49,0,0,1,.14,4.31,13.83,13.83,0,0,1-3.45,7.65,12.33,12.33,0,0,1-7,3.9,14.8,14.8,0,0,1-8-.8,15.88,15.88,0,0,1-6.56-4.85,17,17,0,0,1-3.47-7.63,22.26,22.26,0,0,1,.1-8.57,21.44,21.44,0,0,1,3.31-7.79,20.16,20.16,0,0,1,6-5.73,18.79,18.79,0,0,1,3.67-1.77,19.41,19.41,0,0,1,3.93-.94,23.83,23.83,0,0,1,8.08.25,24.49,24.49,0,0,1,13.85,8.36,25.1,25.1,0,0,1,4.21,7.29A26.15,26.15,0,0,1,236,63.46c.07.35.13.68.18,1.06s.1.71.14,1.07c.09.71.15,1.43.19,2.15a38,38,0,0,1-.54,8.65,47.86,47.86,0,0,1-2.31,8.37,77.32,77.32,0,0,1-8,15.35,143,143,0,0,1-10.43,13.8c-6.34,7.49-13.17,14.52-20.16,21.35a49.18,49.18,0,0,0,2.57-5.62,52,52,0,0,0,2.4-8.13,48,48,0,0,0,1-8.46,36.31,36.31,0,0,0-.71-8.51,23,23,0,0,0-3.16-7.89,18.43,18.43,0,0,0-6-5.75,17.68,17.68,0,0,0-7.73-2.42,16.93,16.93,0,0,0-7.93,1.4A15.27,15.27,0,0,0,172,92a15,15,0,0,0-2.86,3.08,15.89,15.89,0,0,0-2.82,8,16.17,16.17,0,0,0,1.65,8.37,12.13,12.13,0,0,0,2.52,3.4,11.41,11.41,0,0,0,3.47,2.26,10.79,10.79,0,0,0,8,.17,10.36,10.36,0,0,0,1.84-.88,9.41,9.41,0,0,0,4-4.76,10.28,10.28,0,0,0,.35-6.33c.28.24,1.58,1.23,2.71.28,1.28-1.06,2.22-4.48,2.22-4.48s-3.34.14-4.62,1.21a2,2,0,0,0-.66,1.94c-.09-.23-.18-.45-.28-.66a3.2,3.2,0,0,0,.18-3.52c-1.19-1.76-4.4-1.74-4.36-1.66s1,3,1.64,4.45a1.92,1.92,0,0,0,2.41.82,9.22,9.22,0,0,1,.47,1.37,2.09,2.09,0,0,0-2.41-1c-1.52.61-3.37,3.57-3.37,3.57s3.23.93,4.75.32a2.19,2.19,0,0,0,1.21-2.13,11,11,0,0,1,.16,1.63,9.94,9.94,0,0,1-.78,4,9.26,9.26,0,0,1-2.27,3.26,8.79,8.79,0,0,1-1.57,1.15,10.8,10.8,0,0,1-1.77.8,10.57,10.57,0,0,1-3.78.55,10.15,10.15,0,0,1-3.71-.86,10.77,10.77,0,0,1-3.21-2.15,11.71,11.71,0,0,1-2.3-3.2,15.2,15.2,0,0,1,1.19-15.35,13.76,13.76,0,0,1,2.67-2.87,14.37,14.37,0,0,1,3.33-2,16.06,16.06,0,0,1,14.79,1,17.37,17.37,0,0,1,5.6,5.46,21.17,21.17,0,0,1,2.9,7.51,34.52,34.52,0,0,1,.58,8.19,47.85,47.85,0,0,1-3.57,16,45.64,45.64,0,0,1-3.71,7.23,40.38,40.38,0,0,1-4.35,5.69c-7.1,6.74-14.34,13.32-21.59,19.9-.57.4-1.14.8-1.7,1.21a45.87,45.87,0,0,0-53.56,0l-1.66-1.17c-7.24-6.58-14.48-13.16-21.59-19.9a40.38,40.38,0,0,1-4.35-5.69A46.49,46.49,0,0,1,80,129a47.83,47.83,0,0,1-3.56-16,34.51,34.51,0,0,1,.57-8.19,21.19,21.19,0,0,1,2.91-7.51,17.27,17.27,0,0,1,5.6-5.46,16.05,16.05,0,0,1,14.79-1,14.51,14.51,0,0,1,3.32,2,13.8,13.8,0,0,1,2.68,2.87A15.23,15.23,0,0,1,107.49,111a11.3,11.3,0,0,1-2.3,3.2,10.6,10.6,0,0,1-3.2,2.15,10.2,10.2,0,0,1-3.71.86,10.57,10.57,0,0,1-3.78-.55,10.8,10.8,0,0,1-1.77-.8,8.94,8.94,0,0,1-3.85-4.41,10,10,0,0,1-.61-5.63A2.17,2.17,0,0,0,89.48,108c1.52.61,4.75-.32,4.75-.32s-1.85-3-3.38-3.57a2.1,2.1,0,0,0-2.41,1,10.53,10.53,0,0,1,.47-1.37,1.93,1.93,0,0,0,2.42-.82c.67-1.42,1.53-4.45,1.64-4.45s-3.18-.1-4.36,1.66a3.16,3.16,0,0,0,.18,3.52c-.1.21-.2.43-.29.66a2,2,0,0,0-.65-1.94c-1.28-1.07-4.63-1.21-4.63-1.21s.94,3.42,2.22,4.48,2.43,0,2.72-.28a9.72,9.72,0,0,0-.33,2.15,10.27,10.27,0,0,0,.68,4.18,9.85,9.85,0,0,0,2.31,3.5,9.24,9.24,0,0,0,1.65,1.26,10.36,10.36,0,0,0,1.84.88,10.79,10.79,0,0,0,8-.17,11.49,11.49,0,0,0,3.46-2.26,12.36,12.36,0,0,0,2.53-3.4,16.2,16.2,0,0,0-1.17-16.4A14.75,14.75,0,0,0,104.22,92a15,15,0,0,0-3.54-2.11,17,17,0,0,0-7.94-1.4A17.64,17.64,0,0,0,85,90.9a18.34,18.34,0,0,0-6,5.75,22.79,22.79,0,0,0-3.16,7.89,36.31,36.31,0,0,0-.72,8.51,49,49,0,0,0,1,8.46,52,52,0,0,0,2.4,8.13,51,51,0,0,0,2.58,5.62c-7-6.83-13.83-13.86-20.16-21.35a144.77,144.77,0,0,1-10.44-13.8,78.39,78.39,0,0,1-8-15.35,48.72,48.72,0,0,1-2.3-8.37,36.89,36.89,0,0,1-.54-8.65c0-.72.1-1.44.18-2.15,0-.36.09-.73.14-1.07s.12-.71.18-1.06a25.14,25.14,0,0,1,1.15-4.12,24.88,24.88,0,0,1,4.21-7.29,24.43,24.43,0,0,1,13.84-8.36,23.85,23.85,0,0,1,8.08-.25,19.66,19.66,0,0,1,3.94.94,19.36,19.36,0,0,1,3.67,1.77A20.13,20.13,0,0,1,81,51.88a21.63,21.63,0,0,1,3.32,7.79,22.26,22.26,0,0,1,.1,8.57A17.11,17.11,0,0,1,81,75.87a15.88,15.88,0,0,1-6.56,4.85,14.81,14.81,0,0,1-8,.8,12.33,12.33,0,0,1-7-3.9A13.92,13.92,0,0,1,55.93,70a14.17,14.17,0,0,1,.15-4.31,10.92,10.92,0,0,1,1.55-3.95,10.17,10.17,0,0,1,6.66-4.57,9.63,9.63,0,0,1,4.07.14,8,8,0,0,1,3.55,2A8.73,8.73,0,0,1,74.12,63a7.44,7.44,0,0,1,.22.81,2.44,2.44,0,0,0-2.52-1.59c-1.84.36-4.5,3.31-4.5,3.31s3.48,1.75,5.31,1.38c1.43-.28,1.75-1.79,1.82-2.46a8.75,8.75,0,0,1,.06,2.17,2.4,2.4,0,0,0-2.64,1.68c-.43,1.88-.65,5.73-.78,5.76s3.78-.82,4.73-3.26a3.81,3.81,0,0,0-1.1-4.08c0-.28,0-.57.06-.86a1.94,1.94,0,0,0,1.15,1.27c1.67.67,5.21-.34,5.21-.34s-2-3.25-3.7-3.92c-1.51-.6-2.58,1-2.76,1.27a10.58,10.58,0,0,0-.28-1.24A9.11,9.11,0,0,0,72.18,59a8.34,8.34,0,0,0-3.71-2.22,9.89,9.89,0,0,0-4.26-.23,10.7,10.7,0,0,0-7.14,4.71,11.79,11.79,0,0,0-1.73,4.2,15.22,15.22,0,0,0-.21,4.57,14.81,14.81,0,0,0,3.59,8.22,13.77,13.77,0,0,0,3.43,2.81,13.32,13.32,0,0,0,4.1,1.5,15.76,15.76,0,0,0,8.54-.73,16.87,16.87,0,0,0,7.12-5.13,18.42,18.42,0,0,0,3.83-8.23,23.92,23.92,0,0,0,0-9.16A23.19,23.19,0,0,0,82.21,51a21.62,21.62,0,0,0-6.35-6.22,20.63,20.63,0,0,0-3.94-2,21.66,21.66,0,0,0-4.23-1.06,24.91,24.91,0,0,0-8.61.21,26.2,26.2,0,0,0-14.85,8.87,26.76,26.76,0,0,0-4.56,7.83,27.91,27.91,0,0,0-1.26,4.42c-.07.38-.14.78-.19,1.14s-.12.76-.16,1.14q-.14,1.14-.21,2.28a39.27,39.27,0,0,0,.53,9.13,49.14,49.14,0,0,0,2.37,8.75,67.63,67.63,0,0,0,3.66,8.19c1.38,2.63,2.9,5.17,4.51,7.63,1.74,2.66,3.59,5.23,5.51,7.73a30.29,30.29,0,0,0-3.82-2.11,19,19,0,0,0-3.51-1.22,10.46,10.46,0,0,0-3.7-.24,7,7,0,0,0-3.45,1.4,8.52,8.52,0,0,0-2.35,3l.18.11a8.09,8.09,0,0,1,2.41-2.71,6.49,6.49,0,0,1,3.27-1.1,10.13,10.13,0,0,1,3.44.46A18.5,18.5,0,0,1,50.15,108,33.11,33.11,0,0,1,56,112.12a46.68,46.68,0,0,1,4,3.92c3.57,4.21,7.3,8.25,11.1,12.2q6,6.25,12.29,12.22,7.64,7.31,15.43,14.38c-4-2.43-8.1-4.73-12.29-6.82-1.08-.54-2.16-1.06-3.26-1.57a30.54,30.54,0,0,0-3.44-1.33,32.13,32.13,0,0,0-7.18-1.4c-.72-.05-1.45-.08-2.17-.09h-.12a32,32,0,0,0-3.53.16c-.75,0-1.49,0-2.23,0a51.94,51.94,0,0,1-5.86-.38c-1-.13-1.93-.29-2.87-.51a16,16,0,0,1-2.74-.9,8.55,8.55,0,0,1-1.23-.67,5.67,5.67,0,0,1-1-.92,6,6,0,0,1-1.32-2.49,6.46,6.46,0,0,1-.07-2.9,6.5,6.5,0,0,1,.8-2,6.13,6.13,0,0,1,.42-.58A4.53,4.53,0,0,1,53.13,131a4.34,4.34,0,0,1,2.75.24,4.3,4.3,0,0,1,1.19.78,3.9,3.9,0,0,1,.86,1.18,4.28,4.28,0,0,1,.23,3,3.86,3.86,0,0,1-.68,1.34,3,3,0,0,1-1.15.89,2.91,2.91,0,0,1-2.81-.26l0,0a3,3,0,0,0,2.9.39,3.12,3.12,0,0,0,1.27-.9,4.25,4.25,0,0,0,.77-1.4A4.64,4.64,0,0,0,58.3,133a4.33,4.33,0,0,0-.91-1.36,4.66,4.66,0,0,0-1.3-.92,4.92,4.92,0,0,0-3.09-.41,5.17,5.17,0,0,0-2.79,1.57,7.32,7.32,0,0,0-.11,9.37,7,7,0,0,0,1.21,1.16,9.52,9.52,0,0,0,1.39.84,16.16,16.16,0,0,0,2.92,1.1c1,.28,2,.49,3,.67l1.4.22c-.55.17-1.1.36-1.63.56A32.38,32.38,0,0,0,41.62,160.1c-.16.28-.31.56-.46.84l-.23.43-.21.42c-.29.59-.55,1.17-.8,1.77a29.32,29.32,0,0,0-1.24,3.67,29.68,29.68,0,0,0,.06,15.4,28.79,28.79,0,0,0,3,7.09,27.13,27.13,0,0,0,4.69,5.94A25.61,25.61,0,0,0,52.46,200a19.81,19.81,0,0,0,14.33,1.42,20.68,20.68,0,0,0,6.62-3.23,21.51,21.51,0,0,0,5.19-5.44c.35-.53.68-1.07,1-1.63l.22-.42.22-.43c.15-.29.28-.58.41-.87a18.9,18.9,0,0,0,1.14-11.45,18.49,18.49,0,0,0-3.09-7A17,17,0,0,0,72.92,166a12.69,12.69,0,0,0-7.09-1.55A13.11,13.11,0,0,0,59,167,14,14,0,0,0,54.5,173a12.09,12.09,0,0,0-.36,7.61,11.34,11.34,0,0,0,4.19,6.12,9.68,9.68,0,0,0,1.58.94,8,8,0,0,0,5.32.55,8.37,8.37,0,0,0,3.24-1.61,8.77,8.77,0,0,0,1.19-1.17c0,.29.12,1.6,1.22,1.83s3.57-.89,3.57-.89-1.77-2-3-2.26a1.28,1.28,0,0,0-1,.2c.07-.12.14-.23.2-.36a2.84,2.84,0,0,0,2.5-2.26c.4-2.12-1.82-4.61-1.84-4.52s-1.42,2.83-1.93,4.32a2.15,2.15,0,0,0,1.06,2.41,8.22,8.22,0,0,1-.7,1,1.75,1.75,0,0,0-.38-1.88c-1-.83-3.51-1-3.51-1s.67,2.62,1.63,3.45a1.41,1.41,0,0,0,1.67.09,7.68,7.68,0,0,1-.85.77,8,8,0,0,1-3.16,1.5,7.73,7.73,0,0,1-3.45,0,8.93,8.93,0,0,1-1.64-.59,10.66,10.66,0,0,1-1.5-.93,10.85,10.85,0,0,1-3.91-5.91,11.42,11.42,0,0,1,.43-7.19,13.19,13.19,0,0,1,4.36-5.57,12.29,12.29,0,0,1,6.43-2.34,11.91,11.91,0,0,1,6.62,1.53,16,16,0,0,1,5.19,4.72,17.43,17.43,0,0,1,2.83,6.6,18,18,0,0,1,0,7.24,17.65,17.65,0,0,1-1.12,3.43q-.18.42-.39.81l-.21.4-.21.4c-.3.52-.62,1-1,1.53A20.58,20.58,0,0,1,72.69,197a19.25,19.25,0,0,1-6.24,3,18.47,18.47,0,0,1-13.34-1.45,24.64,24.64,0,0,1-5.67-4.11,26.62,26.62,0,0,1-7.12-12.29,27.83,27.83,0,0,1,0-14.41,25.57,25.57,0,0,1,1.18-3.42c.23-.55.48-1.1.75-1.63l.21-.41.21-.39c.14-.27.29-.53.44-.79A30.62,30.62,0,0,1,59,147.7a31.63,31.63,0,0,1,9.39-1.94c.76,0,1.51,0,2.27,0h0c.64,0,1.28.05,1.91.1a29.93,29.93,0,0,1,6.75,1.35,27.52,27.52,0,0,1,3.22,1.26c1.07.49,2.14,1,3.2,1.54,4.25,2.13,8.41,4.48,12.49,7q3.06,1.88,6.06,3.86c1.75,1.15,3.49,2.33,5.19,3.55a53.4,53.4,0,0,0,0,82.85c-1.7,1.21-3.44,2.39-5.19,3.55q-3,2-6.06,3.85c-4.08,2.49-8.24,4.84-12.49,7-1.06.53-2.13,1.05-3.2,1.55a31.57,31.57,0,0,1-3.22,1.26,29.91,29.91,0,0,1-6.75,1.34c-.63.06-1.27.09-1.91.1h0c-.76,0-1.51,0-2.27,0a31.64,31.64,0,0,1-9.39-2,30.5,30.5,0,0,1-15.86-13.4c-.15-.26-.3-.52-.44-.78l-.21-.4-.21-.4c-.27-.54-.52-1.08-.75-1.64a25.57,25.57,0,0,1-1.18-3.42,27.83,27.83,0,0,1,0-14.41,26.67,26.67,0,0,1,7.12-12.29A24.64,24.64,0,0,1,53.11,213a18.61,18.61,0,0,1,13.34-1.45,19.27,19.27,0,0,1,6.24,3,20.24,20.24,0,0,1,4.92,5.06c.33.49.65,1,1,1.52l.21.4.21.4c.14.26.27.54.39.81a17.51,17.51,0,0,1,1.15,10.67,17.43,17.43,0,0,1-2.83,6.6,16.06,16.06,0,0,1-5.19,4.73,11.9,11.9,0,0,1-6.62,1.52,12.29,12.29,0,0,1-6.43-2.34,13.19,13.19,0,0,1-4.36-5.57,11.39,11.39,0,0,1-.43-7.18,10.84,10.84,0,0,1,3.91-5.92,9.74,9.74,0,0,1,1.5-.92,7.7,7.7,0,0,1,5.09-.61,8,8,0,0,1,3.16,1.5,10.36,10.36,0,0,1,.85.77,1.41,1.41,0,0,0-1.67.09c-1,.83-1.63,3.45-1.63,3.45s2.54-.16,3.51-1a1.75,1.75,0,0,0,.38-1.88,9,9,0,0,1,.7,1,2.15,2.15,0,0,0-1.06,2.41c.51,1.5,2,4.24,1.93,4.33s2.24-2.4,1.84-4.53a2.86,2.86,0,0,0-2.5-2.26c-.06-.12-.13-.24-.2-.36a1.24,1.24,0,0,0,1,.2c1.23-.26,3-2.26,3-2.26s-2.34-1.14-3.57-.89-1.21,1.54-1.22,1.83A8.77,8.77,0,0,0,68.47,225a8.21,8.21,0,0,0-3.24-1.6,8,8,0,0,0-3.6-.05,8.13,8.13,0,0,0-1.72.59,9.68,9.68,0,0,0-1.58.94A11.36,11.36,0,0,0,54.14,231a12.06,12.06,0,0,0,.36,7.6,13.91,13.91,0,0,0,4.53,6,13.11,13.11,0,0,0,6.8,2.58,12.76,12.76,0,0,0,7.09-1.54,17.08,17.08,0,0,0,5.57-4.94,18.56,18.56,0,0,0,3.09-7,19.26,19.26,0,0,0,0-7.75,19,19,0,0,0-1.17-3.7c-.13-.3-.26-.59-.41-.88l-.22-.43-.22-.42c-.31-.56-.64-1.1-1-1.63a21.85,21.85,0,0,0-5.19-5.44,20.45,20.45,0,0,0-6.62-3.22,19.87,19.87,0,0,0-7.28-.64,20.27,20.27,0,0,0-7,2.05,25.9,25.9,0,0,0-6.05,4.32,27.13,27.13,0,0,0-4.69,5.94,28.79,28.79,0,0,0-3,7.09,29.68,29.68,0,0,0-.06,15.4A28.93,28.93,0,0,0,39.92,248c.25.59.51,1.18.8,1.76l.21.42.23.43c.15.28.3.56.46.84a32.38,32.38,0,0,0,16.76,14.32c.53.2,1.08.39,1.63.57-.47.06-.94.13-1.4.21-1,.18-2,.39-3,.67a17,17,0,0,0-2.92,1.1,9.52,9.52,0,0,0-1.39.84,7,7,0,0,0-1.21,1.16,7.33,7.33,0,0,0,.11,9.38A5.22,5.22,0,0,0,53,281.25a4.85,4.85,0,0,0,3.09-.4,4.92,4.92,0,0,0,1.3-.93,4.22,4.22,0,0,0,.91-1.36,4.61,4.61,0,0,0,.13-3.23,4.3,4.3,0,0,0-.77-1.41,3.32,3.32,0,0,0-1.27-.9,3,3,0,0,0-2.9.39l0,0a2.91,2.91,0,0,1,2.81-.27,3,3,0,0,1,1.15.89,4,4,0,0,1,.68,1.34,4.27,4.27,0,0,1-.23,2.95,3.9,3.9,0,0,1-.86,1.18,4.09,4.09,0,0,1-1.19.78,4.34,4.34,0,0,1-2.75.24,4.47,4.47,0,0,1-2.36-1.45c-.15-.18-.29-.38-.42-.57a5,5,0,0,1-.34-.65,5.6,5.6,0,0,1-.46-1.38,6.45,6.45,0,0,1,.07-2.9,6,6,0,0,1,1.32-2.5,5.61,5.61,0,0,1,1-.91,8.6,8.6,0,0,1,1.23-.68,15.13,15.13,0,0,1,2.74-.89c.94-.22,1.9-.39,2.87-.52a51.94,51.94,0,0,1,5.86-.38c.74,0,1.48,0,2.23,0a34.61,34.61,0,0,0,3.53.16h.12c.72,0,1.45,0,2.17-.1a31.57,31.57,0,0,0,7.18-1.4,28.74,28.74,0,0,0,3.44-1.33c1.1-.5,2.18-1,3.26-1.56,4.19-2.1,8.28-4.4,12.29-6.83-5.19,4.74-10.34,9.52-15.43,14.39q-6.25,6-12.29,12.21c-3.8,3.95-7.53,8-11.1,12.2a48.33,48.33,0,0,1-4,3.93,33.57,33.57,0,0,1-5.89,4.13,17.78,17.78,0,0,1-3.25,1.37,9.89,9.89,0,0,1-3.44.46,6.39,6.39,0,0,1-3.27-1.1,8.05,8.05,0,0,1-2.41-2.7l-.18.11a8.57,8.57,0,0,0,2.35,3,6.9,6.9,0,0,0,3.45,1.41,10.46,10.46,0,0,0,3.7-.25,19,19,0,0,0,3.51-1.22,30.29,30.29,0,0,0,3.82-2.11c-1.92,2.51-3.77,5.07-5.51,7.73-1.61,2.46-3.13,5-4.51,7.64A67.49,67.49,0,0,0,40.75,326a49.14,49.14,0,0,0-2.37,8.75,39.27,39.27,0,0,0-.53,9.13c0,.76.12,1.53.21,2.28,0,.39.1.76.16,1.15s.12.76.19,1.13a28.33,28.33,0,0,0,1.26,4.43,26.71,26.71,0,0,0,4.56,7.82,26.22,26.22,0,0,0,14.85,8.88,24.91,24.91,0,0,0,8.61.2,21,21,0,0,0,4.23-1.06,20.59,20.59,0,0,0,3.94-1.94,21.66,21.66,0,0,0,6.35-6.23,23.12,23.12,0,0,0,3.49-8.39,23.92,23.92,0,0,0,0-9.16,18.47,18.47,0,0,0-3.83-8.23,17,17,0,0,0-7.12-5.13,16,16,0,0,0-8.54-.73,13.09,13.09,0,0,0-4.1,1.51,13.73,13.73,0,0,0-3.43,2.8,14.81,14.81,0,0,0-3.59,8.22,15.21,15.21,0,0,0,.21,4.57,11.79,11.79,0,0,0,1.73,4.2A10.7,10.7,0,0,0,64.21,355a10,10,0,0,0,4.26-.22,8.53,8.53,0,0,0,3.71-2.22,9.2,9.2,0,0,0,2.22-3.84,10.42,10.42,0,0,0,.28-1.23c.18.29,1.25,1.87,2.76,1.26,1.67-.67,3.7-3.92,3.7-3.92s-3.54-1-5.21-.34a2,2,0,0,0-1.15,1.27c0-.29,0-.58-.06-.86a3.8,3.8,0,0,0,1.1-4.08c-.95-2.43-4.76-3.36-4.73-3.26s.35,3.88.78,5.76A2.39,2.39,0,0,0,74.51,345a8.84,8.84,0,0,1-.06,2.18c-.07-.68-.39-2.19-1.82-2.47-1.83-.36-5.31,1.38-5.31,1.38s2.66,2.95,4.5,3.32a2.45,2.45,0,0,0,2.52-1.6,7.62,7.62,0,0,1-.22.82,8.75,8.75,0,0,1-2.21,3.63,8,8,0,0,1-3.55,2.05,9.63,9.63,0,0,1-4.07.14,10.14,10.14,0,0,1-6.66-4.57,10.94,10.94,0,0,1-1.55-3.94,14.17,14.17,0,0,1-.15-4.31,13.85,13.85,0,0,1,3.46-7.65,12.28,12.28,0,0,1,7-3.9,14.8,14.8,0,0,1,8,.79A16,16,0,0,1,81,335.67a17.11,17.11,0,0,1,3.47,7.63,22.26,22.26,0,0,1-.1,8.57,21.75,21.75,0,0,1-3.32,7.8,20.09,20.09,0,0,1-5.94,5.72,18.77,18.77,0,0,1-3.67,1.77,19.69,19.69,0,0,1-3.94.95,23.59,23.59,0,0,1-8.08-.26,24.43,24.43,0,0,1-13.84-8.36,24.88,24.88,0,0,1-4.21-7.29,25.31,25.31,0,0,1-1.15-4.11c-.06-.36-.12-.69-.18-1.07s-.1-.71-.14-1.06c-.08-.72-.15-1.44-.18-2.16a36.8,36.8,0,0,1,.54-8.64,48.22,48.22,0,0,1,2.3-8.37,78.19,78.19,0,0,1,8-15.36A144.77,144.77,0,0,1,61,297.63c6.33-7.49,13.16-14.51,20.16-21.35a52.79,52.79,0,0,0-2.58,5.62,51.77,51.77,0,0,0-2.4,8.14,48.76,48.76,0,0,0-1,8.45,36.27,36.27,0,0,0,.72,8.51A22.79,22.79,0,0,0,79,314.89a18.34,18.34,0,0,0,6,5.75,17.51,17.51,0,0,0,7.72,2.42,17.09,17.09,0,0,0,7.94-1.39,15.39,15.39,0,0,0,3.54-2.12,14.7,14.7,0,0,0,2.87-3.07,16.22,16.22,0,0,0,1.17-16.41,12.36,12.36,0,0,0-2.53-3.4,11.68,11.68,0,0,0-3.46-2.26,10.84,10.84,0,0,0-8-.17,11.11,11.11,0,0,0-1.84.88,8.84,8.84,0,0,0-1.65,1.27,9.82,9.82,0,0,0-2.31,3.49,10.34,10.34,0,0,0-.68,4.19,9.73,9.73,0,0,0,.33,2.14c-.29-.24-1.58-1.23-2.72-.28s-2.22,4.48-2.22,4.48,3.35-.14,4.63-1.21a2,2,0,0,0,.65-1.94c.09.23.19.45.29.66a3.16,3.16,0,0,0-.18,3.52c1.18,1.76,4.4,1.74,4.36,1.67s-1-3-1.64-4.46a1.92,1.92,0,0,0-2.42-.81,11.21,11.21,0,0,1-.47-1.38,2.1,2.1,0,0,0,2.41,1c1.53-.61,3.38-3.58,3.38-3.58s-3.23-.92-4.75-.31a2.16,2.16,0,0,0-1.21,2.13,10,10,0,0,1-.16-1.63,9.78,9.78,0,0,1,.77-4,8.94,8.94,0,0,1,3.85-4.41,10.75,10.75,0,0,1,1.77-.79,10.36,10.36,0,0,1,3.78-.56,10.54,10.54,0,0,1,6.91,3,11.25,11.25,0,0,1,2.3,3.19,15.25,15.25,0,0,1-1.18,15.36,13.75,13.75,0,0,1-2.68,2.86,14.51,14.51,0,0,1-3.32,2,16.05,16.05,0,0,1-14.79-1,17.27,17.27,0,0,1-5.6-5.46,21.21,21.21,0,0,1-2.91-7.5,34.6,34.6,0,0,1-.57-8.2,47.89,47.89,0,0,1,3.56-16,46,46,0,0,1,3.71-7.22,39.91,39.91,0,0,1,4.35-5.7c7.11-6.74,14.35-13.32,21.59-19.9.56-.39,1.11-.77,1.66-1.17a45.87,45.87,0,0,0,53.56,0c.56.41,1.13.81,1.7,1.21,7.25,6.58,14.49,13.16,21.59,19.9a39.91,39.91,0,0,1,4.35,5.7,45.12,45.12,0,0,1,3.71,7.22,47.9,47.9,0,0,1,3.57,16,34.6,34.6,0,0,1-.58,8.2,21.2,21.2,0,0,1-2.9,7.5,17.37,17.37,0,0,1-5.6,5.46,16.06,16.06,0,0,1-14.79,1,14.37,14.37,0,0,1-3.33-2,13.7,13.7,0,0,1-2.67-2.86,15.22,15.22,0,0,1-1.19-15.36,11.66,11.66,0,0,1,2.3-3.19,10.8,10.8,0,0,1,3.21-2.16,10.57,10.57,0,0,1,3.71-.86,10.36,10.36,0,0,1,3.78.56,10.75,10.75,0,0,1,1.77.79,8.79,8.79,0,0,1,1.57,1.15,9.26,9.26,0,0,1,2.27,3.26,10,10,0,0,1,.78,4,11.25,11.25,0,0,1-.16,1.63,2.16,2.16,0,0,0-1.21-2.13c-1.52-.61-4.75.31-4.75.31s1.85,3,3.37,3.58a2.1,2.1,0,0,0,2.41-1,9.76,9.76,0,0,1-.47,1.38,1.91,1.91,0,0,0-2.41.81c-.68,1.42-1.53,4.45-1.64,4.46s3.17.09,4.36-1.67a3.2,3.2,0,0,0-.18-3.52c.1-.21.19-.43.28-.65a2,2,0,0,0,.66,1.93c1.28,1.07,4.62,1.21,4.62,1.21s-.94-3.41-2.22-4.48c-1.13-.95-2.43,0-2.71.28a10.27,10.27,0,0,0-.35-6.33,10,10,0,0,0-2.31-3.49,9.55,9.55,0,0,0-1.65-1.27,11.11,11.11,0,0,0-1.84-.88,10.84,10.84,0,0,0-8,.17,11.6,11.6,0,0,0-3.47,2.26,12.13,12.13,0,0,0-2.52,3.4,16.19,16.19,0,0,0-1.65,8.37,15.93,15.93,0,0,0,2.82,8,14.92,14.92,0,0,0,2.86,3.07,15.67,15.67,0,0,0,3.55,2.12,17,17,0,0,0,7.93,1.39,17.55,17.55,0,0,0,7.73-2.42,18.43,18.43,0,0,0,6-5.75,23,23,0,0,0,3.16-7.89,36.26,36.26,0,0,0,.71-8.51,47.81,47.81,0,0,0-1-8.45,51.77,51.77,0,0,0-2.4-8.14,50.81,50.81,0,0,0-2.57-5.62c7,6.84,13.82,13.86,20.16,21.35a143,143,0,0,1,10.43,13.8,77.13,77.13,0,0,1,8,15.36,47.38,47.38,0,0,1,2.31,8.37,37.9,37.9,0,0,1,.54,8.64c0,.72-.1,1.44-.19,2.16,0,.35-.09.72-.14,1.06s-.11.71-.18,1.07a26.33,26.33,0,0,1-1.14,4.11,25.1,25.1,0,0,1-4.21,7.29,24.49,24.49,0,0,1-13.85,8.36,23.58,23.58,0,0,1-8.08.26,19.43,19.43,0,0,1-3.93-.95,18.24,18.24,0,0,1-3.67-1.77,20.13,20.13,0,0,1-6-5.72,21.56,21.56,0,0,1-3.31-7.8,22.26,22.26,0,0,1-.1-8.57,17,17,0,0,1,3.47-7.63,16,16,0,0,1,6.56-4.85,14.79,14.79,0,0,1,8-.79,12.28,12.28,0,0,1,7,3.9,13.77,13.77,0,0,1,3.45,7.65,14.49,14.49,0,0,1-.14,4.31,11.12,11.12,0,0,1-1.55,3.94,10.16,10.16,0,0,1-6.67,4.57,9.59,9.59,0,0,1-4.06-.14,8,8,0,0,1-3.56-2.05,9,9,0,0,1-2.21-3.63c-.08-.27-.15-.54-.21-.82a2.46,2.46,0,0,0,2.52,1.6c1.84-.37,4.5-3.32,4.5-3.32s-3.48-1.74-5.32-1.38c-1.42.28-1.74,1.79-1.82,2.47a9.36,9.36,0,0,1-.05-2.18,2.4,2.4,0,0,0,2.64-1.68c.43-1.88.64-5.72.78-5.76s-3.79.83-4.73,3.26a3.78,3.78,0,0,0,1.1,4.08,6.11,6.11,0,0,0-.06.86,2,2,0,0,0-1.16-1.27c-1.66-.67-5.2.34-5.2.34s2,3.25,3.7,3.92c1.51.61,2.58-1,2.76-1.26a8.71,8.71,0,0,0,.27,1.23,9.33,9.33,0,0,0,2.23,3.84,8.53,8.53,0,0,0,3.71,2.22A10,10,0,0,0,212,355a10.72,10.72,0,0,0,7.14-4.71,12,12,0,0,0,1.73-4.2,15.21,15.21,0,0,0,.2-4.57,14.81,14.81,0,0,0-3.59-8.22,13.55,13.55,0,0,0-3.43-2.8,13,13,0,0,0-4.09-1.51,16,16,0,0,0-8.55.73,17,17,0,0,0-7.12,5.13,18.56,18.56,0,0,0-3.82,8.23,23.73,23.73,0,0,0,0,9.16,23.28,23.28,0,0,0,3.48,8.39,21.69,21.69,0,0,0,6.36,6.23,20.3,20.3,0,0,0,3.94,1.94,20.87,20.87,0,0,0,4.22,1.06,25,25,0,0,0,8.62-.2A26.16,26.16,0,0,0,232,360.73a27,27,0,0,0,4.57-7.82,27.25,27.25,0,0,0,1.25-4.43c.07-.37.15-.78.2-1.13s.11-.76.16-1.15c.09-.75.16-1.52.21-2.28a40.4,40.4,0,0,0-.53-9.13,50.89,50.89,0,0,0-2.37-8.75,67.49,67.49,0,0,0-3.66-8.18c-1.38-2.63-2.9-5.18-4.52-7.64-1.74-2.66-3.59-5.22-5.5-7.73a29.61,29.61,0,0,0,3.82,2.11A19.11,19.11,0,0,0,229.12,305.82Zm-24-76.23a13.7,13.7,0,0,0-.32,4.13,11.64,11.64,0,0,1,.15-4.14,9.5,9.5,0,0,1,.55-1.69l.07,0C205.49,228.21,205.34,228.72,205.12,229.59Zm1.39-3.4a7.73,7.73,0,0,1-1.3-.21c-1.09-.23-2.91-.68-2.91-.68s1.84.31,2.94.54a9.11,9.11,0,0,1,1.29.33Zm1.19.91c.86.75,2.25,2,2.25,2s-1.48-1.18-2.33-1.92c-.56-.49-.82-.75-.93-.87l0,0A11.07,11.07,0,0,1,207.7,227.1Zm-2.2-43.45A9.5,9.5,0,0,1,205,182a11.59,11.59,0,0,1-.15-4.13,13.65,13.65,0,0,0,.32,4.12c.22.88.37,1.38.45,1.67Zm-.26,2.06c-1.1.22-2.94.53-2.94.53s1.82-.45,2.91-.68a11.41,11.41,0,0,1,1.3-.21l0,0A9.9,9.9,0,0,1,205.24,185.71Zm1.48-.48,0,0a9.28,9.28,0,0,1,.93-.87c.85-.74,2.33-1.93,2.33-1.93s-1.39,1.3-2.25,2A12.2,12.2,0,0,1,206.72,185.23Zm-5.18-121a12.4,12.4,0,0,1-1.74.8c-1.49.6-4,1.49-4,1.49s2.45-1.09,3.94-1.68a11.15,11.15,0,0,1,1.81-.63Zm.27,3.13a.25.25,0,0,1,0-.08c.1.37.27.93.53,1.77a15.74,15.74,0,0,0,2.28,4.41,13.43,13.43,0,0,1-2.46-4.29,12.68,12.68,0,0,1-.46-1.79Zm2-2.93c1.64.32,4.36,1,4.36,1s-2.75-.43-4.39-.76a12.37,12.37,0,0,1-1.92-.47v0A12.09,12.09,0,0,1,203.77,64.38Zm-16.51,39.07c-.12-.24-.38-.71-.87-1.55a12.47,12.47,0,0,0-2.6-3.07,10.75,10.75,0,0,1,2.73,2.94,8.83,8.83,0,0,1,.8,1.65Zm-1,2.6c-1.35.54-3.65,1.36-3.65,1.36s2.23-1,3.59-1.54a12.7,12.7,0,0,1,1.61-.56s0,0,0,0A11.84,11.84,0,0,1,186.29,106.05Zm1.75-.81a12,12,0,0,1,1.31-1.19c1.15-1,3.11-2.47,3.11-2.47s-1.85,1.66-3,2.61a10.92,10.92,0,0,1-1.41,1.07Zm-98.33-3.47a10.78,10.78,0,0,1,2.72-2.94,12.7,12.7,0,0,0-2.6,3.07c-.49.84-.74,1.31-.87,1.55l0,0A8.83,8.83,0,0,1,89.71,101.77Zm-1.33,3.54a12.13,12.13,0,0,1,1.61.56c1.36.55,3.6,1.54,3.6,1.54s-2.3-.82-3.66-1.36a11.33,11.33,0,0,1-1.55-.71Zm-1.62-1.12c-1.14-1-3-2.61-3-2.61s2,1.51,3.1,2.47a12,12,0,0,1,1.31,1.19v0A10.22,10.22,0,0,1,86.76,104.19ZM74.08,69.12a13.63,13.63,0,0,1-2.46,4.29A16.12,16.12,0,0,0,73.89,69c.27-.84.44-1.4.54-1.77,0,0,0,0,0,.08l.12,0A14.28,14.28,0,0,1,74.08,69.12Zm2.42-4.33c1.49.59,3.93,1.68,3.93,1.68s-2.51-.89-4-1.49a13,13,0,0,1-1.75-.8v0A11,11,0,0,1,76.5,64.79Zm-2.09-.67a12.77,12.77,0,0,1-1.92.47c-1.64.33-4.39.76-4.39.76s2.71-.65,4.35-1a12.24,12.24,0,0,1,2-.29ZM71.1,182a13.45,13.45,0,0,0,.33-4.12,11.85,11.85,0,0,1-.15,4.13,9.24,9.24,0,0,1-.56,1.69l-.06,0C70.74,183.33,70.88,182.83,71.1,182Zm-1.39,3.4a10.72,10.72,0,0,1,1.3.21c1.1.23,2.92.68,2.92.68s-1.85-.31-2.94-.53a9.36,9.36,0,0,1-1.29-.34Zm-1.19-.91c-.85-.74-2.24-2-2.24-2s1.47,1.19,2.33,1.93c.55.48.81.74.93.86l0,0C69.37,185.13,69.08,184.92,68.52,184.44Zm2.2,43.45a9.24,9.24,0,0,1,.56,1.69,11.9,11.9,0,0,1,.15,4.14,13.5,13.5,0,0,0-.33-4.13c-.22-.87-.36-1.38-.44-1.66Zm.27-2c1.09-.23,2.94-.54,2.94-.54s-1.82.45-2.92.68a7.43,7.43,0,0,1-1.3.21v0A8.65,8.65,0,0,1,71,225.84Zm-1.48.48,0,0c-.12.12-.38.38-.93.87-.86.74-2.33,1.92-2.33,1.92s1.39-1.29,2.24-2A12.19,12.19,0,0,1,69.51,226.32Zm5.17,121a14.69,14.69,0,0,1,1.75-.8c1.49-.59,4-1.49,4-1.49s-2.44,1.09-3.93,1.69a11.45,11.45,0,0,1-1.82.62Zm-.26-3.12s0,.05,0,.08c-.1-.37-.27-.94-.54-1.78a16.12,16.12,0,0,0-2.27-4.41,13.6,13.6,0,0,1,2.46,4.3,14.24,14.24,0,0,1,.46,1.78Zm-2,2.92c-1.64-.32-4.35-1-4.35-1s2.75.44,4.39.76a14.41,14.41,0,0,1,1.92.47v0A12.24,12.24,0,0,1,72.45,347.16ZM89,308.09c.13.24.38.71.87,1.55a13.07,13.07,0,0,0,2.6,3.08,10.89,10.89,0,0,1-2.72-3,8.53,8.53,0,0,1-.8-1.65Zm1-2.6c1.36-.54,3.66-1.36,3.66-1.36s-2.24,1-3.6,1.54a12.13,12.13,0,0,1-1.61.56v0A11.33,11.33,0,0,1,89.93,305.49Zm-1.75.81a12.59,12.59,0,0,1-1.31,1.2c-1.14.95-3.1,2.46-3.1,2.46s1.85-1.66,3-2.61a11.36,11.36,0,0,1,1.42-1.07Zm17.17-65.71a51.51,51.51,0,0,1,0-69.64,44.31,44.31,0,0,1,65.42,0,51.54,51.54,0,0,1,0,69.64,44.31,44.31,0,0,1-65.42,0Zm81.17,69.18a10.86,10.86,0,0,1-2.73,3,12.82,12.82,0,0,0,2.6-3.08c.49-.84.75-1.31.87-1.55l.06,0A8.53,8.53,0,0,1,186.52,309.77Zm1.32-3.54a12.7,12.7,0,0,1-1.61-.56c-1.36-.54-3.59-1.54-3.59-1.54s2.3.82,3.65,1.36a11.84,11.84,0,0,1,1.56.71Zm1.62,1.12c1.15.95,3,2.61,3,2.61s-2-1.51-3.11-2.46a12.59,12.59,0,0,1-1.31-1.2v0A10.92,10.92,0,0,1,189.46,307.35Zm12.69,35.08a13.4,13.4,0,0,1,2.46-4.3,15.74,15.74,0,0,0-2.28,4.41c-.26.84-.43,1.41-.53,1.78a.19.19,0,0,1,0-.08l-.12,0A12.64,12.64,0,0,1,202.15,342.43Zm-2.42,4.33c-1.49-.6-3.94-1.69-3.94-1.69s2.52.9,4,1.49a14,14,0,0,1,1.74.8v0A11.59,11.59,0,0,1,199.73,346.76Zm2.09.66a13.92,13.92,0,0,1,1.92-.47c1.64-.32,4.39-.76,4.39-.76s-2.72.65-4.36,1a12.09,12.09,0,0,1-2,.29Z"/><path d="M216.44,271.64c.11-.12.22-.24.34-.35l-.88-.1Z"/><path d="M215.41,273.14a6.12,6.12,0,0,1,.63-1l-1.2-1c-.61,0-1.25-.08-1.91-.1Z"/><path d="M214.74,275c.06-.24.12-.48.2-.71s.12-.34.19-.51L212,271h-1.78Z"/><path d="M214.56,277.26a7.94,7.94,0,0,1,.05-1.54L209.48,271c-.53.06-1.06.09-1.59.12Z"/><path d="M224,284.38l-.2,0a7.32,7.32,0,0,1-1.33.14L237,298l.44-.76,1.34.82Z"/><path d="M207.64,281.49,197.23,270c-.51-.13-1-.27-1.51-.43,4.12,4,7.87,7.7,11.44,11.4Z"/><path d="M231,302a6.87,6.87,0,0,0,1.3.14h.45L202.38,271c-.63-.07-1.25-.15-1.87-.25Z"/><path d="M234.06,301.79l.34-.2a4.52,4.52,0,0,0,.6-.51l-30.09-29.87-1.85-.17Z"/><path d="M221.11,284.47a7.59,7.59,0,0,1-2.24-.7l-.41-.22,17.28,16.57c0-.07.09-.14.13-.22l.48-.82Z"/><path d="M215.68,280.89a8,8,0,0,1-.51-1,7.81,7.81,0,0,1-.48-1.56l-7.51-7.2-1.12,0h-.19l-.33,0Z"/><path d="M225.31,299.4a23,23,0,0,0,2.12,1.28c.43.23.85.43,1.26.61l-28.84-30.7c-.67-.12-1.33-.26-2-.41Z"/><path d="M39.15,220.11l.1-.16-3,.44v1.22l2.2-.33C38.71,220.88,38.93,220.49,39.15,220.11Z"/><path d="M40.58,217.91l-4.28.56v1.21l3.39-.44C40,218.79,40.27,218.34,40.58,217.91Z"/><path d="M38.12,222l-1.82.31v1.22l1.2-.2C37.7,222.89,37.9,222.45,38.12,222Z"/><path d="M43.93,213.94l-7.63.71v1.2l6.38-.59C43.09,214.81,43.5,214.36,43.93,213.94Z"/><path d="M42.13,215.9l-5.83.65v1.21l4.77-.53C41.41,216.78,41.76,216.33,42.13,215.9Z"/><path d="M38,251.25l-.36-.77-1.38.62v1.31l1.9-.86Z"/><path d="M46.05,212l-9.75.72V214l8.25-.61Q45.29,212.65,46.05,212Z"/><path d="M37.5,188.21,36.3,188v1.22l1.82.31C37.9,189.09,37.7,188.65,37.5,188.21Z"/><path d="M36.39,226.2l-.09,0v.23Z"/><path d="M37.17,224.1l-.87.16v1.23l.36-.07Q36.9,224.75,37.17,224.1Z"/><path d="M36.3,247v1l.31-.13C36.5,247.57,36.4,247.27,36.3,247Z"/><path d="M51.17,202.89q-.93-.46-1.83-1l-13-.48v1.2l15.44.57Q51.46,203,51.17,202.89Z"/><path d="M42.68,196.28l-6.38-.59v1.21l7.63.71C43.5,197.18,43.09,196.74,42.68,196.28Z"/><path d="M41.07,194.31l-4.77-.53V195l5.83.65C41.76,195.21,41.41,194.77,41.07,194.31Z"/><path d="M39.15,191.43c-.22-.38-.44-.77-.65-1.16l-2.2-.33v1.21l3,.45Z"/><path d="M39.69,192.31l-3.39-.45v1.22l4.28.56C40.27,193.2,40,192.76,39.69,192.31Z"/><path d="M44.55,198.21l-8.25-.62v1.21l9.75.73Q45.29,198.9,44.55,198.21Z"/><path d="M46.73,200.07l-10.43-.58v1.21l12.27.68C47.94,201,47.33,200.54,46.73,200.07Z"/><path d="M56.79,206.68l-20.49.38v1.2l16.38-.3A22.22,22.22,0,0,1,56.79,206.68Z"/><path d="M51.17,208.65l.57-.27L36.3,209v1.21l13-.49Q50.24,209.13,51.17,208.65Z"/><path d="M48.57,210.16l-12.27.69v1.2l10.43-.58C47.33,211,47.94,210.57,48.57,210.16Z"/><path d="M39,253.11c-.15-.24-.3-.52-.47-.84l-2.27,1.08v1.31l2.85-1.35A1.28,1.28,0,0,1,39,253.11Z"/><path d="M52.68,203.58l-16.38-.3v1.2l20.49.38A22.22,22.22,0,0,1,52.68,203.58Z"/><path d="M37.15,249.28c-.09-.21-.17-.43-.25-.64l-.6.25v1.3l1.05-.45C37.28,249.59,37.22,249.44,37.15,249.28Z"/><path d="M36.56,305.71l-.26.26v1.64l1.06-1.05A10.83,10.83,0,0,1,36.56,305.71Z"/><path d="M50.1,283.56,36.3,295.89v1.57l15-13.37A8.75,8.75,0,0,1,50.1,283.56Z"/><path d="M40.62,308.65l-4.32,4.6V315L41.85,309A8.79,8.79,0,0,1,40.62,308.65Z"/><path d="M38.38,307.42l-2.08,2.13v1.67l3.07-3.16A9.3,9.3,0,0,1,38.38,307.42Z"/><path d="M48.4,282.29,36.3,292.72v1.55l13-11.22A8.14,8.14,0,0,1,48.4,282.29Z"/><path d="M47.09,280.68l-10.79,9v1.53l11.48-9.54A10.42,10.42,0,0,1,47.09,280.68Z"/><path d="M37.93,324.87c.37-1,.76-2,1.19-3l-2.82,3.34V327l1.51-1.79Z"/><path d="M36.86,354.11c-.09-.23-.17-.47-.25-.7l-.31.44v2l.8-1.17Z"/><path d="M36.54,329.18l-.24.29v.59Z"/><path d="M41.76,316.29c.71-1.35,1.46-2.69,2.27-4.05l-7.73,8.82v1.77L41.39,317Z"/><path d="M44.51,309.36c-.39,0-.77,0-1.14-.06l-7.07,7.79v1.73l8.59-9.47Z"/><path d="M46.13,278.77l-9.83,7.88v1.51l10.32-8.28A11,11,0,0,1,46.13,278.77Z"/><path d="M43.09,258.85l-6.79,3.84v1.36l7.6-4.3Z"/><path d="M44.45,260.33l-8.15,4.8v1.38l9-5.32C45,260.91,44.73,260.62,44.45,260.33Z"/><path d="M39.56,254l-3.26,1.61V257L40.2,255Z"/><path d="M45.56,276.58l-9.26,7.15v1.49l9.53-7.37A11,11,0,0,1,45.56,276.58Z"/><path d="M45.89,261.73l-9.59,5.89V269l10.52-6.46C46.5,262.28,46.19,262,45.89,261.73Z"/><path d="M40.65,255.68l-4.35,2.26v1.34l5-2.62C41.1,256.34,40.87,256,40.65,255.68Z"/><path d="M41.82,257.3l-5.52,3v1.36l6.27-3.41Z"/><path d="M45.69,272.62a10.8,10.8,0,0,1,.48-1.59l-9.87,7.09v1.45l9.34-6.71C45.66,272.78,45.67,272.7,45.69,272.62Z"/><path d="M45.47,274.05l-9.17,6.84v1.47l9.15-6.82A12.38,12.38,0,0,1,45.47,274.05Z"/><path d="M47.82,268.19a9.71,9.71,0,0,1,1.77-1.68,12,12,0,0,1,1.4-.89l-.28-.18-14.41,10v1.44l10.61-7.33A9.36,9.36,0,0,1,47.82,268.19Z"/><path d="M49,264.29,36.3,272.76v1.41L50.06,265Z"/><path d="M47.42,263.05,36.3,270.16v1.41l12.1-7.74C48.07,263.57,47.74,263.32,47.42,263.05Z"/><path d="M43.94,46.55c.28-.28.56-.55.85-.81l-4.16-7.09H39.3Z"/><path d="M36.3,40.06,41.73,49a3.47,3.47,0,0,1,.25-.29c.17-.22.35-.42.54-.63l-5.73-9.39H36.3Z"/><path d="M38,356.81l-1.73,2.63v2.09L38.64,358C38.43,357.6,38.22,357.21,38,356.81Z"/><path d="M40.46,50.64,36.3,44.09v2.15l3.45,5.44C40,51.33,40.21,51,40.46,50.64Z"/><path d="M38.64,53.56,36.3,50v2.1L38,54.73C38.22,54.34,38.43,54,38.64,53.56Z"/><path d="M48.92,42.61c.33-.21.65-.4,1-.59l-1.83-3.37H46.77Z"/><path d="M46.34,44.43c.3-.24.61-.47.92-.7L44.4,38.65H43.08Z"/><path d="M44.51,102.19h.38L36.3,92.73v1.73l7.07,7.79A10.6,10.6,0,0,1,44.51,102.19Z"/><path d="M41.76,95.25c-.12-.24-.25-.48-.37-.73l-5.09-5.8v1.76L44,99.3C43.22,98,42.47,96.6,41.76,95.25Z"/><path d="M36.86,57.44l.24-.63-.8-1.17v2l.31.45C36.69,57.9,36.77,57.67,36.86,57.44Z"/><path d="M41.85,102.5,36.3,96.59v1.7l4.32,4.6A8.79,8.79,0,0,1,41.85,102.5Z"/><path d="M37.93,86.67l-.12-.33L36.3,84.56v1.8l2.82,3.33C38.69,88.68,38.3,87.68,37.93,86.67Z"/><path d="M36.3,81.48v.59l.24.29Z"/><path d="M51.67,41.09l1-.49-1-2H50.4Z"/><path d="M225.83,38.65h-1.29l-1,2,1,.49Z"/><path d="M226.32,42c.33.19.66.38,1,.59l2.14-4h-1.3Z"/><path d="M229,43.73l.93.7,3.26-5.78h-1.32Z"/><path d="M231.43,45.74c.29.26.58.53.86.81l4.64-7.9h-1.34Z"/><path d="M233.71,48l.54.63.24.29,5.33-8.72V38.65h-.38Z"/><path d="M57.6,39q.45-.12.93-.21l.22,0,0-.08H57.44Z"/><path d="M54.56,39.87l1.1-.37-.43-.85H54Z"/><path d="M222.27,38.65H221l-.42.85,1.1.37Z"/><path d="M68.79,38.65h0Z"/><path d="M207.44,38.65Z"/><path d="M218.63,39l.16-.33h-1.27l0,.08.22,0Q218.17,38.86,218.63,39Z"/><path d="M48.4,147.72,36.3,140v1.4l11.12,7.11Z"/><path d="M46.82,149,36.3,142.53v1.39l9.59,5.89C46.19,149.54,46.5,149.26,46.82,149Z"/><path d="M41.34,154.88l-5-2.61v1.34l4.35,2.25C40.87,155.53,41.1,155.2,41.34,154.88Z"/><path d="M42.57,153.3l-6.27-3.4v1.35l5.52,3Z"/><path d="M43.9,151.79l-7.6-4.3v1.36l6.79,3.84Z"/><path d="M45.32,150.35l-9-5.32v1.38l8.15,4.81C44.73,150.92,45,150.64,45.32,150.35Z"/><path d="M40.2,156.53l-3.9-1.94v1.33l3.26,1.62C39.77,157.2,40,156.86,40.2,156.53Z"/><path d="M36.61,163.67l-.31-.13v1C36.4,164.27,36.5,164,36.61,163.67Z"/><path d="M36.3,185.09v.24h.09Z"/><path d="M38,160.29l.16-.3-1.9-.86v1.31l1.38.62Z"/><path d="M37.15,162.26c.07-.16.13-.31.2-.46l-1.05-.45v1.3l.6.26C37,162.69,37.06,162.47,37.15,162.26Z"/><path d="M39,158.43a2,2,0,0,1,.11-.2l-2.85-1.35v1.32l2.27,1.07C38.74,159,38.89,158.68,39,158.43Z"/><path d="M36.66,186.13l-.36-.07v1.22l.87.16C37,187,36.82,186.57,36.66,186.13Z"/><path d="M46.62,131.66,36.3,123.39v1.5l9.83,7.88A11,11,0,0,1,46.62,131.66Z"/><path d="M47.78,129.92,36.3,120.37v1.53l10.79,9A9.2,9.2,0,0,1,47.78,129.92Z"/><path d="M49.31,128.49l-13-11.22v1.55l12.1,10.43A8.14,8.14,0,0,1,49.31,128.49Z"/><path d="M37.36,105l-1.06-1v1.64l.26.26C36.82,105.53,37.08,105.25,37.36,105Z"/><path d="M51.27,127.45l-15-13.36v1.57L50.1,128A8.82,8.82,0,0,1,51.27,127.45Z"/><path d="M39.37,103.48l-3.07-3.16V102l2.08,2.14A8,8,0,0,1,39.37,103.48Z"/><path d="M45.83,133.69l-9.53-7.37v1.49L45.56,135A11.2,11.2,0,0,1,45.83,133.69Z"/><path d="M51,145.92a11.93,11.93,0,0,1-1.4-.88,9.77,9.77,0,0,1-1.77-1.69,9.88,9.88,0,0,1-.91-1.31L36.3,134.7v1.44l14.41,10Z"/><path d="M50.06,146.52,36.3,137.37v1.42L49,147.25Z"/><path d="M45.45,136l-9.15-6.82v1.47l9.17,6.84A12.35,12.35,0,0,1,45.45,136Z"/><path d="M45.69,138.92c0-.08,0-.16,0-.24L36.3,132v1.45l9.87,7.09A10.93,10.93,0,0,1,45.69,138.92Z"/><path d="M238.18,251.25l-.15.3,1.79.81v-1.31l-1.27-.57C238.43,250.74,238.31,251,238.18,251.25Z"/><path d="M237.07,191.43l-.1.17,2.85-.43V190l-2.1.32C237.51,190.66,237.3,191.05,237.07,191.43Z"/><path d="M238.11,189.53l1.71-.29V188l-1.09.19C238.53,188.65,238.32,189.09,238.11,189.53Z"/><path d="M239.06,187.44l.76-.14v-1.22l-.25,0C239.41,186.57,239.24,187,239.06,187.44Z"/><path d="M234.4,154.24l5.42-2.93V150l-6.17,3.34C233.91,153.61,234.16,153.93,234.4,154.24Z"/><path d="M235.65,193.64l4.17-.55v-1.21l-3.28.43C236.25,192.76,236,193.2,235.65,193.64Z"/><path d="M234.1,195.64l5.72-.64v-1.21l-4.67.52C234.81,194.77,234.46,195.21,234.1,195.64Z"/><path d="M232.29,197.61l7.53-.7V195.7l-6.28.58C233.14,196.74,232.72,197.18,232.29,197.61Z"/><path d="M239.07,162.26c.09.21.18.43.26.65l.49-.21v-1.3l-.94.4C238.94,162,239,162.1,239.07,162.26Z"/><path d="M236.67,157.54l3.15-1.57v-1.33L236,156.53Z"/><path d="M235.58,155.86l4.24-2.2v-1.34l-4.94,2.56C235.12,155.2,235.35,155.53,235.58,155.86Z"/><path d="M238.18,160.29c.13.26.25.51.37.77l1.27-.57v-1.31L238,160Z"/><path d="M237.19,158.43l.47.84,2.16-1v-1.32l-2.75,1.3Z"/><path d="M239.82,164.25v-.66l-.21.08Z"/><path d="M229.49,211.47l10.33.58v-1.21l-12.16-.68C228.28,210.57,228.89,211,229.49,211.47Z"/><path d="M233.54,215.26l6.28.58v-1.2l-7.53-.7C232.72,214.36,233.14,214.81,233.54,215.26Z"/><path d="M231.68,213.34l8.14.6v-1.2l-9.64-.72Q230.95,212.65,231.68,213.34Z"/><path d="M236.54,219.24l3.28.43v-1.22l-4.17-.54C236,218.34,236.25,218.79,236.54,219.24Z"/><path d="M230.18,199.53l9.64-.72V197.6l-8.14.61Q230.95,198.9,230.18,199.53Z"/><path d="M235.15,217.23l4.67.52v-1.21l-5.72-.64C234.46,216.33,234.81,216.78,235.15,217.23Z"/><path d="M225.06,202.89q-.28.15-.57.27l15.33-.57v-1.2l-12.93.48Q226,202.43,225.06,202.89Z"/><path d="M225.06,208.65c.62.31,1.23.66,1.83,1l12.93.48V209l-15.33-.57Z"/><path d="M227.66,201.38l12.16-.68v-1.2l-10.33.57C228.89,200.54,228.28,201,227.66,201.38Z"/><path d="M223.55,208l16.27.3v-1.2l-20.39-.38A22.32,22.32,0,0,1,223.55,208Z"/><path d="M219.43,204.86l20.39-.38v-1.2l-16.27.3A22.32,22.32,0,0,1,219.43,204.86Z"/><path d="M230.54,138.92a11,11,0,0,1-.49,1.6l9.77-7v-1.45l-9.24,6.63A2,2,0,0,1,230.54,138.92Z"/><path d="M234.46,95.25c-.7,1.35-1.46,2.7-2.26,4l7.62-8.69V88.84l-5,5.68Z"/><path d="M235.6,102.89l4.22-4.48V96.7l-5.45,5.8A8.79,8.79,0,0,1,235.6,102.89Z"/><path d="M231.72,102.19a10.74,10.74,0,0,1,1.14.06l7-7.67V92.84l-8.49,9.36Z"/><path d="M237.85,104.13l2-2v-1.67l-3,3A8.15,8.15,0,0,1,237.85,104.13Z"/><path d="M239.66,105.83l.16-.15V104l-1,1A10.72,10.72,0,0,1,239.66,105.83Z"/><path d="M239.37,57.44c.08.23.17.46.25.7l.2-.29V55.8l-.7,1C239.21,57,239.29,57.23,239.37,57.44Z"/><path d="M238.2,54.73l1.62-2.46v-2.1l-2.23,3.39C237.8,54,238,54.34,238.2,54.73Z"/><path d="M238.3,86.67c-.37,1-.77,2-1.2,3l2.72-3.21V84.69l-1.41,1.65C238.38,86.45,238.34,86.56,238.3,86.67Z"/><path d="M236.47,51.68l3.35-5.27V44.26l-4,6.38C236,51,236.25,51.33,236.47,51.68Z"/><path d="M40.46,360.9c-.25-.34-.48-.69-.71-1L36.3,365.3v2.15Z"/><path d="M239.69,82.36l.13-.16v-.32C239.77,82,239.73,82.2,239.69,82.36Z"/><path d="M230.75,137.49l9.07-6.76v-1.47l-9,6.74A10.59,10.59,0,0,1,230.75,137.49Z"/><path d="M228.81,148.49l11-7v-1.4l-12,7.67Z"/><path d="M228.4,143.35a10,10,0,0,1-1.76,1.69,11.93,11.93,0,0,1-1.4.88l.27.18,14.31-9.89v-1.43L229.32,142A11,11,0,0,1,228.4,143.35Z"/><path d="M227.2,147.25l12.62-8.39v-1.42l-13.66,9.08C226.51,146.76,226.86,147,227.2,147.25Z"/><path d="M231.78,151.22l8-4.75V145.1l-8.91,5.25C231.21,150.64,231.49,150.92,231.78,151.22Z"/><path d="M230.34,149.81l9.48-5.82V142.6L229.41,149Z"/><path d="M237.07,220.11c.23.38.44.77.65,1.17l2.1.31v-1.22L237,220A1.4,1.4,0,0,1,237.07,220.11Z"/><path d="M230.1,132.77l9.72-7.79v-1.51l-10.22,8.19A11.06,11.06,0,0,1,230.1,132.77Z"/><path d="M227.83,129.25l12-10.34v-1.55l-12.91,11.13A8.24,8.24,0,0,1,227.83,129.25Z"/><path d="M229.14,130.87,239.82,122v-1.53l-11.38,9.46A9.29,9.29,0,0,1,229.14,130.87Z"/><path d="M233.14,152.69l6.68-3.78v-1.36l-7.49,4.24Z"/><path d="M230.67,135l9.15-7.08V126.4l-9.43,7.29A11.23,11.23,0,0,1,230.67,135Z"/><path d="M226.12,128l13.7-12.24v-1.57L225,127.45A8.15,8.15,0,0,1,226.12,128Z"/><path d="M239.82,371.3l-5.33-8.72-.24.3-.54.62,5.73,9.39h.38Z"/><path d="M232.29,365l-.86.81,4.16,7.08h1.34Z"/><path d="M235.77,360.9l4,6.39v-2.16l-3.35-5.27C236.25,360.21,236,360.56,235.77,360.9Z"/><path d="M227.31,368.94l-1,.59,1.83,3.36h1.3Z"/><path d="M224.56,370.46c-.34.16-.69.33-1,.48l1,1.95h1.29Z"/><path d="M229.89,367.12l-.93.69,2.87,5.08h1.32Z"/><path d="M234.46,316.29l.38.73,5,5.68v-1.76l-7.62-8.7C233,313.6,233.76,314.94,234.46,316.29Z"/><path d="M238.3,324.87c0,.11.08.22.11.33l1.41,1.66v-1.8l-2.72-3.21C237.53,322.86,237.93,323.86,238.3,324.87Z"/><path d="M237.59,358l2.23,3.39v-2.1l-1.62-2.46C238,357.21,237.8,357.6,237.59,358Z"/><path d="M239.82,329.66v-.32l-.13-.16C239.73,329.34,239.77,329.5,239.82,329.66Z"/><path d="M239.37,354.11c-.08.2-.16.41-.25.62l.7,1v-2.05l-.2-.28Z"/><path d="M44.79,365.81l-.85-.81-4.64,7.89h1.33Z"/><path d="M52.71,370.94c-.35-.15-.7-.32-1-.48l-1.27,2.43h1.29Z"/><path d="M221.67,371.67c-.37.13-.73.26-1.1.37l.42.85h1.28Z"/><path d="M47.26,367.81c-.31-.22-.62-.46-.92-.69l-3.26,5.77H44.4Z"/><path d="M42.52,363.5c-.19-.2-.37-.41-.54-.62l-.25-.3-5.43,8.9v1.41h.49Z"/><path d="M231.72,309.36h-.39l8.49,9.35V317l-7-7.67C232.49,309.33,232.1,309.36,231.72,309.36Z"/><path d="M49.91,369.53c-.34-.19-.66-.39-1-.59l-2.15,3.95h1.31Z"/><path d="M207.44,372.89h0Z"/><path d="M55.66,372c-.37-.11-.74-.24-1.1-.37L54,372.89h1.28Z"/><path d="M218.63,372.57l-.93.2-.22,0,0,.08h1.27Z"/><path d="M58.75,372.81l-.22,0-.93-.2-.16.32h1.27Z"/><path d="M238.73,223.34l1.09.18V222.3l-1.71-.29C238.32,222.45,238.53,222.89,238.73,223.34Z"/><path d="M68.79,372.89h0Z"/><path d="M233.65,258.24l6.17,3.35v-1.35l-5.42-2.94C234.16,257.62,233.91,257.93,233.65,258.24Z"/><path d="M232.33,259.75l7.49,4.24v-1.36l-6.68-3.78Z"/><path d="M234.37,309l5.45,5.8v-1.7l-4.22-4.49A8.79,8.79,0,0,1,234.37,309Z"/><path d="M229.41,262.55l10.41,6.4v-1.4l-9.48-5.82Z"/><path d="M230.91,261.19l8.91,5.26v-1.38l-8-4.74C231.49,260.62,231.21,260.91,230.91,261.19Z"/><path d="M239.57,225.42l.25,0v-1.22l-.76-.14Q239.33,224.75,239.57,225.42Z"/><path d="M227.83,263.83l12,7.67v-1.41l-11-7C228.49,263.32,228.16,263.57,227.83,263.83Z"/><path d="M239.61,247.87l.21.09v-.66Z"/><path d="M239.07,249.28c-.06.16-.13.31-.19.46l.94.4v-1.3l-.49-.2C239.25,248.85,239.16,249.07,239.07,249.28Z"/><path d="M237.19,253.11l-.12.2,2.75,1.3v-1.32l-2.16-1C237.48,252.59,237.33,252.87,237.19,253.11Z"/><path d="M236,255l3.79,1.88v-1.33L236.67,254Z"/><path d="M234.88,256.66l4.94,2.56v-1.34l-4.24-2.2C235.35,256,235.12,256.34,234.88,256.66Z"/><path d="M226.16,265l13.66,9.08v-1.42l-12.62-8.39C226.86,264.54,226.51,264.78,226.16,265Z"/><path d="M225,284.09l14.86,13.27v-1.57l-13.7-12.23A8.1,8.1,0,0,1,225,284.09Z"/><path d="M238.86,306.56l1,.95v-1.65l-.16-.15A9.23,9.23,0,0,1,238.86,306.56Z"/><path d="M236.85,308.06l3,3.05v-1.67l-2-2A9.43,9.43,0,0,1,236.85,308.06Z"/><path d="M228.44,281.63l11.38,9.46v-1.53l-10.68-8.88A10.54,10.54,0,0,1,228.44,281.63Z"/><path d="M226.91,283.05l12.91,11.13v-1.55l-12-10.34A8.24,8.24,0,0,1,226.91,283.05Z"/><path d="M225.24,265.62a12,12,0,0,1,1.4.89,10,10,0,0,1,1.76,1.68,10.35,10.35,0,0,1,.92,1.32l10.5,7.25v-1.43l-14.31-9.89Z"/><path d="M230.54,272.62a2,2,0,0,1,0,.24l9.24,6.63V278l-9.77-7A10.84,10.84,0,0,1,230.54,272.62Z"/><path d="M230.77,275.54l9,6.74v-1.47l-9.07-6.76A10.61,10.61,0,0,1,230.77,275.54Z"/><path d="M229.6,279.88l10.22,8.19v-1.51l-9.72-7.79A11.06,11.06,0,0,1,229.6,279.88Z"/><path d="M230.39,277.85l9.43,7.29v-1.49l-9.15-7.07A11.07,11.07,0,0,1,230.39,277.85Z"/><circle cx="155.69" cy="214.63" r="4.86"/><path d="M148,234.91v-.07a21.2,21.2,0,0,1,.23-30.37,17.69,17.69,0,0,0-.23-20.59l-.25-.33A17.71,17.71,0,0,0,116,193.94h0S112,212.63,148,234.91ZM128.55,191.2a4.86,4.86,0,1,1,4.86,4.86A4.86,4.86,0,0,1,128.55,191.2Z"/></g></g></svg>