<svg xmlns="http://www.w3.org/2000/svg" viewBox="0 0 276.12 411.54"><defs><style>.cls-1,.cls-4{fill:#410059;}.cls-1,.cls-2,.cls-3,.cls-5{opacity:0.1;}.cls-5{fill:#602f75;}</style></defs><g id="Layer_2" data-name="Layer 2"><g id="Layer_3" data-name="Layer 3"><path class="cls-1" d="M276.12,391.25c0,11.16-8.58,20.29-19.06,20.29h-238C8.58,411.54,0,402.41,0,391.25v-371C0,9.13,8.58,0,19.06,0h238c10.48,0,19.06,9.13,19.06,20.29Z"/><rect class="cls-2" x="18.79" y="19.32" width="238.54" height="372.91"/><g class="cls-3"><path class="cls-4" d="M18.9,396.81h-.11A1.87,1.87,0,0,1,17,394.88v-.11a1.88,1.88,0,0,1,1.81-1.93,1.75,1.75,0,0,1,1.33.62,2,2,0,0,1,.59,1.42A1.87,1.87,0,0,1,18.9,396.81Z"/><path class="cls-4" d="M18.79,389.92A1.87,1.87,0,0,1,17,388v-.22a1.81,1.81,0,1,1,3.62,0V388A1.87,1.87,0,0,1,18.79,389.92Zm0-7A1.88,1.88,0,0,1,17,381v-.23a1.81,1.81,0,1,1,3.62,0V381A1.88,1.88,0,0,1,18.79,382.92Zm0-7A1.87,1.87,0,0,1,17,374v-.22a1.81,1.81,0,1,1,3.62,0V374A1.87,1.87,0,0,1,18.79,375.91Zm0-7A1.87,1.87,0,0,1,17,367v-.23a1.81,1.81,0,1,1,3.62,0V367A1.87,1.87,0,0,1,18.79,368.91Zm0-7A1.87,1.87,0,0,1,17,360v-.23a1.81,1.81,0,1,1,3.62,0V360A1.87,1.87,0,0,1,18.79,361.9Zm0-7A1.87,1.87,0,0,1,17,353v-.22a1.81,1.81,0,1,1,3.62,0V353A1.87,1.87,0,0,1,18.79,354.9Zm0-7A1.88,1.88,0,0,1,17,346v-.23a1.81,1.81,0,1,1,3.62,0V346A1.88,1.88,0,0,1,18.79,347.9Zm0-7A1.87,1.87,0,0,1,17,339v-.22a1.81,1.81,0,1,1,3.62,0V339A1.87,1.87,0,0,1,18.79,340.89Zm0-7A1.88,1.88,0,0,1,17,332v-.23a1.81,1.81,0,1,1,3.62,0V332A1.88,1.88,0,0,1,18.79,333.89Zm0-7A1.87,1.87,0,0,1,17,325v-.22a1.81,1.81,0,1,1,3.62,0V325A1.87,1.87,0,0,1,18.79,326.88Zm0-7A1.87,1.87,0,0,1,17,318v-.23a1.81,1.81,0,1,1,3.62,0V318A1.87,1.87,0,0,1,18.79,319.88Zm0-7A1.88,1.88,0,0,1,17,311v-.23a1.81,1.81,0,1,1,3.62,0V311A1.88,1.88,0,0,1,18.79,312.88Zm0-7A1.87,1.87,0,0,1,17,303.94v-.22a1.81,1.81,0,1,1,3.62,0v.22A1.87,1.87,0,0,1,18.79,305.87Zm0-7A1.88,1.88,0,0,1,17,296.94v-.23a1.81,1.81,0,1,1,3.62,0v.23A1.88,1.88,0,0,1,18.79,298.87Zm0-7A1.87,1.87,0,0,1,17,289.94v-.23a1.81,1.81,0,1,1,3.62,0v.23A1.87,1.87,0,0,1,18.79,291.86Zm0-7A1.87,1.87,0,0,1,17,282.93v-.22a1.81,1.81,0,1,1,3.62,0v.22A1.87,1.87,0,0,1,18.79,284.86Zm0-7A1.88,1.88,0,0,1,17,275.93v-.23a1.81,1.81,0,1,1,3.62,0v.23A1.88,1.88,0,0,1,18.79,277.86Zm0-7A1.87,1.87,0,0,1,17,268.92v-.22a1.81,1.81,0,1,1,3.62,0v.22A1.87,1.87,0,0,1,18.79,270.85Zm0-7A1.88,1.88,0,0,1,17,261.92v-.23a1.81,1.81,0,1,1,3.62,0v.23A1.88,1.88,0,0,1,18.79,263.85Zm0-7A1.87,1.87,0,0,1,17,254.91v-.22a1.81,1.81,0,1,1,3.62,0v.22A1.87,1.87,0,0,1,18.79,256.84Zm0-7A1.88,1.88,0,0,1,17,247.91v-.23a1.81,1.81,0,1,1,3.62,0v.23A1.88,1.88,0,0,1,18.79,249.84Zm0-7A1.87,1.87,0,0,1,17,240.9v-.22a1.81,1.81,0,1,1,3.62,0v.22A1.87,1.87,0,0,1,18.79,242.83Zm0-7A1.87,1.87,0,0,1,17,233.9v-.23a1.81,1.81,0,1,1,3.62,0v.23A1.87,1.87,0,0,1,18.79,235.83Zm0-7A1.88,1.88,0,0,1,17,226.9v-.23a1.81,1.81,0,1,1,3.62,0v.23A1.88,1.88,0,0,1,18.79,228.83Zm0-7A1.87,1.87,0,0,1,17,219.89v-.22a1.81,1.81,0,1,1,3.62,0v.22A1.87,1.87,0,0,1,18.79,221.82Zm0-7A1.88,1.88,0,0,1,17,212.89v-.23a1.81,1.81,0,1,1,3.62,0v.23A1.88,1.88,0,0,1,18.79,214.82Zm0-7A1.87,1.87,0,0,1,17,205.88v-.22a1.81,1.81,0,1,1,3.62,0v.22A1.87,1.87,0,0,1,18.79,207.81Zm0-7A1.87,1.87,0,0,1,17,198.88v-.23a1.81,1.81,0,1,1,3.62,0v.23A1.87,1.87,0,0,1,18.79,200.81Zm0-7A1.88,1.88,0,0,1,17,191.88v-.23a1.81,1.81,0,1,1,3.62,0v.23A1.88,1.88,0,0,1,18.79,193.81Zm0-7A1.87,1.87,0,0,1,17,184.87v-.22a1.81,1.81,0,1,1,3.62,0v.22A1.87,1.87,0,0,1,18.79,186.8Zm0-7A1.88,1.88,0,0,1,17,177.87v-.23a1.81,1.81,0,1,1,3.62,0v.23A1.88,1.88,0,0,1,18.79,179.8Zm0-7A1.87,1.87,0,0,1,17,170.86v-.22a1.81,1.81,0,1,1,3.62,0v.22A1.87,1.87,0,0,1,18.79,172.79Zm0-7A1.87,1.87,0,0,1,17,163.86v-.23a1.81,1.81,0,1,1,3.62,0v.23A1.87,1.87,0,0,1,18.79,165.79Zm0-7A1.87,1.87,0,0,1,17,156.86v-.23a1.81,1.81,0,1,1,3.62,0v.23A1.87,1.87,0,0,1,18.79,158.78Zm0-7A1.87,1.87,0,0,1,17,149.85v-.22a1.81,1.81,0,1,1,3.62,0v.22A1.87,1.87,0,0,1,18.79,151.78Zm0-7A1.88,1.88,0,0,1,17,142.85v-.23a1.81,1.81,0,1,1,3.62,0v.23A1.88,1.88,0,0,1,18.79,144.78Zm0-7A1.87,1.87,0,0,1,17,135.84v-.22a1.81,1.81,0,1,1,3.62,0v.22A1.87,1.87,0,0,1,18.79,137.77Zm0-7A1.87,1.87,0,0,1,17,128.84v-.23a1.81,1.81,0,1,1,3.62,0v.23A1.87,1.87,0,0,1,18.79,130.77Zm0-7A1.87,1.87,0,0,1,17,121.84v-.23a1.81,1.81,0,1,1,3.62,0v.23A1.87,1.87,0,0,1,18.79,123.76Zm0-7A1.87,1.87,0,0,1,17,114.83v-.22a1.81,1.81,0,1,1,3.62,0v.22A1.87,1.87,0,0,1,18.79,116.76Zm0-7A1.88,1.88,0,0,1,17,107.83v-.23a1.81,1.81,0,1,1,3.62,0v.23A1.88,1.88,0,0,1,18.79,109.76Zm0-7A1.87,1.87,0,0,1,17,100.82v-.22a1.81,1.81,0,1,1,3.62,0v.22A1.87,1.87,0,0,1,18.79,102.75Zm0-7A1.88,1.88,0,0,1,17,93.82v-.23a1.81,1.81,0,1,1,3.62,0v.23A1.88,1.88,0,0,1,18.79,95.75Zm0-7A1.87,1.87,0,0,1,17,86.81v-.22a1.81,1.81,0,1,1,3.62,0v.22A1.87,1.87,0,0,1,18.79,88.74Zm0-7A1.87,1.87,0,0,1,17,79.81v-.23a1.81,1.81,0,1,1,3.62,0v.23A1.87,1.87,0,0,1,18.79,81.74Zm0-7A1.88,1.88,0,0,1,17,72.81v-.23a1.81,1.81,0,1,1,3.62,0v.23A1.88,1.88,0,0,1,18.79,74.74Zm0-7A1.87,1.87,0,0,1,17,65.8v-.22a1.81,1.81,0,1,1,3.62,0v.22A1.87,1.87,0,0,1,18.79,67.73Zm0-7A1.88,1.88,0,0,1,17,58.8v-.23a1.81,1.81,0,1,1,3.62,0v.23A1.88,1.88,0,0,1,18.79,60.73Zm0-7A1.87,1.87,0,0,1,17,51.79v-.22a1.81,1.81,0,1,1,3.62,0v.22A1.87,1.87,0,0,1,18.79,53.72Zm0-7A1.87,1.87,0,0,1,17,44.79v-.23a1.81,1.81,0,1,1,3.62,0v.23A1.87,1.87,0,0,1,18.79,46.72Zm0-7A1.87,1.87,0,0,1,17,37.79v-.23a1.81,1.81,0,1,1,3.62,0v.23A1.87,1.87,0,0,1,18.79,39.71Zm0-7A1.87,1.87,0,0,1,17,30.78v-.22a1.81,1.81,0,1,1,3.62,0v.22A1.87,1.87,0,0,1,18.79,32.71Zm0-7A1.88,1.88,0,0,1,17,23.78v-.23a1.81,1.81,0,1,1,3.62,0v.23A1.88,1.88,0,0,1,18.79,25.71Z"/><path class="cls-4" d="M18.79,18.7A1.87,1.87,0,0,1,17,16.77v-.11a1.87,1.87,0,0,1,1.81-1.93h.11a1.87,1.87,0,0,1,1.81,1.93,2,2,0,0,1-.59,1.42A1.75,1.75,0,0,1,18.79,18.7Z"/><path class="cls-4" d="M250.81,18.59h-.21a1.93,1.93,0,0,1,0-3.86h.21a1.93,1.93,0,0,1,0,3.86Zm-6.63,0H244a1.93,1.93,0,0,1,0-3.86h.21a1.93,1.93,0,0,1,0,3.86Zm-6.62,0h-.22a1.93,1.93,0,0,1,0-3.86h.22a1.93,1.93,0,0,1,0,3.86Zm-6.63,0h-.21a1.93,1.93,0,0,1,0-3.86h.21a1.93,1.93,0,0,1,0,3.86Zm-6.62,0h-.22a1.93,1.93,0,0,1,0-3.86h.22a1.93,1.93,0,0,1,0,3.86Zm-6.63,0h-.21a1.93,1.93,0,0,1,0-3.86h.21a1.93,1.93,0,0,1,0,3.86Zm-6.63,0h-.21a1.93,1.93,0,0,1,0-3.86h.21a1.93,1.93,0,0,1,0,3.86Zm-6.62,0h-.22a1.93,1.93,0,0,1,0-3.86h.22a1.93,1.93,0,0,1,0,3.86Zm-6.63,0h-.21a1.93,1.93,0,0,1,0-3.86h.21a1.93,1.93,0,0,1,0,3.86Zm-6.62,0H191a1.93,1.93,0,0,1,0-3.86h.22a1.93,1.93,0,0,1,0,3.86Zm-6.63,0h-.22a1.93,1.93,0,0,1,0-3.86h.22a1.93,1.93,0,0,1,0,3.86Zm-6.63,0h-.21a1.93,1.93,0,0,1,0-3.86h.21a1.93,1.93,0,0,1,0,3.86Zm-6.62,0h-.22a1.93,1.93,0,0,1,0-3.86h.22a1.93,1.93,0,0,1,0,3.86Zm-6.63,0h-.21a1.93,1.93,0,0,1,0-3.86h.21a1.93,1.93,0,0,1,0,3.86Zm-6.63,0h-.21a1.93,1.93,0,0,1,0-3.86H158a1.93,1.93,0,0,1,0,3.86Zm-6.62,0h-.21a1.93,1.93,0,0,1,0-3.86h.21a1.93,1.93,0,0,1,0,3.86Zm-6.63,0h-.21a1.93,1.93,0,0,1,0-3.86h.21a1.93,1.93,0,0,1,0,3.86Zm-6.62,0H138a1.93,1.93,0,0,1,0-3.86h.22a1.93,1.93,0,0,1,0,3.86Zm-6.63,0h-.21a1.93,1.93,0,0,1,0-3.86h.21a1.93,1.93,0,0,1,0,3.86Zm-6.63,0h-.21a1.93,1.93,0,0,1,0-3.86h.21a1.93,1.93,0,0,1,0,3.86Zm-6.62,0h-.22a1.93,1.93,0,0,1,0-3.86h.22a1.93,1.93,0,0,1,0,3.86Zm-6.63,0h-.21a1.93,1.93,0,0,1,0-3.86h.21a1.93,1.93,0,0,1,0,3.86Zm-6.62,0h-.22a1.93,1.93,0,0,1,0-3.86H105a1.93,1.93,0,0,1,0,3.86Zm-6.63,0H98.2a1.93,1.93,0,0,1,0-3.86h.21a1.93,1.93,0,0,1,0,3.86Zm-6.63,0h-.21a1.93,1.93,0,0,1,0-3.86h.21a1.93,1.93,0,0,1,0,3.86Zm-6.62,0h-.22a1.93,1.93,0,0,1,0-3.86h.22a1.93,1.93,0,0,1,0,3.86Zm-6.63,0h-.21a1.93,1.93,0,0,1,0-3.86h.21a1.93,1.93,0,0,1,0,3.86Zm-6.62,0h-.22a1.93,1.93,0,0,1,0-3.86h.22a1.93,1.93,0,0,1,0,3.86Zm-6.63,0h-.21a1.93,1.93,0,0,1,0-3.86h.21a1.93,1.93,0,0,1,0,3.86Zm-6.63,0h-.21a1.93,1.93,0,0,1,0-3.86h.21a1.93,1.93,0,0,1,0,3.86Zm-6.62,0h-.22a1.93,1.93,0,0,1,0-3.86H52a1.93,1.93,0,0,1,0,3.86Zm-6.63,0h-.21a1.93,1.93,0,0,1,0-3.86h.21a1.93,1.93,0,0,1,0,3.86Zm-6.62,0h-.22a1.93,1.93,0,0,1,0-3.86h.22a1.93,1.93,0,0,1,0,3.86Zm-6.63,0h-.21a1.93,1.93,0,0,1,0-3.86h.21a1.93,1.93,0,0,1,0,3.86Zm-6.63,0h-.21a1.93,1.93,0,0,1,0-3.86h.21a1.93,1.93,0,0,1,0,3.86Z"/><path class="cls-4" d="M257.33,18.7a1.79,1.79,0,0,1-1.34-.62,2,2,0,0,1-.58-1.42,1.87,1.87,0,0,1,1.81-1.93h.11a1.87,1.87,0,0,1,1.81,1.93v.11A1.87,1.87,0,0,1,257.33,18.7Z"/><path class="cls-4" d="M257.33,389.92a1.87,1.87,0,0,1-1.81-1.93v-.22a1.81,1.81,0,1,1,3.62,0V388A1.87,1.87,0,0,1,257.33,389.92Zm0-7a1.88,1.88,0,0,1-1.81-1.93v-.23a1.81,1.81,0,1,1,3.62,0V381A1.88,1.88,0,0,1,257.33,382.92Zm0-7a1.87,1.87,0,0,1-1.81-1.93v-.22a1.81,1.81,0,1,1,3.62,0V374A1.87,1.87,0,0,1,257.33,375.91Zm0-7a1.87,1.87,0,0,1-1.81-1.93v-.23a1.81,1.81,0,1,1,3.62,0V367A1.87,1.87,0,0,1,257.33,368.91Zm0-7a1.87,1.87,0,0,1-1.81-1.92v-.23a1.81,1.81,0,1,1,3.62,0V360A1.87,1.87,0,0,1,257.33,361.9Zm0-7a1.87,1.87,0,0,1-1.81-1.93v-.22a1.81,1.81,0,1,1,3.62,0V353A1.87,1.87,0,0,1,257.33,354.9Zm0-7a1.88,1.88,0,0,1-1.81-1.93v-.23a1.81,1.81,0,1,1,3.62,0V346A1.88,1.88,0,0,1,257.33,347.9Zm0-7a1.87,1.87,0,0,1-1.81-1.93v-.22a1.81,1.81,0,1,1,3.62,0V339A1.87,1.87,0,0,1,257.33,340.89Zm0-7a1.88,1.88,0,0,1-1.81-1.93v-.23a1.81,1.81,0,1,1,3.62,0V332A1.88,1.88,0,0,1,257.33,333.89Zm0-7a1.87,1.87,0,0,1-1.81-1.93v-.22a1.81,1.81,0,1,1,3.62,0V325A1.87,1.87,0,0,1,257.33,326.88Zm0-7a1.87,1.87,0,0,1-1.81-1.93v-.23a1.81,1.81,0,1,1,3.62,0V318A1.87,1.87,0,0,1,257.33,319.88Zm0-7a1.88,1.88,0,0,1-1.81-1.93v-.23a1.81,1.81,0,1,1,3.62,0V311A1.88,1.88,0,0,1,257.33,312.88Zm0-7a1.87,1.87,0,0,1-1.81-1.93v-.22a1.81,1.81,0,1,1,3.62,0v.22A1.87,1.87,0,0,1,257.33,305.87Zm0-7a1.88,1.88,0,0,1-1.81-1.93v-.23a1.81,1.81,0,1,1,3.62,0v.23A1.88,1.88,0,0,1,257.33,298.87Zm0-7a1.87,1.87,0,0,1-1.81-1.92v-.23a1.81,1.81,0,1,1,3.62,0v.23A1.87,1.87,0,0,1,257.33,291.86Zm0-7a1.87,1.87,0,0,1-1.81-1.93v-.23a1.81,1.81,0,1,1,3.62,0v.23A1.87,1.87,0,0,1,257.33,284.86Zm0-7a1.88,1.88,0,0,1-1.81-1.93v-.23a1.81,1.81,0,1,1,3.62,0v.23A1.88,1.88,0,0,1,257.33,277.86Zm0-7a1.87,1.87,0,0,1-1.81-1.93v-.22a1.81,1.81,0,1,1,3.62,0v.22A1.87,1.87,0,0,1,257.33,270.85Zm0-7a1.88,1.88,0,0,1-1.81-1.93v-.23a1.81,1.81,0,1,1,3.62,0v.23A1.88,1.88,0,0,1,257.33,263.85Zm0-7a1.87,1.87,0,0,1-1.81-1.93v-.22a1.81,1.81,0,1,1,3.62,0v.22A1.87,1.87,0,0,1,257.33,256.84Zm0-7a1.88,1.88,0,0,1-1.81-1.93v-.23a1.81,1.81,0,1,1,3.62,0v.23A1.88,1.88,0,0,1,257.33,249.84Zm0-7a1.87,1.87,0,0,1-1.81-1.93v-.22a1.81,1.81,0,1,1,3.62,0v.22A1.87,1.87,0,0,1,257.33,242.83Zm0-7a1.87,1.87,0,0,1-1.81-1.93v-.23a1.81,1.81,0,1,1,3.62,0v.23A1.87,1.87,0,0,1,257.33,235.83Zm0-7a1.88,1.88,0,0,1-1.81-1.93v-.23a1.81,1.81,0,1,1,3.62,0v.23A1.88,1.88,0,0,1,257.33,228.83Zm0-7a1.87,1.87,0,0,1-1.81-1.93v-.22a1.81,1.81,0,1,1,3.62,0v.22A1.87,1.87,0,0,1,257.33,221.82Zm0-7a1.88,1.88,0,0,1-1.81-1.93v-.23a1.81,1.81,0,1,1,3.62,0v.23A1.88,1.88,0,0,1,257.33,214.82Zm0-7a1.87,1.87,0,0,1-1.81-1.92v-.23a1.81,1.81,0,1,1,3.62,0v.23A1.87,1.87,0,0,1,257.33,207.81Zm0-7a1.87,1.87,0,0,1-1.81-1.93v-.23a1.81,1.81,0,1,1,3.62,0v.23A1.87,1.87,0,0,1,257.33,200.81Zm0-7a1.88,1.88,0,0,1-1.81-1.93v-.23a1.81,1.81,0,1,1,3.62,0v.23A1.88,1.88,0,0,1,257.33,193.81Zm0-7a1.87,1.87,0,0,1-1.81-1.93v-.22a1.81,1.81,0,1,1,3.62,0v.22A1.87,1.87,0,0,1,257.33,186.8Zm0-7a1.88,1.88,0,0,1-1.81-1.93v-.23a1.81,1.81,0,1,1,3.62,0v.23A1.88,1.88,0,0,1,257.33,179.8Zm0-7a1.87,1.87,0,0,1-1.81-1.93v-.22a1.81,1.81,0,1,1,3.62,0v.22A1.87,1.87,0,0,1,257.33,172.79Zm0-7a1.87,1.87,0,0,1-1.81-1.93v-.23a1.81,1.81,0,1,1,3.62,0v.23A1.87,1.87,0,0,1,257.33,165.79Zm0-7a1.87,1.87,0,0,1-1.81-1.92v-.23a1.81,1.81,0,1,1,3.62,0v.23A1.87,1.87,0,0,1,257.33,158.78Zm0-7a1.87,1.87,0,0,1-1.81-1.93v-.22a1.81,1.81,0,1,1,3.62,0v.22A1.87,1.87,0,0,1,257.33,151.78Zm0-7a1.88,1.88,0,0,1-1.81-1.93v-.23a1.81,1.81,0,1,1,3.62,0v.23A1.88,1.88,0,0,1,257.33,144.78Zm0-7a1.87,1.87,0,0,1-1.81-1.93v-.22a1.81,1.81,0,1,1,3.62,0v.22A1.87,1.87,0,0,1,257.33,137.77Zm0-7a1.87,1.87,0,0,1-1.81-1.93v-.23a1.81,1.81,0,1,1,3.62,0v.23A1.87,1.87,0,0,1,257.33,130.77Zm0-7a1.87,1.87,0,0,1-1.81-1.92v-.23a1.81,1.81,0,1,1,3.62,0v.23A1.87,1.87,0,0,1,257.33,123.76Zm0-7a1.87,1.87,0,0,1-1.81-1.93v-.23a1.81,1.81,0,1,1,3.62,0v.23A1.87,1.87,0,0,1,257.33,116.76Zm0-7a1.88,1.88,0,0,1-1.81-1.93v-.23a1.81,1.81,0,1,1,3.62,0v.23A1.88,1.88,0,0,1,257.33,109.76Zm0-7a1.87,1.87,0,0,1-1.81-1.93v-.22a1.81,1.81,0,1,1,3.62,0v.22A1.87,1.87,0,0,1,257.33,102.75Zm0-7a1.88,1.88,0,0,1-1.81-1.93v-.23a1.81,1.81,0,1,1,3.62,0v.23A1.88,1.88,0,0,1,257.33,95.75Zm0-7a1.87,1.87,0,0,1-1.81-1.93v-.22a1.81,1.81,0,1,1,3.62,0v.22A1.87,1.87,0,0,1,257.33,88.74Zm0-7a1.87,1.87,0,0,1-1.81-1.93v-.23a1.81,1.81,0,1,1,3.62,0v.23A1.87,1.87,0,0,1,257.33,81.74Zm0-7a1.88,1.88,0,0,1-1.81-1.93v-.23a1.81,1.81,0,1,1,3.62,0v.23A1.88,1.88,0,0,1,257.33,74.74Zm0-7a1.87,1.87,0,0,1-1.81-1.93v-.22a1.81,1.81,0,1,1,3.62,0v.22A1.87,1.87,0,0,1,257.33,67.73Zm0-7a1.88,1.88,0,0,1-1.81-1.93v-.23a1.81,1.81,0,1,1,3.62,0v.23A1.88,1.88,0,0,1,257.33,60.73Zm0-7a1.87,1.87,0,0,1-1.81-1.93v-.22a1.81,1.81,0,1,1,3.62,0v.22A1.87,1.87,0,0,1,257.33,53.72Zm0-7a1.87,1.87,0,0,1-1.81-1.93v-.23a1.81,1.81,0,1,1,3.62,0v.23A1.87,1.87,0,0,1,257.33,46.72Zm0-7a1.87,1.87,0,0,1-1.81-1.92v-.23a1.81,1.81,0,1,1,3.62,0v.23A1.87,1.87,0,0,1,257.33,39.71Zm0-7a1.87,1.87,0,0,1-1.81-1.93v-.22a1.81,1.81,0,1,1,3.62,0v.22A1.87,1.87,0,0,1,257.33,32.71Zm0-7a1.88,1.88,0,0,1-1.81-1.93v-.23a1.81,1.81,0,1,1,3.62,0v.23A1.88,1.88,0,0,1,257.33,25.71Z"/><path class="cls-4" d="M257.33,396.81h-.11a1.87,1.87,0,0,1-1.81-1.93,2,2,0,0,1,.58-1.42,1.79,1.79,0,0,1,1.34-.62,1.88,1.88,0,0,1,1.81,1.93v.11A1.87,1.87,0,0,1,257.33,396.81Z"/><path class="cls-4" d="M250.81,396.81h-.21a1.93,1.93,0,0,1,0-3.85h.21a1.93,1.93,0,0,1,0,3.85Zm-6.63,0H244a1.93,1.93,0,0,1,0-3.85h.21a1.93,1.93,0,0,1,0,3.85Zm-6.62,0h-.22a1.93,1.93,0,0,1,0-3.85h.22a1.93,1.93,0,0,1,0,3.85Zm-6.63,0h-.21a1.93,1.93,0,0,1,0-3.85h.21a1.93,1.93,0,0,1,0,3.85Zm-6.62,0h-.22a1.93,1.93,0,0,1,0-3.85h.22a1.93,1.93,0,0,1,0,3.85Zm-6.63,0h-.21a1.93,1.93,0,0,1,0-3.85h.21a1.93,1.93,0,0,1,0,3.85Zm-6.63,0h-.21a1.93,1.93,0,0,1,0-3.85h.21a1.93,1.93,0,0,1,0,3.85Zm-6.62,0h-.22a1.93,1.93,0,0,1,0-3.85h.22a1.93,1.93,0,0,1,0,3.85Zm-6.63,0h-.21a1.93,1.93,0,0,1,0-3.85h.21a1.93,1.93,0,0,1,0,3.85Zm-6.63,0H191a1.93,1.93,0,0,1,0-3.85h.21a1.93,1.93,0,0,1,0,3.85Zm-6.62,0h-.22a1.93,1.93,0,0,1,0-3.85h.22a1.93,1.93,0,0,1,0,3.85Zm-6.63,0h-.21a1.93,1.93,0,0,1,0-3.85h.21a1.93,1.93,0,0,1,0,3.85Zm-6.62,0h-.22a1.93,1.93,0,0,1,0-3.85h.22a1.93,1.93,0,0,1,0,3.85Zm-6.63,0h-.21a1.93,1.93,0,0,1,0-3.85h.21a1.93,1.93,0,0,1,0,3.85Zm-6.63,0h-.21a1.93,1.93,0,0,1,0-3.85H158a1.93,1.93,0,0,1,0,3.85Zm-6.62,0h-.22a1.93,1.93,0,0,1,0-3.85h.22a1.93,1.93,0,0,1,0,3.85Zm-6.63,0h-.21a1.93,1.93,0,0,1,0-3.85h.21a1.93,1.93,0,0,1,0,3.85Zm-6.62,0H138a1.93,1.93,0,0,1,0-3.85h.22a1.93,1.93,0,0,1,0,3.85Zm-6.63,0h-.21a1.93,1.93,0,0,1,0-3.85h.21a1.93,1.93,0,0,1,0,3.85Zm-6.63,0h-.21a1.93,1.93,0,0,1,0-3.85h.21a1.93,1.93,0,0,1,0,3.85Zm-6.62,0h-.22a1.93,1.93,0,0,1,0-3.85h.22a1.93,1.93,0,0,1,0,3.85Zm-6.63,0h-.21a1.93,1.93,0,0,1,0-3.85h.21a1.93,1.93,0,0,1,0,3.85Zm-6.62,0h-.22a1.93,1.93,0,0,1,0-3.85H105a1.93,1.93,0,0,1,0,3.85Zm-6.63,0H98.2a1.93,1.93,0,0,1,0-3.85h.21a1.93,1.93,0,0,1,0,3.85Zm-6.63,0h-.21a1.93,1.93,0,0,1,0-3.85h.21a1.93,1.93,0,0,1,0,3.85Zm-6.62,0h-.22a1.93,1.93,0,0,1,0-3.85h.22a1.93,1.93,0,0,1,0,3.85Zm-6.63,0h-.21a1.93,1.93,0,0,1,0-3.85h.21a1.93,1.93,0,0,1,0,3.85Zm-6.62,0h-.22a1.93,1.93,0,0,1,0-3.85h.22a1.93,1.93,0,0,1,0,3.85Zm-6.63,0h-.21a1.93,1.93,0,0,1,0-3.85h.21a1.93,1.93,0,0,1,0,3.85Zm-6.63,0h-.21a1.93,1.93,0,0,1,0-3.85h.21a1.93,1.93,0,0,1,0,3.85Zm-6.62,0h-.22a1.93,1.93,0,0,1,0-3.85H52a1.93,1.93,0,0,1,0,3.85Zm-6.63,0h-.21a1.93,1.93,0,0,1,0-3.85h.21a1.93,1.93,0,0,1,0,3.85Zm-6.62,0h-.22a1.93,1.93,0,0,1,0-3.85h.22a1.93,1.93,0,0,1,0,3.85Zm-6.63,0h-.22a1.93,1.93,0,0,1,0-3.85h.22a1.93,1.93,0,0,1,0,3.85Zm-6.63,0h-.21a1.93,1.93,0,0,1,0-3.85h.21a1.93,1.93,0,0,1,0,3.85Z"/></g><rect class="cls-2" x="21.99" y="20.06" width="232.14" height="371.42"/><rect class="cls-2" x="28.38" y="26.87" width="219.35" height="357.8"/><rect class="cls-5" x="30.51" y="29.14" width="215.09" height="353.26"/><path class="cls-2" d="M171.27,170.58a44.77,44.77,0,0,0-66.12,0,52.06,52.06,0,0,0,0,70.39,44.77,44.77,0,0,0,66.12,0,52.09,52.09,0,0,0,0-70.39Zm-1.51,68.78a42.73,42.73,0,0,1-63.11,0,49.7,49.7,0,0,1,0-67.18,42.75,42.75,0,0,1,63.11,0,49.7,49.7,0,0,1,0,67.18Z"/><path class="cls-2" d="M157.06,42.38a25.73,25.73,0,0,0-38,0,29.92,29.92,0,0,0,0,40.45,25.75,25.75,0,0,0,38,0,29.92,29.92,0,0,0,0-40.45Zm-.87,39.52a24.54,24.54,0,0,1-36.26,0,28.55,28.55,0,0,1,0-38.6,24.54,24.54,0,0,1,36.26,0,28.55,28.55,0,0,1,0,38.6Z"/><path class="cls-2" d="M162.66,67.22l-12-3c0-.29.06-.59.08-.89L163,62.6l-12.34-.72c0-.3,0-.6-.08-.9l12-3-12.27,1.57c-.06-.29-.13-.58-.22-.87l11.36-5.17-11.82,3.81c-.11-.28-.23-.55-.36-.82l10.34-7.2-11,5.94c-.16-.25-.32-.49-.49-.73l9-9L147.3,53.4l-.29-.33c-.1-.1-.2-.21-.31-.31l7.42-10.53-8.46,9.6c-.22-.18-.45-.36-.69-.52l5.58-11.74-6.76,11L143,50.2l3.58-12.59L141.74,49.7l-.81-.23,1.47-13.06-2.82,12.81c-.28,0-.56-.06-.84-.07L138.06,36l-.68,13.14c-.28,0-.57,0-.84.07l-2.82-12.81,1.47,13.06-.81.23-4.86-12.09,3.57,12.59-.76.38-6.76-11,5.58,11.74c-.24.16-.47.34-.69.52L122,42.23l7.41,10.53-.3.31-.29.33-9.9-7.89,9,9c-.17.24-.33.48-.49.73l-11-5.94,10.34,7.2c-.13.27-.25.54-.36.82l-11.82-3.81L126,58.68c-.09.29-.16.58-.22.87L113.46,58l12,3c0,.3,0,.6-.07.9l-12.34.72,12.34.73c0,.3,0,.6.07.89l-12,3,12.27-1.57a7.9,7.9,0,0,0,.22.87L114.59,71.7l11.82-3.81c.11.27.23.55.36.81l-10.34,7.2,11-5.94c.16.25.32.49.49.73l-9,9,9.9-7.89.29.32.3.31L122,83l8.46-9.59q.33.27.69.51l-5.58,11.74,6.76-11c.25.14.5.26.76.38l-3.57,12.59,4.86-12.09c.26.09.54.16.81.23l-1.47,13.06L136.54,76l.84.08.68,13.13.68-13.13.84-.08,2.82,12.81-1.47-13.06c.27-.07.54-.14.81-.23l4.86,12.09L143,75c.26-.12.52-.24.77-.38l6.76,11L145,73.89q.36-.24.69-.51L154.12,83,146.7,72.44c.11-.1.21-.21.31-.31s.19-.22.29-.32l9.89,7.89-9-9c.17-.24.33-.48.49-.73l11,5.94-10.34-7.2c.13-.26.25-.54.36-.81l11.82,3.81-11.36-5.18a7.9,7.9,0,0,0,.22-.87Zm-16.52,4a10.95,10.95,0,0,1-16.16,0A12.73,12.73,0,0,1,130,54a10.93,10.93,0,0,1,16.16,0,12.73,12.73,0,0,1,0,17.21Z"/><path class="cls-2" d="M157.06,328.72a25.73,25.73,0,0,0-38,0,29.92,29.92,0,0,0,0,40.45,25.75,25.75,0,0,0,38,0,29.92,29.92,0,0,0,0-40.45Zm-.87,39.53a24.56,24.56,0,0,1-36.26,0,28.57,28.57,0,0,1,0-38.61,24.54,24.54,0,0,1,36.26,0,28.57,28.57,0,0,1,0,38.61Z"/><path class="cls-2" d="M162.66,353.56l-12-3c0-.29.06-.59.08-.89l12.34-.73-12.34-.72c0-.3,0-.6-.08-.9l12-3-12.27,1.57c-.06-.29-.13-.58-.22-.87l11.36-5.17-11.82,3.81c-.11-.28-.23-.55-.36-.82l10.34-7.2-11,5.94c-.16-.25-.32-.49-.49-.73l9-9-9.89,7.89c-.1-.11-.19-.22-.29-.32s-.2-.22-.31-.32l7.42-10.53-8.46,9.6c-.22-.18-.45-.36-.69-.52l5.58-11.74-6.76,11-.77-.38L146.6,324l-4.86,12.1q-.41-.14-.81-.24l1.47-13.06-2.82,12.82a8,8,0,0,0-.84-.08l-.68-13.14-.68,13.14a7.71,7.71,0,0,0-.84.08l-2.82-12.82,1.47,13.06c-.27.07-.55.15-.81.24L129.52,324l3.57,12.59-.76.38-6.76-11,5.58,11.74c-.24.16-.47.34-.69.52l-8.46-9.6,7.41,10.53-.3.32c-.1.1-.2.21-.29.32l-9.9-7.89,9,9c-.17.24-.33.48-.49.73l-11-5.94,10.34,7.2c-.13.27-.25.54-.36.82l-11.82-3.81L126,345c-.09.29-.16.58-.22.87l-12.27-1.57,12,3c0,.3,0,.6-.07.9l-12.34.72,12.34.73c0,.3,0,.6.07.89l-12,3L125.73,352a7.9,7.9,0,0,0,.22.87L114.59,358l11.82-3.81c.11.27.23.55.36.81l-10.34,7.2,11-5.94.49.74-9,9,9.9-7.89c.09.11.19.21.29.32l.3.31L122,369.31l8.46-9.59q.33.27.69.51L125.57,372l6.76-11a7.69,7.69,0,0,0,.76.38l-3.57,12.59,4.86-12.09.81.23-1.47,13.06,2.82-12.81.84.08.68,13.14.68-13.14.84-.08,2.82,12.81-1.47-13.06.81-.23,4.86,12.09L143,361.34a7.85,7.85,0,0,0,.77-.38l6.76,11L145,360.23q.36-.24.69-.51l8.46,9.59-7.42-10.53c.11-.1.21-.2.31-.31l.29-.32,9.89,7.89-9-9,.49-.74,11,5.94L149.35,355c.13-.26.25-.54.36-.81L161.53,358l-11.36-5.18a7.9,7.9,0,0,0,.22-.87Zm-16.52,4a10.95,10.95,0,0,1-16.16,0,12.73,12.73,0,0,1,0-17.21,10.93,10.93,0,0,1,16.16,0,12.73,12.73,0,0,1,0,17.21Z"/><path class="cls-2" d="M55.34,136.16l-.36.37.92.1Z"/><path class="cls-2" d="M56.42,134.57a6.83,6.83,0,0,1-.66,1.07L57,136.73c.65,0,1.32.08,2,.1Z"/><path class="cls-2" d="M57.13,132.64c-.06.26-.13.51-.21.76s-.13.36-.2.54L60,136.86h1.87Z"/><path class="cls-2" d="M57.32,130.21a8.16,8.16,0,0,1,0,1.64l5.41,5c.57-.06,1.13-.09,1.69-.12Z"/><path class="cls-2" d="M47.38,122.69l.21,0a8.11,8.11,0,0,1,1.4-.15L33.64,108.29l-.47.81-1.41-.86Z"/><path class="cls-2" d="M64.64,125.74l11,12.13q.8.21,1.59.45c-4.35-4.18-8.31-8.13-12.09-12C65,126.09,64.8,125.92,64.64,125.74Z"/><path class="cls-2" d="M40,104a6.92,6.92,0,0,0-1.38-.15h-.47l32.09,33c.66.07,1.32.15,2,.26Z"/><path class="cls-2" d="M36.72,104.29l-.37.21a4.41,4.41,0,0,0-.63.54l31.79,31.57,2,.18Z"/><path class="cls-2" d="M50.39,122.59a8.55,8.55,0,0,1,2.38.74l.43.24L34.93,106.06l-.13.22-.51.88Z"/><path class="cls-2" d="M56.13,126.38a8.18,8.18,0,0,1,.55,1.06,8.59,8.59,0,0,1,.5,1.66l7.94,7.61c.39,0,.79,0,1.18,0h.2l.35,0Z"/><path class="cls-2" d="M46,106.82c-.76-.51-1.5-1-2.24-1.36-.46-.24-.9-.45-1.33-.64l30.47,32.44c.71.13,1.41.28,2.11.44Z"/><path class="cls-2" d="M220.89,136.16l.36.37-.92.1Z"/><path class="cls-2" d="M219.81,134.57a6.83,6.83,0,0,0,.66,1.07l-1.26,1.09c-.65,0-1.32.08-2,.1Z"/><path class="cls-2" d="M219.1,132.64c.06.26.13.51.21.76s.13.36.21.54l-3.28,2.92h-1.87Z"/><path class="cls-2" d="M218.91,130.21a9,9,0,0,0,.05,1.64l-5.41,5c-.56-.06-1.13-.09-1.69-.12Z"/><path class="cls-2" d="M228.86,122.69l-.22,0a8,8,0,0,0-1.4-.15l15.35-14.21.47.81,1.42-.86Z"/><path class="cls-2" d="M211.6,125.74l-11,12.13c-.54.14-1.07.29-1.6.45,4.35-4.18,8.31-8.13,12.09-12Z"/><path class="cls-2" d="M236.27,104a6.92,6.92,0,0,1,1.38-.15h.47l-32.08,33c-.67.07-1.32.15-2,.26Z"/><path class="cls-2" d="M239.52,104.29l.36.21a3.93,3.93,0,0,1,.63.54l-31.79,31.57-2,.18Z"/><path class="cls-2" d="M225.84,122.59a8.49,8.49,0,0,0-2.37.74l-.43.24,18.26-17.51.13.22.51.88Z"/><path class="cls-2" d="M220.1,126.38a8.12,8.12,0,0,0-.54,1.06,8,8,0,0,0-.51,1.66l-7.93,7.61c-.4,0-.79,0-1.19,0h-.2l-.35,0Z"/><path class="cls-2" d="M230.27,106.82a25.91,25.91,0,0,1,2.25-1.36c.45-.24.89-.45,1.32-.64l-30.47,32.44c-.71.13-1.41.28-2.11.44Z"/><path class="cls-2" d="M55.34,275.39,55,275l.92-.1Z"/><path class="cls-2" d="M56.42,277a7.32,7.32,0,0,0-.66-1.07L57,274.82c.65-.05,1.32-.09,2-.11Z"/><path class="cls-2" d="M57.13,278.9c-.06-.26-.13-.51-.21-.76s-.13-.36-.2-.53L60,274.68h1.87Z"/><path class="cls-2" d="M57.32,281.33a8.08,8.08,0,0,0,0-1.63l5.41-5c.57.06,1.13.1,1.69.13Z"/><path class="cls-2" d="M47.38,288.85l.21,0A8.1,8.1,0,0,0,49,289L33.64,303.25l-.47-.81-1.41.87Z"/><path class="cls-2" d="M64.64,285.8l11-12.13q.8-.19,1.59-.45c-4.35,4.19-8.31,8.14-12.09,12C65,285.45,64.8,285.62,64.64,285.8Z"/><path class="cls-2" d="M40,307.51a7,7,0,0,1-1.38.16h-.32l-.15,0,32.09-33c.66-.06,1.32-.15,2-.25Z"/><path class="cls-2" d="M36.72,307.25a2.71,2.71,0,0,1-.37-.21,4.41,4.41,0,0,1-.63-.54l31.79-31.56,2-.18Z"/><path class="cls-2" d="M50.39,289a8.23,8.23,0,0,0,2.38-.74l.43-.23-18.27,17.5c0-.07-.09-.14-.13-.22l-.51-.88Z"/><path class="cls-2" d="M56.13,285.16a8.18,8.18,0,0,0,.55-1.06,8.59,8.59,0,0,0,.5-1.66l7.94-7.6,1.18,0h.2l.35,0Z"/><path class="cls-2" d="M46,304.72c-.76.51-1.5,1-2.24,1.36-.46.24-.9.46-1.33.64l30.47-32.44c.71-.13,1.41-.27,2.11-.44Z"/><path class="cls-2" d="M234.3,311.51a11,11,0,0,0,3.92.26,7.37,7.37,0,0,0,3.65-1.48,9,9,0,0,0,2.47-3.14l-.18-.11a8.69,8.69,0,0,1-2.55,2.86,6.77,6.77,0,0,1-3.45,1.16,10.53,10.53,0,0,1-3.64-.49,18.75,18.75,0,0,1-3.44-1.45,35,35,0,0,1-6.23-4.37,49.05,49.05,0,0,1-4.26-4.15c-3.78-4.44-7.71-8.72-11.73-12.89q-6.37-6.6-13-12.91-8.07-7.71-16.32-15.2c4.25,2.57,8.57,5,13,7.21,1.14.57,2.28,1.12,3.45,1.66a32,32,0,0,0,3.63,1.4,33.43,33.43,0,0,0,7.59,1.48c.76.06,1.53.09,2.29.1h.13a33.15,33.15,0,0,0,3.73-.17c.79,0,1.57,0,2.36,0a55.61,55.61,0,0,1,6.19.4c1,.13,2,.31,3,.54a16.86,16.86,0,0,1,2.89,1,8.58,8.58,0,0,1,1.3.71,6.17,6.17,0,0,1,2.49,3.61,6.73,6.73,0,0,1,.08,3.06,6.84,6.84,0,0,1-.48,1.47,7.58,7.58,0,0,1-.37.68,6.13,6.13,0,0,1-.44.6,4.75,4.75,0,0,1-2.49,1.54,4.63,4.63,0,0,1-2.91-.26,4.21,4.21,0,0,1-1.26-.82,4.07,4.07,0,0,1-.91-1.25,4.46,4.46,0,0,1-.24-3.12,4.26,4.26,0,0,1,.71-1.41,3.27,3.27,0,0,1,1.23-1,3.07,3.07,0,0,1,3,.29l0-.05a3.19,3.19,0,0,0-3.06-.41,3.3,3.3,0,0,0-1.34.95,4.39,4.39,0,0,0-.82,1.48,4.86,4.86,0,0,0,.14,3.42,4.71,4.71,0,0,0,1,1.44,5.11,5.11,0,0,0,1.38,1,5.16,5.16,0,0,0,3.26.43,5.45,5.45,0,0,0,3-1.66,7.65,7.65,0,0,0,1.66-6.69,7.55,7.55,0,0,0-1.55-3.22,7,7,0,0,0-1.27-1.22,10.28,10.28,0,0,0-1.47-.89,17.77,17.77,0,0,0-3.09-1.16,31.76,31.76,0,0,0-3.15-.71l-1.48-.23c.58-.18,1.15-.38,1.72-.6A34.23,34.23,0,0,0,240.1,254c.17-.29.33-.59.49-.89l.23-.45.23-.45q.45-.92.84-1.86a32.81,32.81,0,0,0,1.32-3.88,31.57,31.57,0,0,0-.06-16.29,30.89,30.89,0,0,0-3.15-7.49,29.42,29.42,0,0,0-5-6.27,27.51,27.51,0,0,0-6.4-4.57,20.95,20.95,0,0,0-15.14-1.49,21.48,21.48,0,0,0-7,3.41,22.69,22.69,0,0,0-5.48,5.74c-.37.56-.72,1.14-1.05,1.73l-.24.44-.23.45c-.15.31-.3.62-.43.93a19.73,19.73,0,0,0-1.23,3.91,20.17,20.17,0,0,0,0,8.19,19.5,19.5,0,0,0,3.26,7.4,18.21,18.21,0,0,0,5.88,5.22,13.51,13.51,0,0,0,7.5,1.63,13.77,13.77,0,0,0,7.18-2.73,14.63,14.63,0,0,0,4.8-6.28,12.79,12.79,0,0,0,.38-8,12,12,0,0,0-4.43-6.47,10.85,10.85,0,0,0-1.67-1,9.31,9.31,0,0,0-1.82-.62,8.55,8.55,0,0,0-3.8.05,8.82,8.82,0,0,0-3.43,1.69,9.23,9.23,0,0,0-1.26,1.24c0-.31-.13-1.69-1.28-1.93-1.3-.27-3.78.94-3.78.94s1.87,2.11,3.17,2.38a1.29,1.29,0,0,0,1-.21l-.22.38a3,3,0,0,0-2.64,2.39c-.42,2.25,1.93,4.87,1.95,4.79s1.5-3,2-4.58a2.27,2.27,0,0,0-1.12-2.54,8.46,8.46,0,0,1,.74-1.1,1.81,1.81,0,0,0,.4,2c1,.88,3.71,1.05,3.71,1.05s-.71-2.77-1.72-3.65a1.51,1.51,0,0,0-1.77-.09,8.66,8.66,0,0,1,.9-.81,8.38,8.38,0,0,1,3.34-1.59,8.13,8.13,0,0,1,3.64,0,8.4,8.4,0,0,1,1.74.62,10.37,10.37,0,0,1,1.58,1,11.43,11.43,0,0,1,4.14,6.25,12.1,12.1,0,0,1-.46,7.59,13.91,13.91,0,0,1-4.61,5.89,13,13,0,0,1-6.8,2.48,12.62,12.62,0,0,1-7-1.62,17.09,17.09,0,0,1-5.49-5,18.48,18.48,0,0,1-3-7,18.77,18.77,0,0,1,0-7.65,19,19,0,0,1,1.18-3.63c.13-.28.27-.57.41-.85l.22-.43.23-.41c.31-.56.65-1.1,1-1.62a21.51,21.51,0,0,1,5.2-5.35,20.48,20.48,0,0,1,6.59-3.13,19.62,19.62,0,0,1,7.19-.56A20,20,0,0,1,228,213.4a26.06,26.06,0,0,1,6,4.35,28,28,0,0,1,7.53,13,29.25,29.25,0,0,1,0,15.23,28.46,28.46,0,0,1-1.24,3.61c-.25.58-.52,1.17-.8,1.73l-.22.43-.22.41c-.15.28-.31.56-.47.83a32.27,32.27,0,0,1-16.76,14.16,32.94,32.94,0,0,1-9.93,2.06l-2.4,0h0c-.67,0-1.34-.05-2-.1a32.32,32.32,0,0,1-7.13-1.43,30.68,30.68,0,0,1-3.4-1.33c-1.13-.52-2.26-1.07-3.38-1.63-4.49-2.25-8.89-4.74-13.2-7.37-2.15-1.32-4.29-2.68-6.4-4.07-1.87-1.24-3.74-2.5-5.55-3.8a56.44,56.44,0,0,0,0-87.48c1.81-1.29,3.68-2.56,5.55-3.79,2.11-1.4,4.25-2.76,6.4-4.07,4.31-2.64,8.71-5.13,13.2-7.37,1.12-.56,2.25-1.11,3.38-1.64a32.78,32.78,0,0,1,3.4-1.33,31.73,31.73,0,0,1,7.13-1.42c.68-.06,1.35-.09,2-.1h0c.81,0,1.61,0,2.4,0a33.56,33.56,0,0,1,9.93,2.06,32.27,32.27,0,0,1,16.76,14.16c.16.27.32.55.47.83l.22.42.22.43c.28.56.55,1.14.8,1.72a28.07,28.07,0,0,1,1.24,3.62,29.25,29.25,0,0,1,0,15.23,28.05,28.05,0,0,1-7.53,13,26,26,0,0,1-6,4.34,19.57,19.57,0,0,1-14.11,1.53,20.48,20.48,0,0,1-6.59-3.13,21.51,21.51,0,0,1-5.2-5.35c-.35-.52-.69-1.06-1-1.61l-.23-.42-.22-.43c-.14-.27-.28-.56-.41-.85a19,19,0,0,1-1.18-3.63,18.77,18.77,0,0,1,0-7.65,18.43,18.43,0,0,1,3-7,17.12,17.12,0,0,1,5.49-5,12.62,12.62,0,0,1,7-1.61,12.88,12.88,0,0,1,6.8,2.48,13.88,13.88,0,0,1,4.61,5.88,12.1,12.1,0,0,1,.46,7.59,11.43,11.43,0,0,1-4.14,6.25,10.43,10.43,0,0,1-1.58,1,9,9,0,0,1-1.74.62,8.13,8.13,0,0,1-3.64,0,8.5,8.5,0,0,1-3.34-1.58,7.74,7.74,0,0,1-.9-.82,1.49,1.49,0,0,0,1.77-.09c1-.88,1.72-3.65,1.72-3.65s-2.69.17-3.71,1.05a1.82,1.82,0,0,0-.4,2,10.07,10.07,0,0,1-.74-1.1,2.28,2.28,0,0,0,1.12-2.55c-.54-1.58-2.12-4.48-2-4.57s-2.37,2.53-1.95,4.78a3,3,0,0,0,2.64,2.39l.22.38a1.33,1.33,0,0,0-1-.21c-1.3.27-3.17,2.39-3.17,2.39s2.48,1.21,3.78.93c1.15-.24,1.27-1.62,1.28-1.92a9.16,9.16,0,0,0,1.26,1.23,8.84,8.84,0,0,0,3.43,1.7,8.41,8.41,0,0,0,3.8,0,8.69,8.69,0,0,0,1.82-.62,10.11,10.11,0,0,0,1.67-1,12,12,0,0,0,4.43-6.47,12.8,12.8,0,0,0-.38-8,14.68,14.68,0,0,0-4.8-6.28,13.77,13.77,0,0,0-7.18-2.73,13.51,13.51,0,0,0-7.5,1.63,18.21,18.21,0,0,0-5.88,5.22,19.57,19.57,0,0,0-3.26,7.4,20.17,20.17,0,0,0,0,8.19,19.53,19.53,0,0,0,1.23,3.91c.13.32.28.62.43.93l.23.45.24.45c.33.59.68,1.16,1.05,1.72a22.73,22.73,0,0,0,5.48,5.75,21.89,21.89,0,0,0,7,3.41,21,21,0,0,0,15.14-1.5,27.47,27.47,0,0,0,6.4-4.56,29.23,29.23,0,0,0,5-6.28,30.89,30.89,0,0,0,3.15-7.49,31.53,31.53,0,0,0,.06-16.28,32.36,32.36,0,0,0-1.32-3.89c-.26-.63-.54-1.24-.84-1.86l-.23-.45-.23-.45c-.16-.29-.32-.59-.49-.88a34.17,34.17,0,0,0-17.71-15.14c-.57-.21-1.14-.41-1.72-.6.49-.07,1-.14,1.48-.23a31.7,31.7,0,0,0,3.15-.7,17,17,0,0,0,3.09-1.17,9.44,9.44,0,0,0,1.47-.89,7,7,0,0,0,1.27-1.22,7.51,7.51,0,0,0,1.55-3.21,7.66,7.66,0,0,0-1.66-6.7,5.51,5.51,0,0,0-3-1.66,5.23,5.23,0,0,0-3.26.43,5.11,5.11,0,0,0-1.38,1,4.71,4.71,0,0,0-1,1.44,4.86,4.86,0,0,0-.14,3.42,4.34,4.34,0,0,0,.82,1.49,3.5,3.5,0,0,0,1.34.95,3.2,3.2,0,0,0,3.06-.42l0,0a3.1,3.1,0,0,1-3,.28,3.17,3.17,0,0,1-1.23-1,4.26,4.26,0,0,1-.71-1.41,4.47,4.47,0,0,1,.24-3.12,4.07,4.07,0,0,1,.91-1.25,4.6,4.6,0,0,1,4.17-1.08,4.81,4.81,0,0,1,2.49,1.54,5.24,5.24,0,0,1,.44.61,5.57,5.57,0,0,1,.37.68,6.75,6.75,0,0,1,.4,4.53,6.18,6.18,0,0,1-2.49,3.6,8.58,8.58,0,0,1-1.3.71,16.86,16.86,0,0,1-2.89,1,28.44,28.44,0,0,1-3,.54,51.19,51.19,0,0,1-6.19.4c-.79,0-1.57,0-2.36,0a35.68,35.68,0,0,0-3.73-.17h-.13c-.76,0-1.53,0-2.29.1a33.43,33.43,0,0,0-7.59,1.48,34,34,0,0,0-3.63,1.4c-1.17.54-2.31,1.09-3.45,1.66-4.43,2.21-8.75,4.64-13,7.22,5.49-5,10.94-10.06,16.32-15.21q6.6-6.31,13-12.91c4-4.17,7.95-8.45,11.73-12.89a49.05,49.05,0,0,1,4.26-4.15,35,35,0,0,1,6.23-4.37,18.75,18.75,0,0,1,3.44-1.45,10.52,10.52,0,0,1,3.64-.48,6.68,6.68,0,0,1,3.45,1.16,8.66,8.66,0,0,1,2.55,2.85l.18-.11a9.12,9.12,0,0,0-2.47-3.14,7.37,7.37,0,0,0-3.65-1.48,11.25,11.25,0,0,0-3.92.26,19.55,19.55,0,0,0-3.7,1.29,31.81,31.81,0,0,0-4,2.23c2-2.65,4-5.36,5.82-8.17,1.71-2.6,3.31-5.29,4.77-8.07A70.76,70.76,0,0,0,241,78.66a53.74,53.74,0,0,0,2.51-9.25,42.1,42.1,0,0,0,.55-9.65c0-.8-.12-1.61-.22-2.41-.05-.41-.1-.8-.16-1.21s-.14-.8-.21-1.19a30.25,30.25,0,0,0-1.33-4.69A28.53,28.53,0,0,0,237.34,42a27.63,27.63,0,0,0-15.7-9.38,26,26,0,0,0-9.1-.22,22,22,0,0,0-8.63,3.17,23.1,23.1,0,0,0-6.71,6.58A24.55,24.55,0,0,0,193.51,51a25.22,25.22,0,0,0,0,9.68,19.64,19.64,0,0,0,4,8.7A17.93,17.93,0,0,0,205,74.82a16.67,16.67,0,0,0,9,.77A13.71,13.71,0,0,0,218.4,74,14.29,14.29,0,0,0,222,71a15.69,15.69,0,0,0,3.8-8.69,16.3,16.3,0,0,0-.22-4.83,12.43,12.43,0,0,0-1.83-4.44,11.36,11.36,0,0,0-7.55-5,10.69,10.69,0,0,0-4.5.24,8.81,8.81,0,0,0-3.91,2.35,9.62,9.62,0,0,0-2.36,4.05,9.89,9.89,0,0,0-.29,1.31c-.19-.31-1.32-2-2.92-1.34-1.76.71-3.91,4.14-3.91,4.14s3.74,1.07,5.5.36a2.06,2.06,0,0,0,1.22-1.34,9.06,9.06,0,0,0,.07.91A4,4,0,0,0,204,63.09c1,2.58,5,3.55,5,3.45s-.38-4.11-.83-6.09a2.52,2.52,0,0,0-2.79-1.77,9.91,9.91,0,0,1,.06-2.31c.08.72.42,2.32,1.92,2.61,1.94.38,5.62-1.46,5.62-1.46s-2.81-3.12-4.76-3.5c-1.49-.29-2.34,1-2.66,1.69a7.92,7.92,0,0,1,.23-.87A9.34,9.34,0,0,1,208.08,51a8.36,8.36,0,0,1,3.76-2.16,10,10,0,0,1,4.29-.15,10.72,10.72,0,0,1,7.05,4.82,11.56,11.56,0,0,1,1.64,4.18,15.1,15.1,0,0,1,.15,4.55,14.52,14.52,0,0,1-3.65,8.08,13,13,0,0,1-7.44,4.13,15.65,15.65,0,0,1-8.43-.84,16.85,16.85,0,0,1-6.94-5.13,18.1,18.1,0,0,1-3.67-8.07,23.55,23.55,0,0,1,.11-9,22.9,22.9,0,0,1,3.51-8.24,21.16,21.16,0,0,1,6.28-6,20,20,0,0,1,3.87-1.87,21.2,21.2,0,0,1,4.16-1,25,25,0,0,1,8.54.27A25.83,25.83,0,0,1,236,43.31a26.36,26.36,0,0,1,4.44,7.7,27.26,27.26,0,0,1,1.22,4.35c.07.38.13.72.19,1.12l.15,1.13c.09.76.15,1.52.19,2.28a40,40,0,0,1-.57,9.14,50.36,50.36,0,0,1-2.44,8.84,81.6,81.6,0,0,1-8.47,16.23,153.72,153.72,0,0,1-11,14.59c-6.7,7.91-13.92,15.34-21.31,22.56a51.37,51.37,0,0,0,2.72-5.94,54.13,54.13,0,0,0,2.54-8.6,51.37,51.37,0,0,0,1.07-8.94,38.3,38.3,0,0,0-.76-9,24.24,24.24,0,0,0-3.34-8.34,19.47,19.47,0,0,0-6.32-6.07,18.5,18.5,0,0,0-8.16-2.56,18.09,18.09,0,0,0-8.39,1.47,16.2,16.2,0,0,0-3.74,2.24,15.66,15.66,0,0,0-3,3.25,17.17,17.17,0,0,0-1.23,17.34,12.83,12.83,0,0,0,2.67,3.59,12.18,12.18,0,0,0,3.66,2.39,11.5,11.5,0,0,0,8.42.18,11.91,11.91,0,0,0,1.94-.93A9.83,9.83,0,0,0,188.1,110a10.26,10.26,0,0,0,2.44-3.69,11,11,0,0,0,.72-4.43,10.22,10.22,0,0,0-.35-2.26c.3.25,1.67,1.29,2.87.3,1.36-1.13,2.35-4.74,2.35-4.74s-3.54.15-4.89,1.28a2.15,2.15,0,0,0-.69,2c-.1-.23-.2-.47-.31-.69a3.34,3.34,0,0,0,.2-3.72c-1.25-1.86-4.66-1.84-4.61-1.76s1,3.21,1.73,4.71a2,2,0,0,0,2.55.86,10.47,10.47,0,0,1,.5,1.46,2.21,2.21,0,0,0-2.55-1c-1.6.65-3.56,3.78-3.56,3.78s3.41,1,5,.33a2.3,2.3,0,0,0,1.28-2.25,11.13,11.13,0,0,1,.17,1.72,10.71,10.71,0,0,1-.82,4.24,10,10,0,0,1-2.4,3.44,9.4,9.4,0,0,1-1.67,1.22,11,11,0,0,1-5.86,1.42,10.93,10.93,0,0,1-3.93-.9,11.45,11.45,0,0,1-3.38-2.28,11.89,11.89,0,0,1-2.43-3.38,16.13,16.13,0,0,1,1.25-16.23,14.77,14.77,0,0,1,2.83-3,15.26,15.26,0,0,1,3.51-2.1A16.94,16.94,0,0,1,186,82.92a17.17,17.17,0,0,1,7.71,2.44,18.19,18.19,0,0,1,5.91,5.77,22.52,22.52,0,0,1,3.07,7.93,36.37,36.37,0,0,1,.61,8.66,50.64,50.64,0,0,1-3.77,16.91,47.85,47.85,0,0,1-3.92,7.64,41.66,41.66,0,0,1-4.6,6c-7.51,7.12-15.16,14.08-22.82,21l-1.8,1.28a48.48,48.48,0,0,0-56.61,0L108,159.32c-7.66-6.95-15.31-13.91-22.82-21a43.14,43.14,0,0,1-4.6-6,47.85,47.85,0,0,1-3.92-7.64,50.64,50.64,0,0,1-3.77-16.91,36.9,36.9,0,0,1,.61-8.66,22.52,22.52,0,0,1,3.07-7.93,18.22,18.22,0,0,1,5.92-5.77,17.09,17.09,0,0,1,7.7-2.44,16.92,16.92,0,0,1,7.93,1.38,15.05,15.05,0,0,1,3.51,2.1,14.5,14.5,0,0,1,2.83,3,16.07,16.07,0,0,1,1.25,16.23,11.89,11.89,0,0,1-2.43,3.38,11.45,11.45,0,0,1-3.38,2.28,11,11,0,0,1-7.92.32,11.15,11.15,0,0,1-1.87-.84,9.33,9.33,0,0,1-1.66-1.22,9.87,9.87,0,0,1-2.41-3.44,10.53,10.53,0,0,1-.81-4.24,9.12,9.12,0,0,1,.17-1.72,2.29,2.29,0,0,0,1.27,2.25c1.61.65,5-.33,5-.33s-2-3.13-3.57-3.78a2.22,2.22,0,0,0-2.55,1,10.47,10.47,0,0,1,.5-1.46A2,2,0,0,0,88.67,97c.71-1.5,1.61-4.71,1.73-4.71s-3.35-.1-4.61,1.76a3.36,3.36,0,0,0,.2,3.72c-.11.23-.21.46-.31.7A2.14,2.14,0,0,0,85,96.46c-1.35-1.13-4.88-1.28-4.88-1.28s1,3.61,2.34,4.74c1.2,1,2.57,0,2.87-.3a10.22,10.22,0,0,0-.35,2.26,11,11,0,0,0,.72,4.43A10.26,10.26,0,0,0,88.13,110a9.83,9.83,0,0,0,1.74,1.34,11.62,11.62,0,0,0,1.95.93,11.47,11.47,0,0,0,8.41-.18,12.05,12.05,0,0,0,3.66-2.39,12.83,12.83,0,0,0,2.67-3.59,17.11,17.11,0,0,0-1.23-17.34,15.89,15.89,0,0,0-3-3.25,16.48,16.48,0,0,0-3.75-2.24,18.07,18.07,0,0,0-8.39-1.47A18.5,18.5,0,0,0,82,84.37a19.47,19.47,0,0,0-6.32,6.07,24.24,24.24,0,0,0-3.34,8.34,38.3,38.3,0,0,0-.76,9,52.36,52.36,0,0,0,1.07,8.94,54.13,54.13,0,0,0,2.54,8.6,53.1,53.1,0,0,0,2.72,5.94C70.52,124,63.3,116.6,56.6,108.69a152,152,0,0,1-11-14.59A81.64,81.64,0,0,1,37.1,77.87,50.36,50.36,0,0,1,34.66,69a40,40,0,0,1-.57-9.14c0-.76.11-1.52.2-2.28,0-.38.09-.76.15-1.13s.12-.74.19-1.12A26.22,26.22,0,0,1,35.84,51a26.59,26.59,0,0,1,4.44-7.7,25.83,25.83,0,0,1,14.64-8.84,25,25,0,0,1,8.54-.27,21.2,21.2,0,0,1,4.16,1,20,20,0,0,1,3.87,1.87,21.19,21.19,0,0,1,6.29,6,22.88,22.88,0,0,1,3.5,8.24,23.36,23.36,0,0,1,.11,9,18,18,0,0,1-3.67,8.07,16.85,16.85,0,0,1-6.94,5.13,15.65,15.65,0,0,1-8.43.84,13,13,0,0,1-7.44-4.13,14.59,14.59,0,0,1-3.65-8.08,15.1,15.1,0,0,1,.15-4.55,11.94,11.94,0,0,1,1.64-4.18,10.75,10.75,0,0,1,7.05-4.82,10,10,0,0,1,4.29.15A8.31,8.31,0,0,1,68.15,51a9.47,9.47,0,0,1,2.34,3.84,7.9,7.9,0,0,1,.22.87c-.32-.65-1.17-2-2.66-1.69-1.94.38-4.76,3.5-4.76,3.5S67,59.36,68.91,59c1.5-.29,1.85-1.89,1.92-2.61a9.91,9.91,0,0,1,.06,2.31,2.52,2.52,0,0,0-2.79,1.77c-.45,2-.68,6-.82,6.09s4-.87,5-3.45a4,4,0,0,0-1.16-4.31,9.06,9.06,0,0,0,.07-.91,2.06,2.06,0,0,0,1.22,1.34c1.76.71,5.5-.36,5.5-.36S75.75,55.42,74,54.71c-1.6-.64-2.73,1-2.92,1.34a9.89,9.89,0,0,0-.29-1.31,9.7,9.7,0,0,0-2.35-4.05,8.9,8.9,0,0,0-3.92-2.35A10.69,10.69,0,0,0,60,48.1a11.36,11.36,0,0,0-7.55,5,12.61,12.61,0,0,0-1.83,4.44,16.3,16.3,0,0,0-.22,4.83A15.69,15.69,0,0,0,54.21,71a14.33,14.33,0,0,0,3.63,3,13.57,13.57,0,0,0,4.32,1.59,16.67,16.67,0,0,0,9-.77,17.93,17.93,0,0,0,7.53-5.42,19.53,19.53,0,0,0,4-8.7,25.22,25.22,0,0,0,0-9.68A24.55,24.55,0,0,0,79,42.15a23,23,0,0,0-6.71-6.58,22,22,0,0,0-8.63-3.17,26,26,0,0,0-9.1.22A27.57,27.57,0,0,0,38.9,42a28.33,28.33,0,0,0-4.83,8.26A30.25,30.25,0,0,0,32.74,55c-.07.39-.15.81-.2,1.19s-.12.8-.17,1.21c-.1.8-.17,1.61-.22,2.41a41.55,41.55,0,0,0,.56,9.65,52.83,52.83,0,0,0,2.5,9.25,70.76,70.76,0,0,0,3.87,8.65c1.46,2.78,3.07,5.47,4.77,8.07,1.84,2.81,3.79,5.52,5.82,8.17a31.81,31.81,0,0,0-4-2.23,19.55,19.55,0,0,0-3.7-1.29A11.23,11.23,0,0,0,38,99.77a7.33,7.33,0,0,0-3.64,1.48,9.15,9.15,0,0,0-2.48,3.14l.18.11a8.66,8.66,0,0,1,2.55-2.85,6.69,6.69,0,0,1,3.46-1.16,10.47,10.47,0,0,1,3.63.48,18.46,18.46,0,0,1,3.44,1.45,35,35,0,0,1,6.23,4.37,50.63,50.63,0,0,1,4.27,4.15c3.77,4.44,7.7,8.72,11.72,12.89q6.38,6.62,13,12.91c5.38,5.15,10.83,10.2,16.32,15.21-4.24-2.58-8.57-5-13-7.22-1.14-.57-2.28-1.12-3.44-1.66a35,35,0,0,0-3.64-1.4A33.45,33.45,0,0,0,69,140.19c-.77-.06-1.54-.09-2.3-.1h-.13a35.68,35.68,0,0,0-3.73.17c-.79,0-1.57,0-2.35,0a51.22,51.22,0,0,1-6.2-.4,27.83,27.83,0,0,1-3-.54,16.3,16.3,0,0,1-2.89-1,7.72,7.72,0,0,1-1.3-.71,6,6,0,0,1-1.1-1,6.2,6.2,0,0,1-1.4-2.63,6.77,6.77,0,0,1-.08-3.07,6.27,6.27,0,0,1,.49-1.46,7.3,7.3,0,0,1,.36-.68,5.32,5.32,0,0,1,.45-.61,4.77,4.77,0,0,1,2.49-1.54,4.6,4.6,0,0,1,2.9.26,4.85,4.85,0,0,1,1.27.82,4,4,0,0,1,.9,1.25,4.47,4.47,0,0,1,.24,3.12,4.08,4.08,0,0,1-.71,1.41,3.21,3.21,0,0,1-1.22,1,3.09,3.09,0,0,1-3-.28l0,0a3.2,3.2,0,0,0,3.06.42,3.5,3.5,0,0,0,1.34-.95,4.34,4.34,0,0,0,.82-1.49,4.86,4.86,0,0,0-.14-3.42,4.54,4.54,0,0,0-1-1.44,5.06,5.06,0,0,0-1.37-1,5.27,5.27,0,0,0-3.27-.43,5.55,5.55,0,0,0-2.95,1.66,7.76,7.76,0,0,0-.11,9.91,6.72,6.72,0,0,0,1.28,1.22,8.92,8.92,0,0,0,1.46.89,17.32,17.32,0,0,0,3.09,1.17,31.7,31.7,0,0,0,3.15.7c.5.09,1,.16,1.48.23-.57.19-1.15.39-1.72.6a34.17,34.17,0,0,0-17.71,15.14l-.49.88-.23.45-.23.45c-.3.62-.58,1.23-.84,1.86A30.65,30.65,0,0,0,33,165a31.32,31.32,0,0,0,.06,16.28,30.87,30.87,0,0,0,3.14,7.49,29.23,29.23,0,0,0,5,6.28,27.47,27.47,0,0,0,6.4,4.56,21,21,0,0,0,15.14,1.5,22,22,0,0,0,7-3.41A22.87,22.87,0,0,0,75.21,192c.38-.56.73-1.13,1.05-1.72l.24-.45.23-.45c.16-.31.3-.61.43-.93a18.91,18.91,0,0,0,1.23-3.91,20,20,0,0,0,0-8.19,19.57,19.57,0,0,0-3.26-7.4,18.11,18.11,0,0,0-5.88-5.22,13.51,13.51,0,0,0-7.5-1.63,13.77,13.77,0,0,0-7.18,2.73,14.76,14.76,0,0,0-4.8,6.28,12.73,12.73,0,0,0-.37,8,11.87,11.87,0,0,0,4.43,6.47,10,10,0,0,0,1.66,1,8.58,8.58,0,0,0,1.83.62,8.36,8.36,0,0,0,3.79,0,8.84,8.84,0,0,0,3.43-1.7,9.16,9.16,0,0,0,1.26-1.23c0,.3.13,1.68,1.28,1.92,1.3.28,3.78-.93,3.78-.93s-1.87-2.12-3.17-2.39a1.33,1.33,0,0,0-1,.21c.08-.12.15-.25.22-.38a3,3,0,0,0,2.64-2.39c.42-2.25-1.93-4.87-2-4.78s-1.5,3-2,4.57a2.26,2.26,0,0,0,1.12,2.55,11.84,11.84,0,0,1-.75,1.1,1.82,1.82,0,0,0-.4-2c-1-.88-3.71-1.05-3.71-1.05s.71,2.77,1.73,3.65a1.48,1.48,0,0,0,1.76.09,7.74,7.74,0,0,1-.9.82A8.5,8.5,0,0,1,61,186.84a8.13,8.13,0,0,1-3.64,0,8.7,8.7,0,0,1-1.73-.62,10.53,10.53,0,0,1-1.59-1A11.48,11.48,0,0,1,49.91,179a12.1,12.1,0,0,1,.46-7.59A14,14,0,0,1,55,165.5a12.88,12.88,0,0,1,6.8-2.48,12.6,12.6,0,0,1,7,1.61,16.92,16.92,0,0,1,5.49,5,18.45,18.45,0,0,1,3,7,18.77,18.77,0,0,1,0,7.65A19,19,0,0,1,76,187.88c-.13.29-.27.58-.41.85l-.22.43-.23.42c-.31.55-.65,1.09-1,1.61a21.51,21.51,0,0,1-5.2,5.35,20.48,20.48,0,0,1-6.59,3.13,19.57,19.57,0,0,1-14.11-1.53,26,26,0,0,1-6-4.34,28.05,28.05,0,0,1-7.53-13,29.35,29.35,0,0,1,0-15.23A26.67,26.67,0,0,1,36.05,162c.24-.58.51-1.16.79-1.72l.22-.43.22-.42c.16-.28.31-.56.47-.83A32.38,32.38,0,0,1,54.52,144.4a33.49,33.49,0,0,1,9.92-2.06c.8,0,1.59,0,2.4,0h0c.67,0,1.35,0,2,.1a31,31,0,0,1,10.53,2.75c1.13.53,2.26,1.08,3.38,1.64,4.49,2.24,8.89,4.73,13.2,7.37,2.16,1.31,4.29,2.67,6.41,4.07,1.85,1.22,3.69,2.47,5.49,3.75a56.42,56.42,0,0,0,0,87.56c-1.8,1.28-3.64,2.54-5.49,3.76-2.12,1.39-4.25,2.75-6.41,4.07-4.31,2.63-8.71,5.12-13.2,7.37-1.12.56-2.25,1.11-3.38,1.63a29.93,29.93,0,0,1-3.4,1.33,32.2,32.2,0,0,1-7.13,1.43c-.67.05-1.35.08-2,.1h0l-2.4,0a32.87,32.87,0,0,1-9.92-2.06A32.38,32.38,0,0,1,37.75,253c-.16-.27-.31-.55-.47-.83l-.22-.41-.22-.43c-.28-.56-.55-1.15-.79-1.73A27,27,0,0,1,34.8,246a29.35,29.35,0,0,1,0-15.23,28,28,0,0,1,7.53-13,26.06,26.06,0,0,1,6-4.35,20,20,0,0,1,6.92-2.09,19.62,19.62,0,0,1,7.19.56A20.48,20.48,0,0,1,69,215a21.51,21.51,0,0,1,5.2,5.35c.35.52.69,1.06,1,1.62l.23.41.22.43c.14.28.28.57.41.85a19,19,0,0,1,1.18,3.63,18.77,18.77,0,0,1,0,7.65,18.49,18.49,0,0,1-3,7,16.89,16.89,0,0,1-5.49,5,12.6,12.6,0,0,1-7,1.62,13,13,0,0,1-6.8-2.48,14,14,0,0,1-4.61-5.89,12.1,12.1,0,0,1-.46-7.59,11.48,11.48,0,0,1,4.14-6.25,10.46,10.46,0,0,1,1.59-1A8.14,8.14,0,0,1,61,224.7a8.38,8.38,0,0,1,3.34,1.59,8.66,8.66,0,0,1,.9.81,1.5,1.5,0,0,0-1.76.09c-1,.88-1.73,3.65-1.73,3.65s2.69-.17,3.71-1.05a1.81,1.81,0,0,0,.4-2,9.66,9.66,0,0,1,.75,1.1,2.24,2.24,0,0,0-1.12,2.54c.53,1.58,2.11,4.48,2,4.58s2.37-2.54,2-4.79a3,3,0,0,0-2.64-2.39l-.22-.38a1.29,1.29,0,0,0,1,.21c1.3-.27,3.17-2.38,3.17-2.38s-2.48-1.21-3.78-.94c-1.15.24-1.27,1.62-1.28,1.93a9.23,9.23,0,0,0-1.26-1.24,8.82,8.82,0,0,0-3.43-1.69,8.51,8.51,0,0,0-3.79-.05,9.18,9.18,0,0,0-1.83.62,10.76,10.76,0,0,0-1.66,1,11.87,11.87,0,0,0-4.43,6.47,12.72,12.72,0,0,0,.37,8,14.7,14.7,0,0,0,4.8,6.28,13.77,13.77,0,0,0,7.18,2.73,13.51,13.51,0,0,0,7.5-1.63,18.11,18.11,0,0,0,5.88-5.22,19.5,19.5,0,0,0,3.26-7.4,20,20,0,0,0,0-8.19,19.1,19.1,0,0,0-1.23-3.91c-.13-.31-.27-.62-.43-.93l-.23-.45-.24-.44c-.32-.59-.67-1.17-1.05-1.73a22.82,22.82,0,0,0-5.47-5.74,21.63,21.63,0,0,0-7-3.41,21,21,0,0,0-15.14,1.49,27.51,27.51,0,0,0-6.4,4.57,29.42,29.42,0,0,0-5,6.27,30.87,30.87,0,0,0-3.14,7.49A31.36,31.36,0,0,0,33,246.51a31,31,0,0,0,1.31,3.88q.39.95.84,1.86l.23.45.23.45.49.89a34.23,34.23,0,0,0,17.71,15.13c.57.22,1.15.42,1.72.6l-1.48.23a31.76,31.76,0,0,0-3.15.71,18.08,18.08,0,0,0-3.09,1.16,9.67,9.67,0,0,0-1.46.89A6.72,6.72,0,0,0,45.1,274a7.77,7.77,0,0,0,.11,9.91,5.49,5.49,0,0,0,2.95,1.66,5.2,5.2,0,0,0,3.27-.43,5.06,5.06,0,0,0,1.37-1,4.54,4.54,0,0,0,1-1.44,4.86,4.86,0,0,0,.14-3.42,4.39,4.39,0,0,0-.82-1.48,3.3,3.3,0,0,0-1.34-.95,3.2,3.2,0,0,0-3.06.41l0,.05a3.07,3.07,0,0,1,3-.29,3.31,3.31,0,0,1,1.22,1,4.08,4.08,0,0,1,.71,1.41,4.46,4.46,0,0,1-.24,3.12,4,4,0,0,1-.9,1.25,4.39,4.39,0,0,1-1.27.82,4.6,4.6,0,0,1-2.9.26,4.71,4.71,0,0,1-2.49-1.54,6.26,6.26,0,0,1-.45-.6c-.13-.23-.25-.45-.36-.68a6.35,6.35,0,0,1-.49-1.47,6.73,6.73,0,0,1,.08-3.06,6.24,6.24,0,0,1,1.4-2.64,6,6,0,0,1,1.1-1,7.72,7.72,0,0,1,1.3-.71,16.3,16.3,0,0,1,2.89-1,30.46,30.46,0,0,1,3-.54,55.63,55.63,0,0,1,6.2-.4c.78,0,1.56,0,2.35,0a33.15,33.15,0,0,0,3.73.17h.13c.76,0,1.53,0,2.3-.1a33.45,33.45,0,0,0,7.58-1.48,32.87,32.87,0,0,0,3.64-1.4c1.16-.54,2.3-1.09,3.44-1.66,4.43-2.21,8.76-4.64,13-7.21q-8.24,7.5-16.32,15.2-6.6,6.33-13,12.91c-4,4.17-8,8.45-11.72,12.89a50.63,50.63,0,0,1-4.27,4.15,35,35,0,0,1-6.23,4.37,18.46,18.46,0,0,1-3.44,1.45,10.48,10.48,0,0,1-3.63.49,6.78,6.78,0,0,1-3.46-1.16A8.69,8.69,0,0,1,32.07,307l-.18.11a9.06,9.06,0,0,0,2.48,3.14A7.33,7.33,0,0,0,38,311.77a11,11,0,0,0,3.92-.26,19.52,19.52,0,0,0,3.7-1.28,31.88,31.88,0,0,0,4-2.24c-2,2.65-4,5.36-5.82,8.17-1.7,2.61-3.31,5.29-4.77,8.07a72.15,72.15,0,0,0-3.87,8.65,53.06,53.06,0,0,0-2.5,9.25,41.55,41.55,0,0,0-.56,9.65c.05.81.12,1.61.22,2.41.05.41.1.8.17,1.21s.13.8.2,1.2a30.44,30.44,0,0,0,1.33,4.68,28.52,28.52,0,0,0,4.83,8.27,27.68,27.68,0,0,0,15.69,9.38,26.24,26.24,0,0,0,9.1.21A22.56,22.56,0,0,0,68.15,378,22.14,22.14,0,0,0,72.32,376,22.86,22.86,0,0,0,79,369.39a24.55,24.55,0,0,0,3.69-8.87,25.22,25.22,0,0,0,0-9.68,19.44,19.44,0,0,0-4-8.69,17.86,17.86,0,0,0-7.53-5.43,16.76,16.76,0,0,0-9-.77,13.81,13.81,0,0,0-4.32,1.59,14.16,14.16,0,0,0-3.63,3,15.66,15.66,0,0,0-3.8,8.68,16.38,16.38,0,0,0,.22,4.84,12.64,12.64,0,0,0,1.83,4.43,11.33,11.33,0,0,0,7.55,5,10.53,10.53,0,0,0,4.5-.24,8.81,8.81,0,0,0,3.92-2.35,9.7,9.7,0,0,0,2.35-4.05,9.23,9.23,0,0,0,.29-1.31c.19.31,1.32,2,2.92,1.34,1.76-.71,3.91-4.14,3.91-4.14s-3.74-1.07-5.5-.36a2.08,2.08,0,0,0-1.22,1.34c0-.3,0-.61-.07-.91a4,4,0,0,0,1.16-4.3c-1-2.58-5-3.56-5-3.46s.37,4.11.82,6.1a2.53,2.53,0,0,0,2.79,1.77,9.84,9.84,0,0,1-.06,2.3c-.07-.71-.42-2.31-1.92-2.61C67,352.18,63.29,354,63.29,354s2.82,3.12,4.76,3.5c1.49.3,2.34-1,2.66-1.68a8.33,8.33,0,0,1-.22.86,9.4,9.4,0,0,1-2.34,3.84,8.42,8.42,0,0,1-3.76,2.17,10,10,0,0,1-4.29.14A10.71,10.71,0,0,1,53.05,358a12,12,0,0,1-1.64-4.17,15.17,15.17,0,0,1-.15-4.56,14.62,14.62,0,0,1,3.65-8.08,13.07,13.07,0,0,1,7.44-4.13,15.65,15.65,0,0,1,8.43.84,16.87,16.87,0,0,1,6.94,5.14,18,18,0,0,1,3.67,8.06,23.41,23.41,0,0,1-.11,9.06,22.91,22.91,0,0,1-3.5,8.23,21.19,21.19,0,0,1-6.29,6.05,19.43,19.43,0,0,1-3.87,1.87,20.51,20.51,0,0,1-4.16,1,25,25,0,0,1-8.54-.27,25.83,25.83,0,0,1-14.64-8.84,26.46,26.46,0,0,1-4.44-7.7,26,26,0,0,1-1.21-4.35c-.07-.37-.13-.72-.19-1.12s-.11-.75-.15-1.13c-.09-.76-.16-1.52-.2-2.28a39.92,39.92,0,0,1,.57-9.13,50.23,50.23,0,0,1,2.44-8.85,81.91,81.91,0,0,1,8.48-16.23,151.82,151.82,0,0,1,11-14.58c6.7-7.92,13.92-15.34,21.31-22.57a54.54,54.54,0,0,0-5.26,14.54,52.6,52.6,0,0,0-1.07,8.94,38.21,38.21,0,0,0,.76,9,24.24,24.24,0,0,0,3.34,8.34A19.51,19.51,0,0,0,82,327.18a18.62,18.62,0,0,0,8.16,2.55,17.81,17.81,0,0,0,8.39-1.47A16.12,16.12,0,0,0,102.3,326a15.89,15.89,0,0,0,3-3.25,17.11,17.11,0,0,0,1.23-17.34,13,13,0,0,0-2.67-3.59,11.84,11.84,0,0,0-3.66-2.38,11.42,11.42,0,0,0-8.41-.19,11.67,11.67,0,0,0-1.95.94,9.78,9.78,0,0,0-1.74,1.33,10.39,10.39,0,0,0-2.44,3.7,10.93,10.93,0,0,0-.72,4.42,10,10,0,0,0,.35,2.26c-.3-.25-1.67-1.29-2.87-.29-1.35,1.12-2.34,4.74-2.34,4.74s3.53-.16,4.88-1.28a2.17,2.17,0,0,0,.69-2c.1.24.2.47.31.7a3.34,3.34,0,0,0-.2,3.71c1.26,1.87,4.66,1.84,4.61,1.76s-1-3.21-1.73-4.71a2,2,0,0,0-2.55-.86,10.8,10.8,0,0,1-.5-1.45,2.22,2.22,0,0,0,2.55,1c1.61-.64,3.57-3.78,3.57-3.78s-3.42-1-5-.33a2.29,2.29,0,0,0-1.27,2.25,9,9,0,0,1-.17-1.72,10.49,10.49,0,0,1,.81-4.23A9.81,9.81,0,0,1,88.49,302a9.33,9.33,0,0,1,1.66-1.22,12,12,0,0,1,1.87-.84,11.07,11.07,0,0,1,4-.58,10.74,10.74,0,0,1,3.93.91,11.41,11.41,0,0,1,3.38,2.27,12.18,12.18,0,0,1,2.43,3.38,16.07,16.07,0,0,1-1.25,16.23,14.55,14.55,0,0,1-2.83,3,15.37,15.37,0,0,1-3.51,2.09,17,17,0,0,1-15.63-1.06,18.22,18.22,0,0,1-5.92-5.77,22.37,22.37,0,0,1-3.07-7.93,36.86,36.86,0,0,1-.61-8.66,50.7,50.7,0,0,1,3.77-16.91,47.85,47.85,0,0,1,3.92-7.64,43.14,43.14,0,0,1,4.6-6c7.51-7.12,15.16-14.07,22.82-21l1.74-1.24a48.44,48.44,0,0,0,56.61,0c.6.44,1.2.86,1.8,1.28,7.66,7,15.31,13.91,22.82,21a41.66,41.66,0,0,1,4.6,6,47.85,47.85,0,0,1,3.92,7.64,50.7,50.7,0,0,1,3.77,16.91,36.33,36.33,0,0,1-.61,8.66,22.37,22.37,0,0,1-3.07,7.93,18.19,18.19,0,0,1-5.91,5.77,17,17,0,0,1-15.64,1.06,15.59,15.59,0,0,1-3.51-2.09,14.82,14.82,0,0,1-2.83-3,16.13,16.13,0,0,1-1.25-16.23,12.18,12.18,0,0,1,2.43-3.38,11.41,11.41,0,0,1,3.38-2.27,10.74,10.74,0,0,1,3.93-.91,11,11,0,0,1,4,.58,11.62,11.62,0,0,1,1.87.84,9.4,9.4,0,0,1,1.67,1.22,9.92,9.92,0,0,1,2.4,3.45,10.67,10.67,0,0,1,.82,4.23,11,11,0,0,1-.17,1.72,2.3,2.3,0,0,0-1.28-2.25c-1.61-.65-5,.33-5,.33s2,3.14,3.56,3.78a2.2,2.2,0,0,0,2.55-1,10.8,10.8,0,0,1-.5,1.45,2,2,0,0,0-2.55.86c-.71,1.5-1.61,4.71-1.73,4.71s3.36.11,4.61-1.76a3.32,3.32,0,0,0-.2-3.71c.11-.23.21-.46.31-.7a2.17,2.17,0,0,0,.69,2c1.35,1.12,4.89,1.28,4.89,1.28s-1-3.62-2.35-4.74c-1.2-1-2.57,0-2.87.29a10,10,0,0,0,.35-2.26,10.93,10.93,0,0,0-.72-4.42,10.39,10.39,0,0,0-2.44-3.7,9.78,9.78,0,0,0-1.74-1.33,12,12,0,0,0-1.94-.94,11.45,11.45,0,0,0-8.42.19,12,12,0,0,0-3.66,2.38,13,13,0,0,0-2.67,3.59,17.1,17.1,0,0,0-1.74,8.86,16.88,16.88,0,0,0,3,8.48,15.66,15.66,0,0,0,3,3.25,15.86,15.86,0,0,0,3.74,2.24,17.84,17.84,0,0,0,8.39,1.47,18.62,18.62,0,0,0,8.16-2.55,19.51,19.51,0,0,0,6.32-6.08,24.24,24.24,0,0,0,3.34-8.34,38.21,38.21,0,0,0,.76-9,51.61,51.61,0,0,0-1.07-8.94,54.43,54.43,0,0,0-2.54-8.6,52.15,52.15,0,0,0-2.72-5.94c7.39,7.23,14.61,14.65,21.31,22.57a153.58,153.58,0,0,1,11,14.58,81.87,81.87,0,0,1,8.47,16.23,50.23,50.23,0,0,1,2.44,8.85,39.92,39.92,0,0,1,.57,9.13c0,.76-.1,1.52-.19,2.28,0,.38-.1.77-.15,1.13s-.12.75-.19,1.12a27,27,0,0,1-1.22,4.35,26.23,26.23,0,0,1-4.44,7.7,25.83,25.83,0,0,1-14.64,8.84,25,25,0,0,1-8.54.27,20.51,20.51,0,0,1-4.16-1,19.43,19.43,0,0,1-3.87-1.87,21.16,21.16,0,0,1-6.28-6.05,22.93,22.93,0,0,1-3.51-8.23,23.61,23.61,0,0,1-.11-9.06,18.06,18.06,0,0,1,3.67-8.06,16.87,16.87,0,0,1,6.94-5.14,15.65,15.65,0,0,1,8.43-.84,13.07,13.07,0,0,1,7.44,4.13A14.55,14.55,0,0,1,225,349.3a15.17,15.17,0,0,1-.15,4.56,11.59,11.59,0,0,1-1.64,4.17,10.69,10.69,0,0,1-7.05,4.82,10,10,0,0,1-4.29-.14,8.47,8.47,0,0,1-3.76-2.17,9.27,9.27,0,0,1-2.33-3.84,8.37,8.37,0,0,1-.23-.86c.32.64,1.17,2,2.66,1.68,1.95-.38,4.76-3.5,4.76-3.5s-3.68-1.84-5.62-1.46c-1.5.3-1.84,1.9-1.92,2.61a9.84,9.84,0,0,1-.06-2.3,2.53,2.53,0,0,0,2.79-1.77c.45-2,.68-6.06.83-6.1s-4,.88-5,3.46a4,4,0,0,0,1.16,4.3c0,.3-.06.61-.07.91a2.08,2.08,0,0,0-1.22-1.34c-1.76-.71-5.5.36-5.5.36s2.15,3.43,3.91,4.14c1.6.64,2.73-1,2.92-1.34a9.23,9.23,0,0,0,.29,1.31,9.62,9.62,0,0,0,2.36,4.05,8.72,8.72,0,0,0,3.91,2.35,10.53,10.53,0,0,0,4.5.24,11.33,11.33,0,0,0,7.55-5A12.45,12.45,0,0,0,225.6,354a16.38,16.38,0,0,0,.22-4.84,15.66,15.66,0,0,0-3.8-8.68,14.12,14.12,0,0,0-3.62-3,14,14,0,0,0-4.33-1.59,16.76,16.76,0,0,0-9,.77,17.86,17.86,0,0,0-7.53,5.43,19.55,19.55,0,0,0-4,8.69,25.22,25.22,0,0,0,0,9.68,24.55,24.55,0,0,0,3.69,8.87,23,23,0,0,0,6.71,6.58,22.14,22.14,0,0,0,4.17,2.06,22.56,22.56,0,0,0,4.46,1.11,26.24,26.24,0,0,0,9.1-.21,27.73,27.73,0,0,0,15.7-9.38,28.72,28.72,0,0,0,4.82-8.27,30.44,30.44,0,0,0,1.33-4.68c.07-.4.15-.82.21-1.2s.11-.8.16-1.21c.1-.8.18-1.6.22-2.41a42.1,42.1,0,0,0-.55-9.65,54,54,0,0,0-2.51-9.25,72.15,72.15,0,0,0-3.87-8.65c-1.46-2.78-3.06-5.46-4.77-8.07-1.84-2.81-3.79-5.52-5.82-8.17a31.88,31.88,0,0,0,4,2.24A19.52,19.52,0,0,0,234.3,311.51ZM208.94,231a14.59,14.59,0,0,0-.35,4.36,12.43,12.43,0,0,1,.17-4.38,8.68,8.68,0,0,1,.58-1.78l.07,0C209.32,229.49,209.17,230,208.94,231Zm1.47-3.6a7.91,7.91,0,0,1-1.38-.22c-1.16-.24-3.08-.72-3.08-.72s2,.33,3.11.57a9.39,9.39,0,0,1,1.36.35Zm1.25,1c.91.78,2.38,2.15,2.38,2.15s-1.56-1.25-2.47-2a11.07,11.07,0,0,1-1-.92l0,0A8.73,8.73,0,0,1,211.66,228.32Zm-2.32-45.92a9.1,9.1,0,0,1-.58-1.79,12.36,12.36,0,0,1-.17-4.37,14.6,14.6,0,0,0,.35,4.36c.23.92.38,1.46.47,1.76Zm-.28,2.16c-1.16.24-3.11.57-3.11.57s1.92-.48,3.08-.72a11.16,11.16,0,0,1,1.38-.22v0A9.39,9.39,0,0,1,209.06,184.56Zm1.56-.5,0,0a11.75,11.75,0,0,1,1-.91c.91-.79,2.47-2,2.47-2s-1.47,1.36-2.38,2.15A11.85,11.85,0,0,1,210.62,184.06ZM205.15,56.13a14,14,0,0,1-1.84.84c-1.57.63-4.23,1.58-4.23,1.58s2.58-1.15,4.15-1.78a13.18,13.18,0,0,1,1.93-.67Zm.28,3.3a.28.28,0,0,0,0-.09c.11.39.29,1,.57,1.88a17,17,0,0,0,2.4,4.66,14.25,14.25,0,0,1-2.59-4.54,13.59,13.59,0,0,1-.49-1.89Zm2.08-3.09c1.73.34,4.61,1,4.61,1s-2.92-.46-4.65-.8a12.61,12.61,0,0,1-2-.5v0A12.4,12.4,0,0,1,207.51,56.34ZM190.06,97.63c-.13-.25-.4-.75-.92-1.64a13.29,13.29,0,0,0-2.75-3.25,11.51,11.51,0,0,1,2.89,3.12,9.32,9.32,0,0,1,.84,1.74Zm-1,2.75c-1.43.57-3.86,1.44-3.86,1.44s2.36-1.06,3.79-1.63a10.5,10.5,0,0,1,1.7-.59,0,0,0,0,1,0,0A14,14,0,0,1,189,100.38Zm1.85-.85a10.67,10.67,0,0,1,1.38-1.27c1.21-1,3.28-2.61,3.28-2.61s-2,1.76-3.16,2.77a12.73,12.73,0,0,1-1.5,1.13ZM87,95.86a11.38,11.38,0,0,1,2.88-3.12A13.29,13.29,0,0,0,87.09,96c-.52.89-.79,1.39-.92,1.64l-.06,0A9,9,0,0,1,87,95.86Zm-1.4,3.74a10.5,10.5,0,0,1,1.7.59c1.43.57,3.8,1.63,3.8,1.63s-2.43-.87-3.87-1.44a15,15,0,0,1-1.64-.75Zm-1.72-1.18c-1.2-1-3.16-2.77-3.16-2.77s2.07,1.6,3.28,2.61a12.28,12.28,0,0,1,1.39,1.27v0A12.73,12.73,0,0,1,83.84,98.42ZM70.44,61.34a14.4,14.4,0,0,1-2.6,4.54,17,17,0,0,0,2.4-4.66c.29-.89.46-1.49.57-1.88,0,0,0,.06,0,.09l.12,0A13.2,13.2,0,0,1,70.44,61.34ZM73,56.77c1.57.63,4.15,1.78,4.15,1.78S74.49,57.6,72.92,57a14,14,0,0,1-1.84-.84v0A13.36,13.36,0,0,1,73,56.77Zm-2.22-.71a12.61,12.61,0,0,1-2,.5c-1.73.34-4.64.8-4.64.8s2.87-.68,4.6-1A12.4,12.4,0,0,1,70.78,56ZM67.29,180.6a14.6,14.6,0,0,0,.35-4.36,12.52,12.52,0,0,1-.16,4.37,9.61,9.61,0,0,1-.59,1.79l-.07,0C66.91,182.06,67.06,181.52,67.29,180.6Zm-1.47,3.59a10.87,10.87,0,0,1,1.38.22c1.16.24,3.08.72,3.08.72s-2-.33-3.11-.57a9.39,9.39,0,0,1-1.36-.35Zm-1.25-1c-.91-.79-2.38-2.15-2.38-2.15s1.56,1.24,2.47,2a12.78,12.78,0,0,1,1,.91l0,0A11.85,11.85,0,0,1,64.57,183.23Zm2.32,45.92a9.15,9.15,0,0,1,.59,1.78,12.58,12.58,0,0,1,.16,4.38,14.59,14.59,0,0,0-.35-4.36c-.23-.93-.38-1.46-.47-1.76Zm.28-2.17c1.16-.24,3.11-.57,3.11-.57s-1.92.48-3.08.72a7.78,7.78,0,0,1-1.38.22v0A9.39,9.39,0,0,1,67.17,227Zm-1.56.51,0,0a12,12,0,0,1-1,.92c-.91.78-2.47,2-2.47,2s1.47-1.37,2.38-2.15A8.73,8.73,0,0,1,65.61,227.49Zm5.47,127.93a11.87,11.87,0,0,1,1.84-.85c1.57-.63,4.23-1.58,4.23-1.58s-2.58,1.16-4.15,1.79a12.39,12.39,0,0,1-1.92.66Zm-.28-3.3s0,.05,0,.08c-.11-.39-.28-1-.57-1.88a17.12,17.12,0,0,0-2.4-4.66,14.4,14.4,0,0,1,2.6,4.54,13.54,13.54,0,0,1,.48,1.89Zm-2.08,3.09c-1.73-.34-4.6-1-4.6-1s2.91.46,4.64.8a12.61,12.61,0,0,1,2,.5v0A13,13,0,0,1,68.72,355.21Zm17.45-41.3c.14.26.4.75.92,1.64a13.07,13.07,0,0,0,2.75,3.25A11.44,11.44,0,0,1,87,315.69a8.66,8.66,0,0,1-.85-1.75Zm1-2.74c1.44-.58,3.87-1.44,3.87-1.44s-2.37,1-3.8,1.62a12.7,12.7,0,0,1-1.7.6v0A14,14,0,0,1,87.19,311.17Zm-1.84.85A15.05,15.05,0,0,1,84,313.29c-1.21,1-3.28,2.6-3.28,2.6s2-1.76,3.16-2.76a10.41,10.41,0,0,1,1.5-1.13Zm18.14-69.45a54.44,54.44,0,0,1,0-73.6,46.83,46.83,0,0,1,69.14,0,54.44,54.44,0,0,1,0,73.6,46.83,46.83,0,0,1-69.14,0Zm85.79,73.12a11.57,11.57,0,0,1-2.89,3.11,13.07,13.07,0,0,0,2.75-3.25c.52-.89.79-1.38.92-1.64l.06,0A9,9,0,0,1,189.28,315.69Zm1.39-3.74a12.7,12.7,0,0,1-1.7-.6c-1.43-.57-3.79-1.62-3.79-1.62s2.43.86,3.86,1.44a13.1,13.1,0,0,1,1.64.74A.06.06,0,0,1,190.67,312Zm1.72,1.18c1.21,1,3.16,2.76,3.16,2.76s-2.07-1.6-3.28-2.6a12.71,12.71,0,0,1-1.38-1.27v0A10.41,10.41,0,0,1,192.39,313.13ZM205.8,350.2a14.25,14.25,0,0,1,2.59-4.54,17.12,17.12,0,0,0-2.4,4.66c-.28.89-.46,1.49-.57,1.88a.25.25,0,0,0,0-.08l-.12,0A14,14,0,0,1,205.8,350.2Zm-2.57,4.58c-1.57-.63-4.15-1.79-4.15-1.79s2.66.95,4.23,1.58a11.87,11.87,0,0,1,1.84.85v0A12.25,12.25,0,0,1,203.23,354.78Zm2.22.7a12.61,12.61,0,0,1,2-.5c1.73-.34,4.65-.8,4.65-.8s-2.88.69-4.61,1a13,13,0,0,1-2.06.3Z"/><path class="cls-2" d="M220.89,275.39l.36-.38-.92-.1Z"/><path class="cls-2" d="M219.81,277a7.32,7.32,0,0,1,.66-1.07l-1.26-1.08c-.65-.05-1.32-.09-2-.11Z"/><path class="cls-2" d="M219.1,278.9c.06-.26.13-.51.21-.76s.13-.36.21-.53l-3.28-2.93h-1.87Z"/><path class="cls-2" d="M218.91,281.33a8.89,8.89,0,0,1,.05-1.63l-5.41-5c-.56.06-1.13.1-1.69.13Z"/><path class="cls-2" d="M228.86,288.85l-.22,0a8,8,0,0,1-1.4.14l15.35,14.21.47-.81,1.42.87Z"/><path class="cls-2" d="M211.6,285.8l-11-12.13c-.54-.13-1.07-.28-1.6-.45,4.35,4.19,8.31,8.14,12.09,12Z"/><path class="cls-2" d="M236.27,307.51a7,7,0,0,0,1.38.16H238l.15,0-32.08-33c-.67-.06-1.32-.15-2-.25Z"/><path class="cls-2" d="M239.52,307.25l.36-.21a3.93,3.93,0,0,0,.63-.54l-31.79-31.56-2-.18Z"/><path class="cls-2" d="M225.84,289a8.17,8.17,0,0,1-2.37-.74c-.15-.07-.29-.15-.43-.23l18.26,17.5c0-.07.09-.14.13-.22l.51-.88Z"/><path class="cls-2" d="M220.1,285.16a8.12,8.12,0,0,1-.54-1.06,8,8,0,0,1-.51-1.66l-7.93-7.6-1.19,0h-.2l-.35,0Z"/><path class="cls-2" d="M230.27,304.72a25.91,25.91,0,0,0,2.25,1.36c.45.24.89.46,1.32.64l-30.47-32.44c-.71-.13-1.41-.27-2.11-.44Z"/><g class="cls-3"><path d="M33.52,220.93a1.74,1.74,0,0,0,.11-.18l-3.12.47v1.29l2.33-.35C33.06,221.74,33.29,221.33,33.52,220.93Z"/><path d="M35,218.6l-4.53.59v1.28l3.58-.47C34.39,219.53,34.71,219.06,35,218.6Z"/><path d="M32.43,222.94l-1.92.32v1.29l1.27-.21C32,223.87,32.2,223.4,32.43,222.94Z"/><path d="M38.58,214.4l-8.07.75v1.28l6.75-.63C37.68,215.32,38.12,214.85,38.58,214.4Z"/><path d="M36.67,216.48l-6.16.69v1.28l5-.57C35.91,217.4,36.28,216.93,36.67,216.48Z"/><path d="M32.35,253.84c-.13-.27-.26-.54-.38-.82l-1.46.66v1.38l2-.9Z"/><path d="M40.81,212.37l-10.3.77v1.28l8.72-.65C39.74,213.28,40.27,212.82,40.81,212.37Z"/><path d="M31.78,187.21,30.51,187v1.29l1.92.33C32.2,188.15,32,187.68,31.78,187.21Z"/><path d="M30.6,227.36l-.09,0v.25Z"/><path d="M31.43,225.14l-.92.18v1.29l.38-.07C31.06,226.07,31.24,225.6,31.43,225.14Z"/><path d="M30.51,249.32v1.08l.33-.13Z"/><path d="M46.23,202.73c-.66-.33-1.3-.7-1.94-1.08l-13.78-.51v1.27l16.32.61Z"/><path d="M37.26,195.74l-6.75-.62v1.27l8.07.75C38.12,196.69,37.68,196.22,37.26,195.74Z"/><path d="M35.55,193.66l-5-.56v1.28l6.16.69C36.28,194.61,35.91,194.14,35.55,193.66Z"/><path d="M33.52,190.62c-.23-.41-.46-.82-.68-1.23L30.51,189v1.28l3.12.47A1,1,0,0,0,33.52,190.62Z"/><path d="M34.09,191.54l-3.58-.47v1.28L35,193C34.71,192.49,34.39,192,34.09,191.54Z"/><path d="M39.23,197.78l-8.72-.65v1.27l10.3.77C40.27,198.73,39.74,198.26,39.23,197.78Z"/><path d="M41.54,199.75l-11-.62v1.28l13,.72C42.82,200.7,42.17,200.24,41.54,199.75Z"/><path d="M52.17,206.73l-21.66.4v1.28l17.31-.32A23.32,23.32,0,0,1,52.17,206.73Z"/><path d="M46.23,208.81c.19-.1.39-.19.6-.28l-16.32.6v1.28l13.78-.52C44.93,209.51,45.57,209.15,46.23,208.81Z"/><path d="M43.48,210.41l-13,.73v1.27l11-.62C42.17,211.31,42.82,210.84,43.48,210.41Z"/><path d="M33.4,255.81c-.15-.27-.31-.55-.49-.89l-2.4,1.13v1.39l3-1.42Z"/><path d="M47.82,203.46l-17.31-.32v1.27l21.66.4A24.05,24.05,0,0,1,47.82,203.46Z"/><path d="M31.41,251.76l-.27-.69-.63.27v1.38l1.11-.48Z"/><path d="M30.79,311.4l-.28.27v1.74l1.12-1.11C31.34,312,31.06,311.71,30.79,311.4Z"/><path d="M45.1,288,30.51,301v1.66l15.82-14.12A9.76,9.76,0,0,1,45.1,288Z"/><path d="M35.08,314.51l-4.57,4.86v1.8l5.87-6.25A11.54,11.54,0,0,1,35.08,314.51Z"/><path d="M32.7,313.2l-2.19,2.25v1.77l3.25-3.34A9.08,9.08,0,0,1,32.7,313.2Z"/><path d="M43.3,286.65l-12.79,11v1.63l13.75-11.85A8.14,8.14,0,0,1,43.3,286.65Z"/><path d="M41.91,284.94l-11.4,9.48V296l12.14-10.09A10.33,10.33,0,0,1,41.91,284.94Z"/><path d="M32.23,331.65c.39-1.07.81-2.13,1.26-3.19l-3,3.52v1.9l1.6-1.88Z"/><path d="M31.1,362.54c-.09-.24-.18-.49-.26-.74l-.33.48v2.16l.85-1.24C31.27,363,31.19,362.76,31.1,362.54Z"/><path d="M30.76,336.21l-.25.3v.63C30.6,336.83,30.68,336.52,30.76,336.21Z"/><path d="M36.29,322.58c.74-1.43,1.54-2.85,2.39-4.28l-8.17,9.32v1.86l5.38-6.13Z"/><path d="M39.19,315.25c-.41,0-.82,0-1.21-.06l-7.47,8.23v1.83l9.08-10Z"/><path d="M40.9,282.92l-10.39,8.33v1.6l10.91-8.76A8.83,8.83,0,0,1,40.9,282.92Z"/><path d="M37.69,261.87l-7.18,4.06v1.44l8-4.55C38.25,262.51,38,262.19,37.69,261.87Z"/><path d="M39.12,263.43l-8.61,5.08V270L40,264.34C39.73,264,39.42,263.74,39.12,263.43Z"/><path d="M34,256.75l-3.45,1.71v1.4l4.12-2C34.4,257.47,34.18,257.11,34,256.75Z"/><path d="M40.3,280.6l-9.79,7.57v1.57L40.58,282A12,12,0,0,1,40.3,280.6Z"/><path d="M40.65,264.91l-10.14,6.23v1.47l11.12-6.83C41.29,265.5,41,265.21,40.65,264.91Z"/><path d="M35.1,258.52l-4.59,2.39v1.41l5.33-2.76C35.59,259.22,35.34,258.87,35.1,258.52Z"/><path d="M36.35,260.23l-5.84,3.17v1.42l6.63-3.59C36.87,260.9,36.61,260.57,36.35,260.23Z"/><path d="M40.43,276.43a11,11,0,0,1,.52-1.69l-10.44,7.49v1.54l9.88-7.09C40.4,276.59,40.42,276.51,40.43,276.43Z"/><path d="M40.21,277.94l-9.7,7.22v1.56l9.67-7.21A11.76,11.76,0,0,1,40.21,277.94Z"/><path d="M42.69,271.74A10.44,10.44,0,0,1,44.55,270,16.31,16.31,0,0,1,46,269l-.29-.18L30.51,279.37v1.51l11.21-7.75A11.15,11.15,0,0,1,42.69,271.74Z"/><path d="M44,267.62l-13.45,8.95v1.5l14.55-9.68Z"/><path d="M42.26,266.31l-11.75,7.51v1.49l12.79-8.18C43,266.86,42.6,266.59,42.26,266.31Z"/><path d="M38.58,37.49c.3-.29.6-.58.91-.86l-4.4-7.49H33.68Z"/><path d="M30.51,30.63,36.25,40l.26-.31.57-.66-6-9.93h-.52Z"/><path d="M32.34,365.4l-1.83,2.78v2.21L33,366.64C32.76,366.24,32.54,365.82,32.34,365.4Z"/><path d="M34.9,41.82l-4.39-6.93v2.28l3.65,5.75C34.4,42.55,34.65,42.18,34.9,41.82Z"/><path d="M33,44.9l-2.47-3.75v2.22l1.83,2.77C32.54,45.72,32.76,45.31,33,44.9Z"/><path d="M43.85,33.32l1-.62L43,29.14H41.58Z"/><path d="M41.12,35.25l1-.74-3-5.37h-1.4Z"/><path d="M39.19,96.29h.4l-9.08-10v1.84L38,96.36A11.92,11.92,0,0,1,39.19,96.29Z"/><path d="M36.29,89c-.14-.26-.27-.52-.4-.78l-5.38-6.13v1.87l8.17,9.32C37.83,91.81,37,90.39,36.29,89Z"/><path d="M31.1,49l.26-.66-.85-1.24v2.17l.33.47C30.92,49.49,31,49.24,31.1,49Z"/><path d="M36.38,96.62l-5.87-6.24v1.8L35.08,97A9.85,9.85,0,0,1,36.38,96.62Z"/><path d="M32.23,79.9l-.12-.35-1.6-1.89v1.9l3,3.53C33,82,32.62,81,32.23,79.9Z"/><path d="M30.51,74.41V75l.25.31C30.68,75,30.6,74.72,30.51,74.41Z"/><path d="M46.75,31.72c.36-.18.73-.35,1.1-.51l-1.07-2.07H45.41Z"/><path d="M230.82,29.14h-1.36l-1.08,2.07c.37.16.74.33,1.1.51Z"/><path d="M231.34,32.7l1,.62,2.27-4.18h-1.38Z"/><path d="M234.14,34.51l1,.74,3.45-6.11h-1.39Z"/><path d="M236.74,36.63c.31.28.61.57.91.86l4.9-8.35h-1.41Z"/><path d="M239.15,39.07l.57.66L240,40l5.63-9.22V29.14h-.41Z"/><path d="M53,29.49l1-.22.24,0-.05-.09H52.85Z"/><path d="M49.81,30.43c.38-.14.77-.27,1.16-.39l-.45-.9H49.17Z"/><path d="M227.07,29.14h-1.36l-.45.9c.39.12.78.25,1.16.39Z"/><path d="M64.85,29.14h0Z"/><path d="M211.39,29.14Z"/><path d="M223.21,29.49l.17-.35H222l0,.09.23,0Z"/><path d="M43.3,144.41l-12.79-8.18v1.49l11.75,7.51C42.6,145,43,144.68,43.3,144.41Z"/><path d="M41.63,145.76l-11.12-6.83v1.47l10.14,6.23C41,146.34,41.29,146.05,41.63,145.76Z"/><path d="M35.84,152l-5.33-2.77v1.42L35.1,153C35.34,152.67,35.59,152.33,35.84,152Z"/><path d="M37.14,150.32l-6.63-3.6v1.43l5.84,3.16C36.61,151,36.87,150.64,37.14,150.32Z"/><path d="M38.54,148.72l-8-4.55v1.44l7.18,4.07C38,149.35,38.25,149,38.54,148.72Z"/><path d="M40,147.2l-9.53-5.62V143l8.61,5.08C39.42,147.8,39.73,147.5,40,147.2Z"/><path d="M34.63,153.72l-4.12-2v1.4L34,154.79Z"/><path d="M30.84,161.27l-.33-.13v1.09Z"/><path d="M30.51,183.91v.25l.09,0Z"/><path d="M32.35,157.71l.17-.33-2-.9v1.38l1.46.66C32.09,158.24,32.22,158,32.35,157.71Z"/><path d="M31.41,159.78l.21-.48-1.11-.47v1.37l.63.27Z"/><path d="M33.4,155.74l.12-.21-3-1.43v1.39l2.4,1.14C33.09,156.28,33.25,156,33.4,155.74Z"/><path d="M30.89,185l-.38-.07v1.29l.92.17C31.24,185.94,31.06,185.48,30.89,185Z"/><path d="M41.42,127.45,30.51,118.7v1.59l10.39,8.33A10.16,10.16,0,0,1,41.42,127.45Z"/><path d="M42.65,125.6,30.51,115.51v1.62l11.4,9.48A10.46,10.46,0,0,1,42.65,125.6Z"/><path d="M44.26,124.09,30.51,112.24v1.64l12.79,11A9.34,9.34,0,0,1,44.26,124.09Z"/><path d="M31.63,99.24l-1.12-1.11v1.74l.28.28C31.06,99.83,31.34,99.53,31.63,99.24Z"/><path d="M46.33,123,30.51,108.87v1.66l14.59,13A8.47,8.47,0,0,1,46.33,123Z"/><path d="M33.76,97.66l-3.25-3.34v1.77l2.19,2.25A9.08,9.08,0,0,1,33.76,97.66Z"/><path d="M40.58,129.59,30.51,121.8v1.57l9.79,7.57A12,12,0,0,1,40.58,129.59Z"/><path d="M46,142.52a12.86,12.86,0,0,1-1.48-.94,10.8,10.8,0,0,1-2.83-3.17l-11.21-7.75v1.52l15.23,10.53Z"/><path d="M45.06,143.15l-14.55-9.67V135L44,143.92Z"/><path d="M40.18,132l-9.67-7.21v1.56l9.7,7.22A11.73,11.73,0,0,1,40.18,132Z"/><path d="M40.43,135.12c0-.09,0-.17,0-.25l-9.88-7.09v1.53L41,136.8A10.89,10.89,0,0,1,40.43,135.12Z"/><path d="M243.88,253.84l-.16.32,1.89.85v-1.38l-1.34-.61Z"/><path d="M242.71,190.62s-.07.11-.11.17l3-.45v-1.29l-2.22.34C243.17,189.8,243,190.21,242.71,190.62Z"/><path d="M243.8,188.61l1.81-.31V187l-1.15.2C244.25,187.68,244,188.15,243.8,188.61Z"/><path d="M244.8,186.4l.81-.15V185l-.27,0C245.17,185.48,245,185.94,244.8,186.4Z"/><path d="M239.88,151.31l5.73-3.1v-1.43l-6.52,3.54C239.36,150.64,239.62,151,239.88,151.31Z"/><path d="M241.2,193l4.41-.58v-1.28l-3.47.45C241.84,192,241.52,192.49,241.2,193Z"/><path d="M239.56,195.07l6.05-.68v-1.28l-4.93.55C240.32,194.14,240,194.61,239.56,195.07Z"/><path d="M237.65,197.14l8-.74v-1.27l-6.63.61C238.55,196.22,238.11,196.69,237.65,197.14Z"/><path d="M244.82,159.78l.27.69.52-.22v-1.37l-1,.42C244.68,159.46,244.75,159.62,244.82,159.78Z"/><path d="M242.28,154.79l3.33-1.65v-1.4l-4,2C241.83,154.08,242.06,154.43,242.28,154.79Z"/><path d="M241.13,153l4.48-2.32v-1.42L240.39,152C240.64,152.33,240.89,152.67,241.13,153Z"/><path d="M243.88,157.71l.39.81,1.34-.61v-1.38l-1.89.85Z"/><path d="M242.83,155.74c.15.26.31.54.49.89l2.29-1.08v-1.4l-2.9,1.38Z"/><path d="M245.61,161.88v-.69l-.22.08C245.46,161.48,245.54,161.68,245.61,161.88Z"/><path d="M234.69,211.79l10.92.61v-1.27l-12.85-.72C233.42,210.84,234.06,211.31,234.69,211.79Z"/><path d="M239,215.8l6.63.62v-1.28l-8-.74C238.11,214.85,238.55,215.32,239,215.8Z"/><path d="M237,213.77l8.61.64v-1.28l-10.19-.76C236,212.82,236.49,213.28,237,213.77Z"/><path d="M242.14,220l3.47.46v-1.29l-4.41-.57C241.52,219.06,241.84,219.53,242.14,220Z"/><path d="M235.42,199.17l10.19-.76v-1.27l-8.61.64C236.49,198.26,236,198.73,235.42,199.17Z"/><path d="M240.68,217.88l4.93.55v-1.28l-6.05-.67C240,216.93,240.32,217.4,240.68,217.88Z"/><path d="M230,202.73l-.6.29,16.2-.61v-1.27l-13.67.51C231.31,202,230.66,202.4,230,202.73Z"/><path d="M230,208.81c.65.34,1.3.7,1.93,1.08l13.67.51v-1.27l-16.2-.6Z"/><path d="M232.76,201.13l12.85-.72v-1.27l-10.92.61C234.06,200.24,233.42,200.7,232.76,201.13Z"/><path d="M228.41,208.09l17.2.31v-1.27l-21.55-.4A23.09,23.09,0,0,1,228.41,208.09Z"/><path d="M224.06,204.81l21.55-.4v-1.27l-17.2.32A23.81,23.81,0,0,1,224.06,204.81Z"/><path d="M235.8,135.12a12.07,12.07,0,0,1-.51,1.68l10.32-7.41v-1.53l-9.76,7C235.83,135,235.82,135,235.8,135.12Z"/><path d="M240,89c-.75,1.42-1.54,2.84-2.4,4.28l8.06-9.2V82.19l-5.27,6Z"/><path d="M241.15,97l4.46-4.74V90.5l-5.76,6.12A9.39,9.39,0,0,1,241.15,97Z"/><path d="M237,96.29a11.76,11.76,0,0,1,1.21.07l7.36-8.11V86.42l-9,9.88Z"/><path d="M243.53,98.34l2.08-2.13V94.44l-3.14,3.22A9.08,9.08,0,0,1,243.53,98.34Z"/><path d="M245.44,100.15l.17-.16V98.25l-1,1C244.89,99.53,245.17,99.83,245.44,100.15Z"/><path d="M245.13,49l.27.74.21-.31V47.27l-.74,1.07C245,48.56,245.05,48.78,245.13,49Z"/><path d="M243.89,46.14l1.72-2.6V41.32l-2.36,3.58C243.47,45.31,243.69,45.72,243.89,46.14Z"/><path d="M244,79.9c-.39,1.06-.81,2.12-1.26,3.19l2.87-3.39V77.8l-1.49,1.75Z"/><path d="M242.07,42.92l3.54-5.58V35.07l-4.28,6.75C241.59,42.18,241.83,42.55,242.07,42.92Z"/><path d="M34.9,369.73c-.25-.37-.5-.73-.74-1.11l-3.65,5.76v2.27Z"/><path d="M245.47,75.34l.14-.17v-.34C245.56,75,245.51,75.17,245.47,75.34Z"/><path d="M236,133.6l9.58-7.14v-1.55L236.05,132A11.73,11.73,0,0,1,236,133.6Z"/><path d="M234,145.23l11.64-7.44v-1.48l-12.68,8.1C233.28,144.68,233.63,145,234,145.23Z"/><path d="M233.54,139.8a10.44,10.44,0,0,1-1.86,1.78,12.05,12.05,0,0,1-1.48.94l.29.19,15.12-10.45v-1.52l-11.1,7.67A10.46,10.46,0,0,1,233.54,139.8Z"/><path d="M232.27,143.92l13.34-8.87v-1.5l-14.44,9.6C231.55,143.4,231.91,143.66,232.27,143.92Z"/><path d="M237.11,148.11l8.5-5v-1.45l-9.42,5.55C236.51,147.5,236.81,147.8,237.11,148.11Z"/><path d="M235.59,146.63l10-6.16V139l-11,6.76Z"/><path d="M242.71,220.93c.24.4.46.81.68,1.23l2.22.33V221.2l-3-.45Z"/><path d="M235.34,128.62l10.27-8.24v-1.59l-10.8,8.66A12.31,12.31,0,0,1,235.34,128.62Z"/><path d="M232.93,124.9,245.61,114v-1.63L232,124.09A9.34,9.34,0,0,1,232.93,124.9Z"/><path d="M234.32,126.61l11.29-9.39v-1.61l-12,10A10.36,10.36,0,0,1,234.32,126.61Z"/><path d="M238.54,149.68l7.07-4v-1.44l-7.92,4.48C238,149,238.26,149.35,238.54,149.68Z"/><path d="M235.94,130.94l9.67-7.48v-1.57l-10,7.7A12,12,0,0,1,235.94,130.94Z"/><path d="M231.13,123.56l14.48-12.93V109L229.9,123A7.6,7.6,0,0,1,231.13,123.56Z"/><path d="M245.61,380.72,240,371.5l-.26.32-.57.66,6,9.92h.41Z"/><path d="M237.65,374.06l-.91.85,4.4,7.49h1.41Z"/><path d="M241.33,369.73l4.28,6.75V374.2l-3.54-5.58C241.83,369,241.59,369.36,241.33,369.73Z"/><path d="M232.38,378.22l-1,.62,1.93,3.56h1.38Z"/><path d="M229.48,379.83l-1.1.51,1.08,2.06h1.36Z"/><path d="M235.11,376.29c-.32.26-.65.5-1,.74l3,5.37h1.39Z"/><path d="M240,322.58l.39.77,5.27,6v-1.87l-8.06-9.19C238.41,319.73,239.2,321.15,240,322.58Z"/><path d="M244,331.65l.12.35,1.49,1.75v-1.91l-2.87-3.38C243.19,329.52,243.61,330.58,244,331.65Z"/><path d="M243.25,366.64l2.36,3.58V368l-1.72-2.61C243.69,365.82,243.47,366.24,243.25,366.64Z"/><path d="M245.61,336.71v-.34l-.14-.16C245.51,336.37,245.56,336.54,245.61,336.71Z"/><path d="M245.13,362.54c-.08.22-.17.45-.26.66l.74,1.08v-2.17l-.21-.31Z"/><path d="M39.49,374.91l-.91-.85-4.9,8.34h1.41Z"/><path d="M47.85,380.34l-1.1-.51-1.34,2.57h1.37Z"/><path d="M226.42,381.11c-.38.14-.77.27-1.16.39l.45.9h1.36Z"/><path d="M42.1,377c-.33-.24-.66-.48-1-.74l-3.45,6.11h1.4Z"/><path d="M37.08,372.48l-.57-.66-.26-.32-5.74,9.41v1.49H31Z"/><path d="M237,315.25h-.4l9,9.89v-1.84l-7.36-8.1C237.86,315.22,237.46,315.25,237,315.25Z"/><path d="M44.89,378.84l-1-.62-2.27,4.18H43Z"/><path d="M211.39,382.4h0Z"/><path d="M51,381.5c-.39-.12-.78-.25-1.16-.39l-.64,1.29h1.35Z"/><path d="M223.21,382.06c-.32.07-.65.15-1,.21l-.23.05,0,.08h1.34Z"/><path d="M54.24,382.32l-.24-.05c-.33-.06-.66-.14-1-.21l-.17.34h1.34Z"/><path d="M244.46,224.34l1.15.19v-1.29l-1.81-.3C244,223.4,244.25,223.87,244.46,224.34Z"/><path d="M64.85,382.4h0Z"/><path d="M239.09,261.23l6.52,3.53v-1.43l-5.73-3.1C239.62,260.57,239.36,260.9,239.09,261.23Z"/><path d="M237.69,262.82l7.92,4.49v-1.45l-7.07-4C238.26,262.19,238,262.51,237.69,262.82Z"/><path d="M239.85,314.92l5.76,6.13v-1.8l-4.46-4.74A10.93,10.93,0,0,1,239.85,314.92Z"/><path d="M234.61,265.78l11,6.76v-1.47l-10-6.16C235.26,265.21,234.94,265.5,234.61,265.78Z"/><path d="M236.19,264.34l9.42,5.56v-1.46l-8.5-5C236.81,263.74,236.51,264,236.19,264.34Z"/><path d="M245.34,226.54l.27,0v-1.29l-.81-.15C245,225.6,245.17,226.07,245.34,226.54Z"/><path d="M232.93,267.13l12.68,8.11v-1.49L234,266.31C233.63,266.59,233.28,266.86,232.93,267.13Z"/><path d="M245.39,250.27l.22.09v-.7Z"/><path d="M244.82,251.76c-.07.16-.14.32-.2.48l1,.43v-1.38l-.52-.22Z"/><path d="M242.83,255.81l-.12.21,2.9,1.37V256l-2.29-1.08C243.14,255.26,243,255.54,242.83,255.81Z"/><path d="M241.6,257.82l4,2V258.4l-3.33-1.65C242.06,257.11,241.83,257.47,241.6,257.82Z"/><path d="M240.39,259.56l5.22,2.7v-1.41l-4.48-2.33C240.89,258.87,240.64,259.22,240.39,259.56Z"/><path d="M231.17,268.39l14.44,9.6v-1.5l-13.34-8.87C231.91,267.88,231.55,268.14,231.17,268.39Z"/><path d="M229.9,288.55l15.71,14v-1.66L231.13,288A8.61,8.61,0,0,1,229.9,288.55Z"/><path d="M244.6,312.3l1,1v-1.74l-.17-.16C245.17,311.71,244.89,312,244.6,312.3Z"/><path d="M242.47,313.88l3.14,3.22v-1.76l-2.08-2.14A9.08,9.08,0,0,1,242.47,313.88Z"/><path d="M233.59,285.94l12,10v-1.62l-11.29-9.38A10.23,10.23,0,0,1,233.59,285.94Z"/><path d="M232,287.45l13.64,11.76v-1.64l-12.68-10.92A8.14,8.14,0,0,1,232,287.45Z"/><path d="M230.2,269a15,15,0,0,1,1.48.94,10.44,10.44,0,0,1,1.86,1.78,11.15,11.15,0,0,1,1,1.39l11.1,7.67v-1.51l-15.12-10.45Z"/><path d="M235.8,276.43c0,.08,0,.16,0,.25l9.76,7v-1.54l-10.32-7.41A12.2,12.2,0,0,1,235.8,276.43Z"/><path d="M236.05,279.51l9.56,7.12v-1.55L236,277.94A11.75,11.75,0,0,1,236.05,279.51Z"/><path d="M234.81,284.09l10.8,8.66v-1.59l-10.27-8.24A10.4,10.4,0,0,1,234.81,284.09Z"/><path d="M235.65,282l10,7.71v-1.58l-9.67-7.48A12,12,0,0,1,235.65,282Z"/></g><g class="cls-3"><circle cx="156.69" cy="215.13" r="5.13"/><path d="M148.54,236.56v-.07a22.41,22.41,0,0,1,.25-32.09,18.7,18.7,0,0,0-.25-21.77l-.26-.34a18.71,18.71,0,0,0-33.54,11h0S110.5,213,148.54,236.56ZM128,190.38a5.14,5.14,0,1,1,5.13,5.13A5.14,5.14,0,0,1,128,190.38Z"/></g></g></g></svg>