<svg xmlns="http://www.w3.org/2000/svg" viewBox="0 0 983.68 44.53"><defs><style>.cls-1{fill:#d4c6b0;}</style></defs><g id="Layer_2" data-name="Layer 2"><g id="object"><path class="cls-1" d="M467.79,7.67h48.1a1,1,0,0,0,0-1.95h-48.1a1,1,0,0,0,0,2Z"/><path class="cls-1" d="M467.79,38.81h48.1a1,1,0,0,0,0-2h-48.1a1,1,0,0,0,0,2Z"/><path class="cls-1" d="M522.43,44.53H461.25a1.75,1.75,0,0,1-1.65-2.34l6.86-19.42L459.59,2.31A1.75,1.75,0,0,1,461.25,0h61.18a1.75,1.75,0,0,1,1.66,2.31l-6.87,20.46,6.86,19.42a1.75,1.75,0,0,1-1.65,2.34ZM463.73,41H520l-6.24-17.65a1.81,1.81,0,0,1,0-1.15L520,3.51h-56.3L470,22.22a1.81,1.81,0,0,1,0,1.15Z"/><path class="cls-1" d="M539.7,20.12H963.88c5.63,0,11.74.68,17.34,0a6.59,6.59,0,0,1,.77,0,1.76,1.76,0,0,0,0-3.51H557.81c-5.63,0-11.74-.67-17.34,0a6.59,6.59,0,0,1-.77,0,1.76,1.76,0,0,0,0,3.51Z"/><path class="cls-1" d="M554.62,26.49H930.1c1.57,0,3.66.37,5.2,0a3.42,3.42,0,0,1,.64,0,1,1,0,0,0,0-1.94H560.45c-1.57,0-3.66-.37-5.19,0a3.42,3.42,0,0,1-.64,0,1,1,0,0,0,0,1.94Z"/><path class="cls-1" d="M554.62,12.19H930.1c1.57,0,3.66.37,5.2,0a3.42,3.42,0,0,1,.64,0,1,1,0,0,0,0-1.95H560.45c-1.57,0-3.66-.37-5.19,0a2.74,2.74,0,0,1-.64,0,1,1,0,0,0,0,1.95Z"/><path class="cls-1" d="M444,16.61H19.8c-5.62,0-11.74-.67-17.34,0a6.59,6.59,0,0,1-.77,0,1.76,1.76,0,0,0,0,3.51H425.88c5.62,0,11.74.68,17.34,0a6.42,6.42,0,0,1,.76,0,1.76,1.76,0,0,0,0-3.51Z"/><path class="cls-1" d="M429.07,24.55H53.58c-1.57,0-3.66-.37-5.2,0a3.42,3.42,0,0,1-.64,0,1,1,0,0,0,0,1.94H423.23c1.57,0,3.66.37,5.2,0a3.42,3.42,0,0,1,.64,0,1,1,0,0,0,0-1.94Z"/><path class="cls-1" d="M429.07,10.24H53.58c-1.57,0-3.66-.37-5.2,0a2.74,2.74,0,0,1-.64,0,1,1,0,0,0,0,1.95H423.23c1.57,0,3.66.37,5.2,0a3.42,3.42,0,0,1,.64,0,1,1,0,0,0,0-1.95Z"/></g></g></svg>